<?xml version="1.0" standalone="no"?>
<!DOCTYPE svg PUBLIC "-//W3C//DTD SVG 1.1//EN" "http://www.w3.org/Graphics/SVG/1.1/DTD/svg11.dtd" >
<svg>
<metadata>
Created by FontForge 20090622 at Sat Mar 17 12:52:59 2018
 By deploy user
Copyright \251 2002, M Klein Fonteria. All rights reserved.
</metadata>
<defs>
<font id="Timeless-Bold" horiz-adv-x="521" >
  <font-face 
    font-family="Timeless"
    font-weight="700"
    font-stretch="normal"
    units-per-em="1000"
    panose-1="2 0 8 3 6 0 0 2 0 4"
    ascent="800"
    descent="-200"
    x-height="484"
    cap-height="684"
    bbox="-49 -233.419 1011 933"
    underline-thickness="50"
    underline-position="-75"
    unicode-range="U+0005-U+E004"
  />
<missing-glyph horiz-adv-x="596" 
d="M280 478q54 0 94 -40q32 -32 38 -72t-8.5 -75t-47 -59t-77.5 -24t-74.5 20t-44 50t-14 65t15 65t44.5 50t74 20zM468 212q21 28 31 62t10 69t-10.5 69t-30.5 62l81 80l-59 58l-79 -80q-28 21 -62 31t-70 10q-35 0 -69 -10.5t-62 -30.5l-79 80l-58 -58l80 -80
q-21 -28 -31 -62t-10 -69t10.5 -69t30.5 -62l-80 -80l58 -58l79 80q28 -21 62 -31t69 -10q36 0 70 10.5t62 30.5l79 -80l58 58z" />
    <glyph glyph-name=".notdef" horiz-adv-x="596" 
d="M280 478q54 0 94 -40q32 -32 38 -72t-8.5 -75t-47 -59t-77.5 -24t-74.5 20t-44 50t-14 65t15 65t44.5 50t74 20zM468 212q21 28 31 62t10 69t-10.5 69t-30.5 62l81 80l-59 58l-79 -80q-28 21 -62 31t-70 10q-35 0 -69 -10.5t-62 -30.5l-79 80l-58 -58l80 -80
q-21 -28 -31 -62t-10 -69t10.5 -69t30.5 -62l-80 -80l58 -58l79 80q28 -21 62 -31t69 -10q36 0 70 10.5t62 30.5l79 -80l58 58z" />
    <glyph glyph-name="breve" horiz-adv-x="371" 
d="M11 705q2 -33 12 -66.5t37 -55.5q22 -18 50 -27t57 -9t57 9t50 27q27 22 37.5 55.5t12.5 66.5h-51q-10 -43 -40.5 -64.5t-65.5 -21.5t-65.5 21.5t-40.5 64.5h-50z" />
    <glyph glyph-name="dotaccent" horiz-adv-x="180" 
d="M72 686q-26 0 -43.5 -19t-17.5 -45t17.5 -45t43.5 -19t43.5 19t17.5 45t-17.5 45t-43.5 19z" />
    <glyph glyph-name="ring" horiz-adv-x="271" 
d="M118 759q-35 0 -58.5 -15.5t-35.5 -39.5t-12 -51t12 -51t35.5 -39.5t58.5 -15.5t58.5 15.5t35 39.5t11.5 51t-11.5 51t-35 39.5t-58.5 15.5zM118 709q28 0 41.5 -17.5t13.5 -38.5t-13.5 -38.5t-41.5 -17.5t-42 17.5t-14 38.5t14 38.5t42 17.5z" />
    <glyph glyph-name="hungarumlaut" unicode="&#xa;" horiz-adv-x="477" 
d="M11 551h68l147 119q5 4 4 8.5t-5.5 8.5t-10 7.5l-8.5 5.5q-17 10 -29.5 13t-31.5 1q-13 -8 -31.5 -29.5t-38 -47l-37 -49.5zM209 551h69l148 119q5 4 3.5 8.5t-6 9t-10 7.5t-8.5 5q-17 10 -29.5 13t-31.5 1q-13 -8 -31.5 -29.5t-38 -47l-37 -49.5t-28.5 -37z" />
    <glyph glyph-name="ogonek" horiz-adv-x="282" 
d="M99 14q-15 -9 -30.5 -22.5t-28.5 -29.5t-21 -34t-8 -36q0 -41 27 -62t64 -22.5t74.5 17.5t58.5 59l-30 12q-29 -21 -51 -25.5t-35.5 3t-19.5 24t-3.5 36.5t14 41.5t31.5 38.5h-42z" />
    <glyph glyph-name="caron" horiz-adv-x="388" 
d="M11 712l117 -162h96l117 162h-71l-94 -92l-95 92h-70z" />
    <glyph glyph-name="dotlessi" unicode="&#xd;" horiz-adv-x="239" 
d="M192 12q-13 0 -14 13.5t-1 22.5v437q-42 2 -83 -1t-83 -5v-6l15 -6q12 0 14.5 -13.5t2.5 -21.5v-383q0 -19 -6 -28t-25 -9v-12h180v12z" />
    <glyph glyph-name="fraction" horiz-adv-x="852" 
d="M723 626q0 26 -17.5 45t-43.5 19t-43.5 -19t-17.5 -45t17.5 -45t43.5 -19t43.5 17.5t17.5 46.5zM314 626q0 29 -17.5 46.5t-43.5 17.5t-43 -19t-17 -45t17 -45t43 -19t43.5 19t17.5 45zM590 701h-69l-428 -716h69zM406 -75h-51q-10 -43 -40.5 -64.5t-65.5 -21.5
t-65.5 21.5t-40.5 64.5h-50q2 -33 12 -66.5t37 -55.5q22 -18 50 -27t57 -9t57 9t50 27q27 22 37.5 55.5t12.5 66.5zM638 643q0 -11 -11 -11t-11 11t11 11t11 -11zM223 643q0 -11 -11 -11t-11 11t11 11t11 -11z" />
    <glyph glyph-name="fi" horiz-adv-x="593" 
d="M539 12q-6 0 -8.5 4t-3.5 10t-1 12v10v437q-5 4 -28 4.5t-50.5 -0.5t-52 -3t-33.5 -2q0 -13 1 -16l1 -3q1 0 7 -1t13.5 -7t7.5 -19v-389q0 -17 -5 -27t-23 -10v-12h175v12zM517 642q0 35 -21.5 52t-50.5 17q-25 0 -46 -16q-13 8 -42 15.5t-64 8t-72.5 -8t-68.5 -32
t-51 -64t-20 -104.5v-26h-77v-29h77v-406q0 -20 -6.5 -28.5t-26.5 -8.5v-12h180v12q-6 0 -8.5 4t-3.5 10t-1 12v10v407h123v29h-123q0 23 -0.5 56.5t5.5 64t22.5 52t51.5 21.5q30 0 50.5 -3.5t33.5 -6.5q-5 -13 -5 -26q0 -29 21.5 -49t50.5 -20t50.5 20t21.5 49z" />
    <glyph glyph-name="fl" horiz-adv-x="602" 
d="M531 709q-14 5 -31 5.5t-34 -2.5t-33 -9.5t-26 -16.5q-3 8 -28 18.5t-60.5 15t-76 0t-75 -26t-57.5 -64t-23 -113.5v-32h-76v-29h76v-406q0 -20 -6.5 -28.5t-26.5 -8.5v-12h210v12q-20 0 -29 4t-12 10t-2.5 12t0.5 10v407h149v29h-149q0 22 -1.5 56t4 66.5t21 56
t49.5 23.5q9 0 26 -2.5t34 -5.5l30 -5.5l13 -2.5v-621q0 -17 -5 -27t-23 -10v-12h185v12q-9 0 -14 4t-7 10t-2 12v10v661z" />
    <glyph glyph-name="Lslash" horiz-adv-x="617" 
d="M385 514l-147 -87v202q0 16 3.5 24t10.5 11.5t17 4.5t24 2v13h-256v-13q26 0 38.5 -6t12.5 -35v-292l-77 -46v-75l77 46v-208q0 -29 -11 -34.5t-37 -7.5v-13h506l24 172h-16q-12 -29 -24 -48.5t-27.5 -31.5t-37.5 -17.5t-55 -5.5h-126q-18 0 -32 3.5t-14 25.5v254l147 87
v75z" />
    <glyph glyph-name="lslash" horiz-adv-x="357" 
d="M11 314v-69l80 55v-251q0 -19 -6 -28t-25 -9v-12h180v12q-13 0 -14 13.5t-1 22.5v342l85 57v69l-85 -57v250q-42 2 -83 -0.5t-83 -4.5v-6l15 -6q12 0 14.5 -13.5t2.5 -21.5v-288z" />
    <glyph glyph-name="Zcaron" horiz-adv-x="614" 
d="M552 179q-9 -33 -21.5 -54t-30.5 -33t-43 -16.5t-58 -4.5h-216l365 552v61h-504l-12 -162h16q8 29 19 47t26.5 27.5t36.5 13t50 3.5l196 1l-365 -551v-63h541l15 179h-15zM125 898l118 -162h96l117 162h-71l-94 -92l-95 92h-71z" />
    <glyph glyph-name="zcaron" horiz-adv-x="471" 
d="M29 484l-3 -125h13q7 34 22.5 46.5t48.5 12.5l148 1l-247 -356v-63h404l9 133l-15 1q-9 -37 -29.5 -53t-58.5 -16h-148l243 354v65h-387zM53 712l118 -162h96l117 162h-71l-94 -92l-95 92h-71z" />
    <glyph glyph-name="space" unicode=" " horiz-adv-x="301" 
 />
    <glyph glyph-name="exclam" unicode="!" horiz-adv-x="217" 
d="M91 144q-32 0 -53.5 -22t-21.5 -54q0 -31 22 -52.5t53 -21.5t53 22t22 53t-22 53t-53 22zM123 217l19 223q1 16 6.5 44.5t10.5 58.5t8.5 56.5t2.5 37.5q-4 27 -27.5 41.5t-51.5 14.5t-52 -14t-28 -42q-2 -11 1.5 -37t9 -56.5t10 -59t6.5 -44.5l19 -223h66z" />
    <glyph glyph-name="quotedbl" unicode="&#x22;" horiz-adv-x="396" 
d="M326 425q10 57 16.5 114.5t6.5 115.5q0 9 -7 16.5t-16.5 12t-20 7t-17.5 2.5t-17.5 -2.5t-20 -7t-16.5 -12t-7 -16.5q-1 -58 6 -115.5t17 -114.5h76zM110 425q10 57 16.5 114.5t6.5 115.5q0 9 -7 16.5t-16.5 12t-20 7t-17.5 2.5t-17.5 -2.5t-20 -7t-16.5 -12t-7 -16.5
q-1 -58 6 -115.5t17 -114.5h76z" />
    <glyph glyph-name="numbersign" unicode="#" horiz-adv-x="551" 
d="M11 283v-76h94l-29 -207h81l29 207h112l-29 -207h81l29 207h97v76h-86l19 130h95v76h-85l30 208h-81l-30 -208h-112l30 208h-81l-30 -208h-106v-76h96l-19 -130h-105zM197 283l19 130h112l-19 -130h-112z" />
    <glyph glyph-name="dollar" unicode="$" horiz-adv-x="508" 
d="M255 763h-50v-75q-42 -5 -77.5 -18t-61.5 -36.5t-40.5 -57.5t-14.5 -79t16.5 -78t43.5 -57.5t62 -42.5t72 -33v-226q-31 1 -60.5 19t-52.5 39t-37 38l-14 17l-0.5 -15t-2 -37t-5 -46.5t-10.5 -43.5l-4 3l4 -4q45 -17 89.5 -25t92.5 -10v-89h50v91q42 4 79.5 18t65.5 38
t44.5 59t16.5 81q0 37 -10.5 66.5t-29.5 52.5t-45.5 41.5t-57.5 33.5l-62 30h-1v205q24 -1 48 -7.5t44 -19t35 -31t20 -43.5l18 5q-2 9 -2 26v35t0.5 35t0.5 26q-35 19 -80 29.5t-84 12.5v73zM205 440q-12 6 -24.5 13t-23.5 16q-23 19 -28.5 42t2 45t27 39.5t47.5 24.5v-180
zM255 263q25 -13 46 -29q27 -21 34.5 -47t0 -51t-28.5 -44.5t-52 -26.5v198z" />
    <glyph glyph-name="percent" unicode="%" horiz-adv-x="832" 
d="M209 691q-56 0 -97.5 -28t-67 -70.5t-32.5 -91.5t6 -91.5t47.5 -70.5t92.5 -28q48 0 83.5 21t59.5 55t35.5 76.5t11.5 84.5q0 67 -37 106q32 -2 68.5 -3.5t70 -1t59 3t34.5 7.5l-381 -674h67l406 717h-60q-10 -11 -45 -18.5t-79 -10.5t-90.5 -2.5t-80.5 4.5
q-30 15 -71 15zM223 629q28 0 42 -19t17 -47.5t-4 -62t-21.5 -62t-35.5 -47.5t-45 -19q-29 0 -43 19t-16 47.5t6.5 62t23.5 62t35 47.5t41 19zM645 369q-55 0 -96.5 -28t-66.5 -70.5t-32.5 -91.5t5.5 -91.5t47.5 -70.5t92.5 -28q48 0 83.5 21t59.5 54.5t35.5 76t11.5 84.5
q0 68 -35.5 106t-104.5 38zM660 307q28 0 42 -19t17 -48t-4 -62t-21.5 -62t-35.5 -48t-46 -19q-29 0 -42.5 19t-15 48t6.5 62t23 62t35 48t41 19z" />
    <glyph glyph-name="ampersand" unicode="&#x26;" horiz-adv-x="759" 
d="M534 159q39 45 63 98.5t50 105.5q8 16 17.5 20.5t26.5 6.5v13h-173v-13q10 0 21.5 -3t13.5 -14q3 -12 -4.5 -33.5t-19 -45t-24 -44l-19.5 -31.5l-68.5 87l-67.5 88q28 12 54.5 27.5t47 35.5t33 46.5t12.5 59.5q0 45 -28 76t-70.5 46t-92 14t-92 -19t-70.5 -53t-28 -88
q0 -47 19.5 -83.5t48.5 -71.5q-34 -15 -65.5 -35t-57.5 -47q-26 -28 -38.5 -61.5t-12 -68.5t14 -68.5t40.5 -60.5q32 -32 74 -44t86 -12q63 0 114.5 18t99.5 59q13 -13 23.5 -26t22 -23t26 -16.5t35.5 -6.5q97 -1 166 69l-15 12q-13 -23 -36 -23q-38 21 -68.5 49t-58.5 60z
M308 444q-20 23 -40 49q-13 17 -21.5 36.5t-8.5 41.5q0 32 19 48.5t50 16.5q28 0 49 -19t28.5 -46t-0.5 -56t-37 -49q-16 -12 -39 -22zM224 332l83.5 -108.5l86.5 -106.5q-41 -34 -79.5 -40.5t-70.5 5t-55 37t-34 56.5t-7 63t27 56q11 11 23 20.5t26 17.5z" />
    <glyph glyph-name="quotesingle" unicode="'" horiz-adv-x="180" 
d="M110 425q10 57 16.5 114.5t6.5 115.5q0 9 -7 16.5t-16.5 12t-20 7t-17.5 2.5t-17.5 -2.5t-20 -7t-16.5 -12t-7 -16.5q-1 -58 6 -115.5t17 -114.5h76z" />
    <glyph glyph-name="parenleft" unicode="(" horiz-adv-x="331" 
d="M284 -142q-50 42 -83.5 109.5t-50.5 147.5t-17 166q0 87 17 167t50.5 147.5t83.5 109.5l-58 14q-49 -35 -85.5 -81t-65.5 -98q-32 -59 -48.5 -125t-16.5 -134t16.5 -134.5t48.5 -124.5q29 -52 66 -97.5t85 -80.5z" />
    <glyph glyph-name="parenright" unicode=")" horiz-adv-x="330" 
d="M11 705q50 -42 83.5 -109.5t50 -147.5t16.5 -167q0 -86 -16.5 -166t-50 -147.5t-83.5 -109.5l58 -14q48 34 85 80t65 98q32 59 48 125t16 133q0 68 -16 134.5t-48 125.5q-28 52 -65 98t-85 81z" />
    <glyph glyph-name="asterisk" unicode="*" horiz-adv-x="434" 
d="M177 444q0 -18 -4 -36t-9 -36l-10 -35.5t-7 -35.5q24 -27 52 -27t52 27q-2 18 -7 36l-10 35.5t-9 35t-4 36.5q16 -9 30 -21.5t26.5 -26l25.5 -26.5t28 -24q72 18 52 92q-17 7 -35 11t-36 8.5t-35 10t-33 15.5q32 19 68.5 25t70.5 20q10 35 -3 59t-49 33q-15 -11 -28 -24
l-25.5 -26.5t-26.5 -26t-30 -21.5q0 19 4 36.5t9 35l10 35.5t7 36q-24 27 -52 27t-52 -27q2 -18 7 -35.5l10 -35.5t9 -36t4 -36q-33 19 -56.5 47.5t-53.5 50.5q-36 -9 -49 -33t-3 -59q17 -7 35 -11t36 -8.5t35 -10t33 -15.5q-16 -10 -33.5 -15.5t-35.5 -9.5t-35.5 -8.5
t-34.5 -11.5q-20 -74 52 -92q30 22 53.5 50.5t56.5 47.5z" />
    <glyph glyph-name="plus" unicode="+" horiz-adv-x="562" 
d="M216 302h-205v-94h205v-207h94v207h205v94h-205v204h-94v-204z" />
    <glyph glyph-name="comma" unicode="," horiz-adv-x="245" 
d="M117 145q-32 0 -54 -22t-22 -54q0 -22 13.5 -35.5t27.5 -31.5q1 -2 3 -2q3 0 5 -0.5t3 -2.5t0 -8q-4 -18 -17 -39t-27.5 -39.5t-26 -30.5l-11.5 -12l60 -12q15 8 32.5 27.5t33.5 45t29 53.5t19 53q5 8 6.5 16.5t1.5 17.5q0 32 -22 54t-54 22z" />
    <glyph glyph-name="hyphen" unicode="-" horiz-adv-x="311" 
d="M11 344v-88h253v88h-253z" />
    <glyph glyph-name="period" unicode="." horiz-adv-x="210" 
d="M87 145q-32 0 -54 -22t-22 -54t22 -53.5t54 -21.5t54 21.5t22 53.5t-22 54t-54 22z" />
    <glyph glyph-name="slash" unicode="/" horiz-adv-x="385" 
d="M11 -15h93l234 713h-94z" />
    <glyph glyph-name="zero" unicode="0" horiz-adv-x="530" 
d="M483 341q0 37 -4.5 77.5t-15.5 80t-29 75.5t-44 63t-61.5 43t-81.5 16t-81.5 -16t-61.5 -43t-44 -63t-29 -75.5t-15.5 -80t-4.5 -77.5q0 -56 11 -118t38 -114.5t72.5 -86.5t114.5 -34q46 0 81 16t61.5 43t44.5 62t28.5 74.5t15.5 80t5 77.5zM337 331q0 -16 0.5 -43
t-1 -58t-6.5 -63.5t-15 -58.5t-26.5 -42.5t-41.5 -16.5q-26 0 -43 18t-27 46t-14.5 62.5t-5.5 68t-0.5 62.5t0.5 45t-0.5 43t1 58.5t6.5 63.5t15 58.5t26.5 43t41.5 16.5q26 0 43 -18t27 -46t14.5 -63t5.5 -68.5t0.5 -62.5t-0.5 -45z" />
    <glyph glyph-name="one" unicode="1" horiz-adv-x="409" 
d="M362 12q-11 0 -21.5 0.5t-18.5 3.5t-13 10.5t-5 21.5v643h-67l-8.5 -9t-22 -21.5t-29.5 -26t-31 -22.5q-18 -11 -41.5 -20.5t-44 -16.5t-35 -10.5l-14.5 -3.5l3 -14l114 10q17 0 25.5 -4t8.5 -24v-480q0 -15 -6 -22.5t-15 -10.5t-20 -3.5t-22 -0.5v-12h263v12z" />
    <glyph glyph-name="two" unicode="2" horiz-adv-x="524" 
d="M11 0h440l26 160h-12q-8 -26 -23.5 -34t-42.5 -8h-230l140 136q26 25 50 53t43 59.5t30 66t11 72.5q0 59 -25 100t-64.5 63t-88 26.5t-95 -9t-85.5 -45t-60 -79.5l9 -13q13 27 39 42t56 19t62 -3.5t58 -24.5t42.5 -44.5t16.5 -63.5q0 -35 -12 -67t-32 -61
q-52 -78 -118 -147t-135 -132v-66z" />
    <glyph glyph-name="three" unicode="3" horiz-adv-x="508" 
d="M37 575q12 16 39.5 31.5t60.5 23t65 2.5t53 -29q16 -19 27.5 -42.5t14.5 -48t-3.5 -48t-26 -41t-54 -27.5t-86.5 -8l1 -29q35 1 72 -11.5t67.5 -36.5t50 -58t19.5 -75q0 -24 -5.5 -42.5t-19.5 -39.5q-18 -28 -39.5 -43.5t-54.5 -19.5q-21 -2 -37 6t-30.5 20.5t-28 25.5
t-29.5 20q-17 7 -32 5t-25.5 -11.5t-17 -24t-7.5 -30.5q8 -18 28.5 -29t45 -17t49.5 -8t42 -2q80 0 138 26t93.5 65.5t48 88t3 93.5t-41.5 81t-86 52q51 20 79 55.5t28 92.5q0 50 -24 83t-62 50.5t-84.5 20t-92 -8t-84 -34t-60.5 -58.5z" />
    <glyph glyph-name="four" unicode="4" horiz-adv-x="551" 
d="M304 691l-148 -216l-145 -219v-110h279v-146h133v146h81v105h-81v440h-119zM290 556v-305h-202z" />
    <glyph glyph-name="five" unicode="5" horiz-adv-x="492" 
d="M439 684h-347l-58 -347q27 9 56 9q80 0 132 -22t80.5 -56t34.5 -73.5t-7.5 -74t-43.5 -57t-74 -22.5q-16 0 -31.5 9.5t-31.5 22t-31 25.5t-29 19q-15 7 -29.5 3t-25.5 -15t-17.5 -27t-5.5 -32q1 -17 20.5 -28t44.5 -17.5t50 -9.5t36 -3q55 0 108 15t96 51q41 35 60 78.5
t19 97.5q0 97 -53.5 153.5t-146.5 73.5q-19 4 -40 6.5t-40 1.5q-7 0 -13.5 -1l-13.5 -2l15 109l270 1l22 115z" />
    <glyph glyph-name="six" unicode="6" horiz-adv-x="520" 
d="M452 685q-33 13 -69 12q-83 -2 -151.5 -32.5t-117.5 -82.5t-76 -122.5t-27 -152.5q0 -60 11 -117t38 -102t72.5 -72.5t115.5 -27.5q51 0 92.5 17.5t71 48.5t45.5 73.5t16 92.5q0 47 -12 86.5t-36 68t-60.5 44.5t-85.5 16q-29 0 -62.5 -10t-54.5 -30q7 33 17.5 65.5
t27.5 61.5q13 23 33 49t44 48.5t51 37.5t54 16q13 0 31 1t30 -4zM152 294q6 29 29.5 49t52.5 20q33 0 52.5 -18.5t29.5 -46t12.5 -58.5t2.5 -55q0 -20 -3 -43.5t-11.5 -44t-24 -34.5t-41.5 -14t-43.5 12.5t-28.5 32.5t-16.5 45.5t-8 52t-2.5 50.5v42v10z" />
    <glyph glyph-name="seven" unicode="7" horiz-adv-x="516" 
d="M469 684h-431l-27 -166l14 -1q7 21 19 34t36 13h255l-226 -564h121l239 628v56z" />
    <glyph glyph-name="eight" unicode="8" horiz-adv-x="518" 
d="M208 306q47 -21 86 -58q25 -23 35 -56.5t3.5 -64.5t-29 -53t-62.5 -22q-31 0 -52.5 14t-33.5 36t-15 50t3.5 56.5t23 54t41.5 43.5zM268 415q-23 10 -44.5 23.5t-38.5 31.5q-23 23 -30.5 51.5t-0.5 53.5t28.5 42t57.5 17q44 0 66 -26.5t24.5 -62.5t-13.5 -72.5t-49 -57.5
zM150 341q-61 -23 -100 -64t-39 -110q0 -48 19 -81.5t50.5 -55.5t72 -32t82.5 -10q69 0 118.5 21.5t78.5 56.5t37.5 79t-4.5 88.5t-47.5 85t-91.5 68.5q49 17 79.5 46.5t42 63.5t4.5 69.5t-32.5 64.5t-69 47t-104.5 18q-43 0 -83 -10t-71.5 -31.5t-50.5 -55.5t-19 -82
q0 -32 10.5 -57.5t28 -47t40.5 -39t49 -32.5z" />
    <glyph glyph-name="nine" unicode="9" horiz-adv-x="518" 
d="M32 0q33 -14 69 -12q83 2 151.5 32.5t117.5 82.5t76 122.5t27 152.5q0 60 -11 117t-38 102t-72.5 72.5t-115.5 27.5q-51 0 -92.5 -17.5t-71 -48.5t-45.5 -73.5t-16 -92.5q0 -47 11.5 -86.5t35.5 -68t60.5 -44.5t86.5 -16q29 0 62.5 10t54.5 30q-7 -33 -17.5 -65.5
t-27.5 -61.5q-14 -23 -34 -49t-44 -48.5t-50.5 -37.5t-53.5 -16q-13 0 -31 -1t-30 4zM332 391q-6 -29 -29.5 -49t-52.5 -20q-33 0 -52.5 18.5t-29.5 46t-12.5 58.5t-2.5 55q0 19 3 43t11.5 44.5t24 34.5t41.5 14t43.5 -12.5t28.5 -32.5t16.5 -45.5t8 -52t2.5 -50.5v-42v-10z
" />
    <glyph glyph-name="colon" unicode=":" horiz-adv-x="210" 
d="M105 490q-32 0 -54 -22t-22 -54t22 -54t54 -22q16 0 30.5 6t25 16.5t16 24.5t4.5 29q-3 32 -23.5 54t-52.5 22zM105 150q-32 0 -54 -22t-22 -54t22 -54t54 -22q16 0 30.5 6t25 16.5t16 24.5t4.5 29q-3 32 -23.5 54t-52.5 22z" />
    <glyph glyph-name="semicolon" unicode=";" horiz-adv-x="245" 
d="M115 490q-32 0 -54 -22t-22 -54t22 -54t54 -22q16 0 30.5 6t25 16.5t16 24.5t4.5 29q-3 32 -23.5 54t-52.5 22zM117 145q-32 0 -54 -22t-22 -54q0 -19 8.5 -32.5t18.5 -22.5t18 -15t7 -10q-4 -18 -17 -39t-27.5 -39.5t-26 -30.5l-11.5 -12l60 -12q15 8 32.5 27.5t33.5 45
t29 53.5t19 53q5 8 6.5 16.5t1.5 17.5q0 32 -22 54t-54 22z" />
    <glyph glyph-name="less" unicode="&#x3c;" horiz-adv-x="567" 
d="M131 253l389 170v93l-509 -220v-86l509 -219v92z" />
    <glyph glyph-name="equal" unicode="=" horiz-adv-x="562" 
d="M11 312h504v94h-504v-94zM11 100h504v94h-504v-94z" />
    <glyph glyph-name="greater" unicode="&#x3e;" horiz-adv-x="567" 
d="M11 83v-92l509 219v86l-509 220v-93l389 -170z" />
    <glyph glyph-name="question" unicode="?" horiz-adv-x="460" 
d="M234 214q1 16 2 29t4.5 24t10.5 22t19 23l47 45t46.5 49.5t35.5 55.5t14 63q0 70 -53 121q-20 19 -50.5 31t-65 16.5t-71 1t-68.5 -14.5t-57 -30.5t-37 -46.5l19 -8q21 37 61 50t80 3t69.5 -42.5t29.5 -86.5q0 -41 -17.5 -74t-38.5 -64.5t-38 -64.5t-15 -74l1 -28h72z
M197 145q-32 0 -54 -22t-22 -54t22 -53.5t54 -21.5t54 21.5t22 53.5t-22 54t-54 22z" />
    <glyph glyph-name="at" unicode="@" horiz-adv-x="777" 
d="M436 93q10 -39 35.5 -54t58 -10.5t68 26.5t65 57.5t48.5 83t19 102.5q0 62 -26 112t-71 90q-54 48 -122 69.5t-138 18t-136 -31t-117 -77.5q-60 -59 -86.5 -126.5t-23.5 -135t31.5 -129.5t79.5 -109.5t120.5 -76t153.5 -28.5l1 62q-57 0 -109 22t-92 60
q-43 42 -64.5 96.5t-21.5 112.5t21 113.5t62 97.5q81 86 197 86q47 0 97 -14.5t91 -42.5t67.5 -69.5t26.5 -95.5q0 -38 -10 -76t-32 -71q-7 -10 -18.5 -24t-25.5 -24.5t-29 -13t-28 9.5q-4 5 -7.5 12.5t-1.5 12.5l65 272h-78l-10 -45q-10 30 -35 47.5t-56 17.5
q-48 0 -84 -21.5t-63 -59.5q-19 -26 -34.5 -61.5t-21 -73t1.5 -73.5t33 -63q16 -17 36 -27.5t44 -10.5q33 0 66 18.5t53 44.5zM415 350q27 0 40 -18.5t14.5 -45.5t-7 -59.5t-24.5 -59.5t-38.5 -45.5t-48.5 -18.5q-28 0 -42.5 18.5t-17 45.5t5.5 59.5t24.5 59.5t40.5 45.5
t53 18.5z" />
    <glyph glyph-name="A" unicode="A" horiz-adv-x="754" 
d="M427 254h-201l99 267zM707 13q-17 0 -27.5 12.5t-16.5 26.5l-261 640h-91l-254 -636q-7 -17 -17 -28.5t-29 -14.5v-13h181v13q-12 0 -22 1.5t-15.5 6t-6.5 13t4 22.5l48 126h253l49 -128q6 -14 4.5 -22.5t-7.5 -12.5t-15.5 -5t-21.5 -1v-13h245v13z" />
    <glyph glyph-name="B" unicode="B" horiz-adv-x="615" 
d="M209 326h42q34 0 63.5 -6t51.5 -21t34 -40t12 -64q0 -67 -36 -97t-101 -30q-21 0 -38 5.5t-28 25.5v227zM11 0h287q47 0 95 9t87 31t63.5 59.5t24.5 93.5q0 37 -15 66t-39.5 50t-56.5 34t-65 19q31 7 58 19t46.5 30.5t31 44t11.5 60.5q0 51 -23 84t-58.5 51.5t-79 25.5
t-85.5 7h-282v-13q25 1 37.5 -5.5t12.5 -35.5v-575q0 -29 -12.5 -35t-37.5 -7v-13zM209 392v200q9 17 28 20.5t36 3.5q57 0 86 -26.5t29 -84.5q0 -35 -10 -57t-28 -34.5t-44 -17t-57 -4.5h-40z" />
    <glyph glyph-name="C" unicode="C" horiz-adv-x="657" 
d="M605 99q-41 -38 -95.5 -53t-118.5 -4q-54 9 -94.5 37.5t-68.5 69.5t-42 91.5t-14 103.5q0 51 10.5 101.5t35 91t65 65.5t100.5 25q66 0 121 -34.5t81 -94.5q14 4 14.5 4.5l0.5 0.5l-1 180h-15q-2 -10 -8 -16.5t-17 -7.5q-2 0 -12.5 3l-23 6.5t-23.5 7l-14 4.5
q-56 18 -113 18q-81 0 -148 -26t-114.5 -73.5t-73.5 -114.5t-26 -148q0 -84 26.5 -149t75 -110t116 -68.5t149.5 -23.5q69 0 125 21.5t107 67.5z" />
    <glyph glyph-name="D" unicode="D" horiz-adv-x="704" 
d="M208 594q12 15 32.5 17.5t37.5 2.5q57 0 99 -23.5t69 -61.5t40 -87t13 -100q0 -55 -12 -104.5t-39 -86.5t-70 -58.5t-104 -21.5q-20 0 -37.5 4.5t-28.5 23.5v495zM11 671q23 2 35 -7t12 -34v-575q0 -27 -11 -34.5t-35 -7.5v-13h262q84 0 154.5 20.5t121.5 63.5t79 108.5
t28 154.5q0 88 -29 151.5t-80.5 105t-121.5 61t-152 19.5h-263v-13z" />
    <glyph glyph-name="E" unicode="E" horiz-adv-x="593" 
d="M523 0l23 163h-15q-20 -50 -54 -72t-88 -22h-133q-18 0 -32 3.5t-14 25.5v220h133q44 0 61 -19t21 -61h14v226h-14q-5 -42 -22 -59.5t-60 -17.5h-133v201q0 20 8 23.5t26 3.5h146q51 0 78.5 -17.5t35.5 -69.5h14l-1 156h-506v-13q25 0 37 -6.5t12 -34.5v-575
q0 -15 -3 -23t-9 -12t-15 -5t-22 -2v-13h512z" />
    <glyph glyph-name="F" unicode="F" horiz-adv-x="549" 
d="M269 13q-13 0 -24 0.5t-18.5 4t-12 12t-4.5 24.5v263h119q44 0 62 -18.5t22 -61.5h14v226h-14q-5 -42 -23 -59.5t-61 -17.5h-119v202q0 20 8 23.5t26 3.5h130q51 0 78.5 -17.5t35.5 -69.5h14l-1 156h-490v-13q25 0 37 -6.5t12 -34.5v-575q0 -15 -2.5 -23t-8.5 -12
t-15.5 -5t-22.5 -2v-13h258v13z" />
    <glyph glyph-name="G" unicode="G" horiz-adv-x="731" 
d="M437 328h22q12 0 19 -1t10.5 -5t4.5 -12t1 -22v-193q0 -13 -13 -21t-30 -12t-34 -5.5t-25 -1.5q-50 0 -90.5 18.5t-71.5 57.5q-34 43 -46.5 96.5t-12.5 107.5t11.5 106.5t37.5 94t69 66.5t106 25q33 0 65.5 -8t61 -24t51.5 -39.5t36 -54.5l13 -1l-1 183h-14
q-4 -8 -9.5 -15t-15.5 -9l-81 23q-29 8 -58.5 12t-59.5 4q-81 0 -149.5 -25t-118 -71.5t-77 -113t-27.5 -148.5q0 -87 27 -153.5t76 -111t118.5 -67.5t153.5 -23q27 0 61 3t68.5 9.5t66.5 16.5t56 23v253q0 25 11.5 33t34.5 8v13h-247v-16z" />
    <glyph glyph-name="H" unicode="H" horiz-adv-x="715" 
d="M11 671q26 -1 36.5 -7t10.5 -34v-575q0 -29 -10 -34.5t-36 -7.5v-13h247v13q-14 0 -23.5 1t-15.5 4.5t-9 12t-3 23.5v261h260v-260q0 -15 -2.5 -23t-8.5 -12t-15.5 -5t-22.5 -2v-13h249v13q-13 0 -22.5 1t-15.5 5t-9 12t-3 23v575q0 15 2.5 23t8.5 12t15.5 5t22.5 2v13
h-249v-13q13 0 22.5 -1t15.5 -5t9 -12t3 -23v-239h-260v238q0 15 3 23t9 12t15.5 5t22.5 2v13h-247v-13z" />
    <glyph glyph-name="I" unicode="I" horiz-adv-x="314" 
d="M267 13q-13 0 -23 1t-16.5 4.5t-10 12t-3.5 23.5v575q0 15 3 23t9.5 12t16.5 5t23 2v13h-255v-13q13 0 23 -1t16.5 -4.5t10 -12t3.5 -23.5v-575q0 -15 -3 -23t-9.5 -12t-16.5 -5t-23 -2v-13h255v13z" />
    <glyph glyph-name="J" unicode="J" horiz-adv-x="447" 
d="M135 671q13 0 23 -0.5t17 -4.5t11 -12t4 -24v-507q0 -34 -12 -56.5t-30.5 -35.5t-40 -18.5t-41 -5t-33.5 5.5t-17 12q-1 0 -5 -1l-8 -2t-2 -1q1 -18 17 -31.5t37.5 -21.5t43.5 -12t36 -4q101 0 153 53t52 154v470q0 15 3 23t9 12t15.5 5t22.5 2v13h-255v-13z" />
    <glyph glyph-name="K" unicode="K" horiz-adv-x="726" 
d="M260 13q-25 0 -37 6.5t-12 34.5v231l15 14l16.5 -18.5l40.5 -47l53 -62.5l53 -64.5l40.5 -53t16.5 -28.5q0 -5 -5 -7.5t-11 -3.5t-13 -1h-9v-13h271v13q-22 2 -35 16l-307 355l205 228q23 26 48.5 42t61.5 17v13h-239v-13q6 0 14 -0.5t15 -3t11 -8t1 -14.5
q-21 -32 -51.5 -68l-64 -72.5l-67 -71l-60.5 -63.5v259q0 29 11 34.5t37 7.5v13h-248v-13q13 0 22.5 -1t15.5 -5t9 -12t3 -23v-575q0 -15 -2.5 -23t-8.5 -12t-15.5 -5t-22.5 -2v-13h248v13z" />
    <glyph glyph-name="L" unicode="L" horiz-adv-x="588" 
d="M525 172q-12 -29 -24 -48.5t-27.5 -31.5t-37.5 -17.5t-55 -5.5h-126q-18 0 -32 3.5t-14 25.5v531q0 16 3.5 24t10.5 11.5t17 4.5t24 2v13h-253v-13q25 -1 36.5 -7t11.5 -34v-575q0 -29 -11 -34.5t-37 -7.5v-13h506l24 172h-16z" />
    <glyph glyph-name="M" unicode="M" horiz-adv-x="912" 
d="M627 684l-186 -496l-190 496h-239v-13q13 0 22.5 -1t15.5 -5t9 -12t3 -23v-566q0 -17 -2 -26.5t-7.5 -14t-15.5 -6.5t-26 -4v-13h193v13q-31 -1 -43 8.5t-12 41.5v517l224 -580h76l224 588v-533q0 -15 -3 -23t-9 -11.5t-15.5 -5t-22.5 -2.5v-13h242v13q-24 1 -36 7.5
t-12 33.5v575q0 29 11.5 34.5t36.5 7.5v13h-238z" />
    <glyph glyph-name="N" unicode="N" horiz-adv-x="701" 
d="M522 210l-157 237l-157 237h-195v-13q22 1 35 -15t13 -37v-551q0 -17 -2 -27t-7.5 -16t-15 -8.5t-25.5 -3.5v-12h190v12q-16 0 -26.5 2t-16.5 8t-8 16.5t-2 27.5v455l362 -525q1 -2 5 -6h94v630q0 15 2 24t7 14.5t13.5 8t22.5 3.5v13h-183v-13q27 1 39 -9.5t12 -39.5
v-412z" />
    <glyph glyph-name="O" unicode="O" horiz-adv-x="749" 
d="M542 341q0 -44 -8 -94.5t-29 -93.5t-57 -71t-91 -28q-56 0 -92 28t-57 71t-29 93t-8 95q0 44 8 94.5t29 93t57 71t92 28.5q55 0 91 -28.5t57 -71t29 -93t8 -94.5zM702 341q0 78 -24 144t-68.5 113t-108.5 73.5t-144 26.5q-81 0 -145 -26t-109 -73.5t-68.5 -113
t-23.5 -144.5q0 -78 24 -143.5t69 -113t109 -73.5t144 -26q79 0 143 26.5t109 74t69 112.5t24 143z" />
    <glyph glyph-name="P" unicode="P" horiz-adv-x="589" 
d="M208 353v243q8 12 23 15t28 3q63 0 94.5 -33t31.5 -96q0 -72 -34.5 -102t-104.5 -30h-38zM208 283h74q49 0 96 11t83.5 35t58.5 63t22 95q0 59 -24 97.5t-63 60.5t-88 30.5t-98 8.5h-258v-13q24 2 35.5 -6.5t11.5 -34.5v-575q0 -28 -10.5 -34.5t-35.5 -7.5v-13h246v13
q-25 -1 -37.5 5.5t-12.5 35.5v229z" />
    <glyph glyph-name="Q" unicode="Q" horiz-adv-x="749" 
d="M542 341q0 -44 -8 -94.5t-29 -93.5t-57 -71t-91 -28q-56 0 -92 28t-57 71t-29 93t-8 95q0 44 8 94.5t29 93t57 71t92 28.5q55 0 91 -28.5t57 -71t29 -93t8 -94.5zM662 -133q-1 1 -16 10.5l-39.5 26l-49 34.5t-45 36t-27.5 30q112 44 164.5 131.5t52.5 205.5q0 78 -24 144
t-68.5 113t-108.5 73.5t-144 26.5q-81 0 -145 -26t-108.5 -73.5t-68.5 -113t-24 -144.5q0 -72 19.5 -133t57.5 -107t94 -75.5t129 -38.5q27 -45 74 -73t98.5 -43.5t99.5 -21t75 -5.5z" />
    <glyph glyph-name="R" unicode="R" horiz-adv-x="674" 
d="M210 301l41 1q69 -64 115 -139t79 -163h182v13q-14 0 -28.5 17.5t-30.5 46l-35 64t-41 71.5t-48.5 68.5t-58.5 54.5q33 7 64.5 21t55.5 35t38.5 49t14.5 64q0 57 -25 92.5t-64 55t-87 26t-94 6.5h-277v-13q23 1 36 -6.5t13 -34.5v-575q0 -29 -12 -35t-37 -7v-13h248v13
q-24 0 -36.5 6.5t-12.5 34.5v247zM210 370v219q10 19 26.5 22.5t36.5 3.5q60 0 94.5 -28.5t34.5 -91.5q0 -40 -12 -64.5t-33.5 -38t-51 -18t-64.5 -4.5h-31z" />
    <glyph glyph-name="S" unicode="S" horiz-adv-x="522" 
d="M30 -3q2 15 16 18q2 0 12.5 -2t23.5 -5l24 -5.5t14 -3.5q35 -9 73 -12.5t75 0.5t72 16.5t65 36.5q36 29 53 66t17 83q0 59 -25 99t-62 67t-80.5 46t-80.5 37.5t-62 40.5t-25 55q0 36 18.5 58t47.5 30.5t63 5t65.5 -18t55 -39t30.5 -57.5h12l7 174h-16q-1 -17 -19 -19
q-1 0 -10.5 2.5l-21 5.5l-22 5.5t-12.5 3.5q-22 6 -44 9.5t-45 3.5q-48 0 -90.5 -12t-75 -36.5t-51 -62.5t-18.5 -90q0 -59 24.5 -97t60.5 -63.5t79 -43.5t79 -36.5t60.5 -42.5t24.5 -61q0 -34 -20 -56.5t-50.5 -33.5t-67.5 -9.5t-71.5 17t-61.5 45t-38 73.5h-12l-7 -192h16
z" />
    <glyph glyph-name="T" unicode="T" horiz-adv-x="629" 
d="M426 13q-13 0 -23 1t-17 4.5t-10.5 12t-3.5 23.5v560q34 0 66 2t58.5 -4.5t45 -26t24.5 -61.5h16l-2 160h-567l-2 -160h16q6 42 24.5 61.5t45.5 26t59.5 4.5t65.5 -2v-559q0 -15 -3.5 -23.5t-10.5 -12t-17 -4.5t-23 -2v-13h258v13z" />
    <glyph glyph-name="U" unicode="U" horiz-adv-x="696" 
d="M460 671q35 1 44.5 -11t9.5 -48v-352q0 -41 -8 -77t-27 -63t-50.5 -42.5t-77.5 -15.5q-43 0 -71.5 15t-45 40.5t-23 59t-6.5 71.5v381q0 29 14 35t39 7v13h-247v-13q23 2 34.5 -6.5t11.5 -34.5v-399q0 -66 21 -112.5t58 -76t88.5 -43.5t112.5 -14q134 0 201 68t67 202
v356q0 31 6 44.5t38 15.5v13h-189v-13z" />
    <glyph glyph-name="V" unicode="V" horiz-adv-x="730" 
d="M499 671q12 -1 22 -3t16 -6.5t8 -13.5t-3 -23l-157 -449l-166 455q-5 15 -3.5 23t8 11.5t16.5 4.5t22 1v13h-251v-13q20 -3 29 -10t17 -27l250 -641h95l234 640q8 20 17 28t30 10v13h-184v-13z" />
    <glyph glyph-name="W" unicode="W" horiz-adv-x="1026" 
d="M811 671q25 0 34 -10t2 -35l-121 -443l-122 452q-3 13 -1.5 20t6.5 10t13.5 4t19.5 2v13h-225v-13q14 0 24 -4t17 -17q-3 -14 -5.5 -28.5t-6.5 -28.5l-115 -415l-124 450q-7 23 -1.5 33t32.5 10v13h-227v-13q20 -2 28 -11t13 -27l197 -640h99l153 507l148 -507h99
l192 645q5 14 14.5 23t24.5 10v13h-168v-13z" />
    <glyph glyph-name="X" unicode="X" horiz-adv-x="732" 
d="M461 671q59 0 27 -50l-118 -183l-118 193q-8 13 -8.5 21t5 12.5t16 5.5t22.5 1v13h-265v-13q14 0 22 -3.5t13.5 -9t9.5 -12.5l9 -15l195 -299l-196 -279q-14 -20 -27 -29t-37 -11v-13h212v13q-22 1 -32.5 5.5t-12 12.5t4.5 19t15 26l128 197l126 -210q6 -10 10 -19t2 -21
q-5 -8 -19.5 -9t-22.5 -1v-13h263v13q-20 0 -31 12t-21 27l-208 326l158 235q18 26 36 41t51 17v13h-209v-13z" />
    <glyph glyph-name="Y" unicode="Y" horiz-adv-x="730" 
d="M490 671q30 -2 41.5 -13t-6.5 -41l-146 -251l-149 269q-8 14 -6.5 21.5t8 10.5t16.5 3.5t21 0.5v13h-258v-13q14 -1 25.5 -9.5t19.5 -20.5l218 -369v-217q0 -15 -3.5 -23.5t-10 -12t-16.5 -4.5t-23 -2v-13h255v13q-13 0 -23 1t-16.5 4.5t-9.5 12t-3 23.5v236l208 342
q11 18 20 27t31 12v13h-193v-13z" />
    <glyph glyph-name="Z" unicode="Z" horiz-adv-x="614" 
d="M552 179q-9 -33 -21.5 -54t-30.5 -33t-43 -16.5t-58 -4.5h-216l365 552v61h-504l-12 -162h16q8 29 19 47t26.5 27.5t36.5 13t50 3.5l196 1l-365 -551v-63h541l15 179h-15z" />
    <glyph glyph-name="bracketleft" unicode="[" horiz-adv-x="289" 
d="M242 -94q-13 0 -33 -1.5t-39 0.5t-32.5 9.5t-13.5 26.5v681q0 19 13.5 26.5t32.5 9.5t39 0.5t33 -1.5v62h-231v-875h231v62z" />
    <glyph glyph-name="backslash" unicode="\" horiz-adv-x="387" 
d="M244 -15h96l-234 713h-95z" />
    <glyph glyph-name="bracketright" unicode="]" horiz-adv-x="287" 
d="M11 657q12 0 31.5 1.5t38.5 -0.5t32.5 -9.5t13.5 -26.5v-681q0 -19 -13.5 -26.5t-32.5 -9.5t-38.5 -0.5t-31.5 1.5v-62h229v875h-229v-62z" />
    <glyph glyph-name="asciicircum" unicode="^" horiz-adv-x="505" 
d="M106 312l129 272l128 -272h95l-180 372h-86l-181 -372h95z" />
    <glyph glyph-name="underscore" unicode="_" horiz-adv-x="520" 
d="M491 -224v50h-500v-50h500z" />
    <glyph glyph-name="grave" unicode="`" horiz-adv-x="284" 
d="M237 551l-28 36l-40 51.5l-40 48.5t-29 28q-21 2 -35 0t-34 -13q-3 -2 -8 -5t-8.5 -7t-4 -9t5.5 -9l150 -121h71z" />
    <glyph glyph-name="a" unicode="a" 
d="M307 244v-85q0 -17 -8.5 -33t-20.5 -28q-27 -28 -66 -28q-31 0 -50 20.5t-19 46.5q0 27 22.5 53.5t75.5 38.5zM311 69q1 -11 3 -24.5t7 -24.5t13.5 -18.5t23.5 -7.5q30 0 59.5 8.5t56.5 21.5l-7 12l-14 -9q-6 0 -9.5 12.5t-5 28.5t-1.5 31v19v200q0 49 -15 83t-42 55
t-65 30.5t-84 9.5q-31 0 -61.5 -6t-58.5 -20q-14 -8 -28.5 -23t-25.5 -36q-5 -11 -9 -26.5t-5.5 -25t-1.5 -11.5l14 -1q0 1 3.5 7.5t10 16.5t12.5 17q23 24 61 37.5t75 11t63.5 -23.5t26.5 -66v-49l-100 -21q-33 -7 -68 -18t-63.5 -29.5t-46.5 -46.5t-18 -68q0 -54 39 -91
q29 -28 65.5 -35t72.5 1.5t68.5 29.5t54.5 49z" />
    <glyph glyph-name="b" unicode="b" horiz-adv-x="563" 
d="M175 425v284q-41 2 -82 -0.5t-82 -4.5v-6l14 -6q6 0 9 -4t4.5 -9.5t2 -11.5t0.5 -10v-657h65l38 52q58 -64 144 -64q76 0 126.5 37.5t76 94t27 122.5t-20.5 122.5t-67 94t-113 37.5q-45 0 -80 -17t-62 -54zM175 306q0 34 15 60t37 39t48.5 12.5t48.5 -19.5t37 -58.5
t15 -102.5q0 -64 -15 -104.5t-37 -60t-48.5 -21t-48.5 12t-37 40.5t-15 63v139z" />
    <glyph glyph-name="c" unicode="c" horiz-adv-x="462" 
d="M403 80q-20 -22 -50.5 -29.5t-58.5 -7.5q-41 0 -69 22t-45 55t-24.5 72.5t-7.5 74.5q0 28 6 57t19.5 53t36 39t55.5 15q8 0 18 -2t19.5 -5.5t17.5 -9.5t12 -14q14 -38 31 -53.5t29 -11t17 28t-5 64.5q-7 18 -22.5 29.5t-32.5 19.5q-35 16 -71.5 19t-72 -5t-67.5 -26
t-57 -45q-36 -39 -54 -86t-18.5 -95t15.5 -93t46.5 -80.5t75.5 -56.5t102 -21q47 0 92 17.5t75 55.5z" />
    <glyph glyph-name="d" unicode="d" horiz-adv-x="568" 
d="M357 58v-64q40 8 81.5 12.5t82.5 6.5v13q-17 0 -25.5 6t-8.5 24v653q-44 2 -87.5 -0.5t-87.5 -4.5v-6q10 -4 17.5 -5.5t13 -4.5t8 -10t2.5 -21v-227q-54 66 -137 66q-68 0 -113.5 -37.5t-69 -94.5t-24.5 -122.5t21 -122.5t67.5 -94.5t113.5 -37.5q45 0 81 18.5t65 52.5z
M353 174q0 -19 -10.5 -40.5t-22.5 -35.5q-14 -15 -30.5 -24t-36.5 -9q-32 0 -51.5 18.5t-30.5 45.5t-15 57.5t-4 54.5q0 64 15 103.5t37 58t48 18.5q27 0 49 -14t37 -40t15 -59v-134z" />
    <glyph glyph-name="e" unicode="e" horiz-adv-x="496" 
d="M436 79l-13 18q-26 -31 -65 -48.5t-79 -17.5q-36 0 -61 20.5t-41.5 51t-25 66.5t-11.5 67l309 2q-1 52 -12.5 98.5t-36 82t-65 56.5t-98.5 21q-56 0 -98 -20.5t-70.5 -55.5t-43 -81.5t-14.5 -98.5q0 -56 15.5 -102.5t45.5 -79.5t74 -51.5t102 -18.5q56 0 104.5 23
t83.5 68zM140 296q1 23 6 47.5t15.5 44.5t28.5 33t47 13q28 0 44.5 -13.5t25.5 -34t12 -45t4 -45.5h-183z" />
    <glyph glyph-name="f" unicode="f" horiz-adv-x="429" 
d="M254 12q-20 0 -25.5 8t-5.5 28v407h147v29h-147v97q0 13 2.5 27t9 24.5t17 17.5t26.5 7q14 0 31.5 -4t33.5 -16q8 -6 15.5 -16l7.5 -10h17l-3 12.5t-8 22.5q-8 17 -21.5 31t-28.5 23.5t-29.5 15t-25.5 5.5q-59 0 -94 -18.5t-54 -51t-24.5 -75.5t-5.5 -92h-78v-29h78v-406
q0 -21 -7.5 -29t-27.5 -8v-12h200v12z" />
    <glyph glyph-name="g" unicode="g" horiz-adv-x="539" 
d="M240 436q26 0 40.5 -12t22 -31t9.5 -41t2 -43t-1.5 -43.5t-9 -40.5t-22 -29.5t-39.5 -11.5q-26 0 -41.5 12.5t-23 32t-9.5 43t-2 45.5q0 21 2 42t9.5 38t22.5 28t40 11zM353 467q-26 16 -55 22.5t-59 6.5q-53 0 -93 -19t-66.5 -50t-38 -69.5t-5.5 -77.5t29.5 -74.5
t67.5 -59.5q-32 -12 -55 -32.5t-31 -43t4 -45t51 -39.5q-17 -6 -33 -14t-29 -19t-21 -26t-8 -36q0 -35 21 -58t53 -37t71.5 -20.5t76.5 -8.5q56 -3 100 15.5t85 39.5q71 35 71 111q0 46 -15 70t-39 33.5t-55 8.5t-63 -6l-63 -10t-55 -3t-39 14t-15 42q0 19 16 29.5t32 15.5
q12 -3 24.5 -3.5t24.5 -0.5q43 0 79.5 12t63.5 35t42.5 58t15.5 81q0 12 -6.5 30.5t-14 36t-14 30l-6.5 12.5q17 2 35.5 1.5t34.5 -5.5l19 66q-7 3 -26 2.5t-41 -3.5t-42 -6.5t-29 -5.5zM174 -35q26 -5 52.5 -6l52.5 -2q12 0 31.5 -1.5t38 -6.5t32 -14.5t13.5 -27.5
q0 -21 -14 -32t-32 -16q-12 -4 -34.5 -7.5t-49.5 -5t-54.5 -0.5t-50 7t-37 18t-14.5 31q0 10 7 20t17.5 18t22 14.5t19.5 10.5z" />
    <glyph glyph-name="h" unicode="h" horiz-adv-x="558" 
d="M511 12q-18 0 -23 9.5t-5 26.5v275q0 73 -34.5 116t-83.5 54.5t-101.5 -8.5t-88.5 -74v298q-41 2 -82 -0.5t-82 -4.5v-6l14 -6q6 0 9 -4t4.5 -9.5t2 -11.5t0.5 -10v-608q0 -19 -5.5 -28t-24.5 -9v-12h194v12q-19 0 -24.5 8.5t-5.5 27.5q0 64 -0.5 127.5t0.5 127.5
q0 5 3 16t5 16q11 32 35 53.5t60 21.5q21 0 35 -9t22 -23.5t11 -32t3 -35.5v-261q0 -18 -5 -27.5t-24 -9.5v-12h191v12z" />
    <glyph glyph-name="i" unicode="i" horiz-adv-x="239" 
d="M192 12q-13 0 -14 13.5t-1 22.5v437q-42 2 -83 -1t-83 -5v-6l15 -6q12 0 14.5 -13.5t2.5 -21.5v-383q0 -19 -6 -28t-25 -9v-12h180v12zM177 642q0 35 -21.5 52t-50.5 17t-50.5 -20t-21.5 -49t21.5 -49t50.5 -20t50.5 20t21.5 49z" />
    <glyph glyph-name="j" unicode="j" horiz-adv-x="334" 
d="M227 642q0 35 -21.5 52t-50.5 17t-50.5 -20t-21.5 -49t21.5 -49t50.5 -20t50.5 20t21.5 49zM223 -15v500q-42 2 -84.5 -1t-84.5 -5v-6l16 -6q14 0 16.5 -12.5t2.5 -22.5v-490q0 -11 -1.5 -26t-6 -28.5t-13.5 -23t-24 -9.5q-4 0 -7 2.5t-7 5.5q-6 4 -9 10t-5 12t-5 10.5
t-9 4.5t-8.5 -5.5t-3 -14t0 -18t0.5 -17.5q-1 -27 16 -45t43 -24.5t56 0.5t56 31.5t43.5 68t17.5 109.5z" />
    <glyph glyph-name="k" unicode="k" horiz-adv-x="566" 
d="M12 698l14 -6q6 0 9 -4t4.5 -9.5t2 -11.5t0.5 -10v-608q0 -19 -6 -28t-25 -9v-12h180v12q-13 0 -14 13.5t-1 22.5v151l20 21q4 -6 16 -22l27 -37l31.5 -44l30.5 -43t23 -34.5t9 -18.5l-2 -5q-4 -4 -9 -4v-12h197v12q-11 0 -17 6t-12 14l-194 263l124 141q14 15 32.5 24.5
t38.5 11.5v12h-191v-12q9 -1 18 -2.5t14 -10.5q0 -5 -4 -10.5l-7 -9.5l-145 -166v436q-41 2 -82 -0.5t-82 -4.5v-6z" />
    <glyph glyph-name="l" unicode="l" horiz-adv-x="239" 
d="M11 698l15 -6q12 0 14.5 -13.5t2.5 -21.5v-608q0 -19 -6 -28t-25 -9v-12h180v12q-13 0 -14 13.5t-1 22.5v661q-42 2 -83 -0.5t-83 -4.5v-6z" />
    <glyph glyph-name="m" unicode="m" horiz-adv-x="845" 
d="M798 12q-19 0 -24 8.5t-5 27.5v275q0 52 -17.5 88.5t-45 57t-61.5 26.5t-68 -2.5t-64.5 -30.5t-50.5 -57q-14 47 -51.5 69t-84.5 22q-51 0 -88.5 -22.5t-64.5 -64.5v76q-40 2 -80.5 -0.5t-80.5 -4.5v-9l14 -6q11 -1 14 -14t3 -21v-381q0 -20 -6 -28.5t-26 -8.5v-12h194
v12q-18 0 -23 9.5t-5 26.5q0 64 -0.5 127.5t0.5 127.5q0 18 7.5 37t20 34.5t30 25.5t38.5 10t34 -10t19.5 -25t9 -33t2.5 -34v-259q0 -18 -5 -27.5t-24 -9.5v-12h194v12q-19 0 -24 8.5t-5 27.5v255q0 18 7 37t19 34.5t28.5 25.5t36.5 10q22 0 35.5 -9.5t21 -24t10.5 -32.5
t3 -36v-259q0 -19 -5.5 -28t-24.5 -9v-12h193v12z" />
    <glyph glyph-name="n" unicode="n" horiz-adv-x="559" 
d="M513 12q-11 0 -17 5t-8.5 11t-3 12t-0.5 8v275q0 49 -16 84.5t-42.5 57t-60 29t-68 0.5t-67.5 -28t-58 -57v76q-40 2 -80.5 -0.5t-80.5 -4.5v-9l14 -6q5 0 8.5 -4t5.5 -9.5t2.5 -11.5t0.5 -10v-381q0 -19 -5.5 -28t-24.5 -9v-12h188v12q-12 0 -18 14t-6 22v255q0 4 3 15
t5 16q11 33 34.5 54.5t60.5 21.5q21 0 35 -9t22 -23.5t11 -32t3 -35.5v-261q0 -17 -5 -27t-23 -10v-12h194z" />
    <glyph glyph-name="o" unicode="o" horiz-adv-x="551" 
d="M504 241q0 85 -36.5 141.5t-91.5 84.5t-119 28q-63 0 -118 -28t-91.5 -84.5t-36.5 -141.5t36.5 -141t91.5 -84t118 -28q64 0 119 28.5t91.5 84.5t36.5 140zM363 241q0 -26 -3 -59t-13.5 -62t-31 -49t-56.5 -20t-57 19.5t-32 48.5t-14.5 62t-3.5 60q0 26 3 59t13.5 62.5
t31 49.5t56.5 20q35 0 56 -20t32.5 -49.5t15 -62.5t3.5 -59z" />
    <glyph glyph-name="p" unicode="p" horiz-adv-x="566" 
d="M178 53q24 -33 57.5 -49t74.5 -16q52 0 92 23t66 60t39.5 84.5t13 96t-14.5 94.5t-41 81q-29 36 -69 53.5t-81.5 16t-79 -23t-61.5 -62.5v74q-40 2 -80 -0.5t-80 -4.5v-6l14 -6q11 -1 13.5 -14.5t2.5 -20.5v-591q0 -21 -6.5 -29t-26.5 -8v-12h211v12q-20 0 -32 6t-12 31
v211zM178 176v127q0 30 15 55.5t37 40.5t48.5 17t48.5 -15t37 -55.5t15 -104.5q0 -64 -15 -102.5t-37 -56.5t-49 -18q-26 0 -48 14t-37 39.5t-15 58.5z" />
    <glyph glyph-name="q" unicode="q" horiz-adv-x="565" 
d="M351 55v-213q0 -24 -11 -30.5t-31 -6.5v-12h209v12q-20 0 -26 8.5t-6 28.5v648h-67l-42 -63q-27 35 -64 52t-81 17q-73 0 -122 -37.5t-74 -94t-26.5 -122.5t20.5 -122.5t67 -94t113 -37.5q86 0 141 67zM351 173q0 -33 -15 -58t-37 -38t-48 -12.5t-48 20t-37 59t-15 103.5
q0 62 15 102t37 60t48 22t48 -11.5t37 -41t15 -66.5v-139z" />
    <glyph glyph-name="r" unicode="r" horiz-adv-x="417" 
d="M219 12q-20 0 -31 6t-11 30v213q0 19 4 42.5t13.5 43t26 33t41.5 13.5q26 0 45 -19q12 -4 23.5 3.5t20.5 20.5t14 27.5t5 25.5q-1 23 -21.5 34t-40.5 11q-50 0 -84.5 -32t-53.5 -75v96q-39 2 -79 -0.5t-79 -4.5v-6l14 -6q5 0 8.5 -4t5.5 -9.5t2.5 -11.5t0.5 -10v-384
q0 -20 -6 -28.5t-26 -8.5v-12h208v12z" />
    <glyph glyph-name="s" unicode="s" horiz-adv-x="411" 
d="M38 12l70 -16.5t71 -8.5q36 0 69 9.5t59 28.5t41.5 48.5t15.5 68.5q0 44 -17.5 72.5t-44 46.5t-57.5 29.5t-57.5 23.5t-44 26.5t-17.5 38.5q0 29 23.5 43t56 11.5t65.5 -21t51 -54.5l12 6l6 120h-11q-4 -10 -13 -10q-8 0 -17.5 3t-17.5 5q-22 5 -44 9.5t-45 4.5
q-35 0 -67.5 -9t-58 -27.5t-40.5 -46.5t-15 -67q0 -44 17.5 -71t44 -44t57.5 -28t57.5 -22.5t44 -27t17.5 -41.5q0 -25 -14.5 -39.5t-36.5 -20t-48.5 -2.5t-50.5 14.5t-43 30.5t-25 44l-13 -9l-6 -132h13z" />
    <glyph glyph-name="t" unicode="t" horiz-adv-x="391" 
d="M330 75q-10 -13 -26 -22.5t-32 -9.5q-32 0 -42.5 19t-10.5 47v346h106v29h-106v156l-13 1l-61 -2q0 -2 -2 -14t-6.5 -32t-9.5 -34t-14.5 -32t-16 -28.5t-7.5 -12.5l-78 -3v-28h74v-325q0 -45 15 -74.5t39 -46t53.5 -20.5t58 2.5t53.5 22t40 38.5z" />
    <glyph glyph-name="u" unicode="u" horiz-adv-x="556" 
d="M481 484h-170v-12q19 0 27.5 -5.5t8.5 -26.5v-264q0 -21 -9 -40t-24 -34q-23 -22 -47.5 -29t-45.5 1.5t-34.5 31t-13.5 59.5v319h-162v-12q18 0 23 -7t5 -25v-285q0 -50 16.5 -84.5t43.5 -54.5t61 -26.5t69 0.5t67.5 27t55.5 52v-75q7 -1 28 1.5t45.5 6l48 7t35.5 4.5
l-1 12q-17 -1 -22 8t-5 24v427z" />
    <glyph glyph-name="v" unicode="v" horiz-adv-x="557" 
d="M305 -5l171 441q5 13 11.5 24t22.5 12v12h-146v-12q23 0 28 -9t-2 -29l-98 -280l-105 289q-5 12 -1 22q5 5 13.5 5.5t13.5 1.5v12h-202v-12q10 -1 17 -8t12.5 -16.5t9.5 -20l7 -18.5l162 -414h86z" />
    <glyph glyph-name="w" unicode="w" horiz-adv-x="828" 
d="M581 152l-87 295q-2 6 -1.5 8.5t1.5 8.5q4 5 13 6.5t14 1.5v12h-180v-12q11 -1 16.5 -3.5t10.5 -13.5q-2 -9 -4 -19t-5 -19l-86 -267l-96 291q-5 16 0 22.5t20 8.5v12h-186v-12q14 -3 18 -10t9 -20l163 -447h86l118 340l105 -340h88l158 453q4 11 9 16.5t16 7.5v12h-134
v-12q18 -2 24 -9.5t0 -25.5z" />
    <glyph glyph-name="x" unicode="x" horiz-adv-x="562" 
d="M335 270l122 178q8 12 17.5 17t23.5 7v12h-161v-12q13 0 23 -5.5t0 -21.5l-77 -122l-72 117q-4 6 -7 12t-1 14q5 5 12 5.5t13 0.5v12h-210v-12q14 -1 20.5 -8t13.5 -18l138 -212l-133 -190q-8 -11 -20 -21.5t-26 -10.5v-12h161v12q-27 0 -26.5 10.5t11.5 27.5l83 130
l86 -139q17 -29 -18 -29v-12h207v12q-10 2 -15.5 7t-10.5 13z" />
    <glyph glyph-name="y" unicode="y" horiz-adv-x="559" 
d="M365 472q17 0 25.5 -6.5t2.5 -24.5l-98 -291l-109 299q-5 14 7 18.5t22 4.5v12h-204v-12q10 0 17 -5.5t12 -13.5t8 -17.5t6 -17.5l170 -431q-5 -15 -11.5 -42.5t-16.5 -55t-24.5 -47.5t-34.5 -20q-10 0 -19 9q-2 7 -6.5 17.5t-11 19.5t-15 14.5t-19.5 4.5
q-19 -3 -29.5 -18t-9.5 -33q0 -13 11.5 -22t27 -15t31.5 -8.5t25 -2.5q37 0 63.5 12.5t46 34t33.5 49.5t26 59l189 496q5 13 11 22t21 11v12h-147v-12z" />
    <glyph glyph-name="z" unicode="z" horiz-adv-x="471" 
d="M29 484l-3 -125h13q7 34 22.5 46.5t48.5 12.5l148 1l-247 -356v-63h404l9 133l-15 1q-9 -37 -29.5 -53t-58.5 -16h-148l243 354v65h-387z" />
    <glyph glyph-name="braceleft" unicode="{" horiz-adv-x="362" 
d="M11 263q50 -8 71 -32.5t21 -75.5v-178q0 -27 8.5 -51t27.5 -44q15 -15 37 -23t46 -11.5t48 -3.5h45v43q-51 -2 -75.5 21t-24.5 75v169q0 62 -26 92t-88 37q62 7 88 37t26 92v170q0 52 24.5 75t75.5 21v43h-45q-24 0 -48 -3.5t-46 -11.5t-37 -23q-19 -20 -27.5 -44
t-8.5 -51v-179q0 -51 -21 -75.5t-71 -32.5v-36z" />
    <glyph glyph-name="bar" unicode="|" horiz-adv-x="152" 
d="M11 -17h94v734h-94v-734z" />
    <glyph glyph-name="braceright" unicode="}" horiz-adv-x="364" 
d="M317 299q-51 8 -72 32.5t-21 75.5v179q0 27 -9 51t-28 44q-15 15 -37 23t-46.5 11.5t-49.5 3.5h-43v-43q51 2 76 -20.5t25 -75.5v-170q0 -62 27 -92t88 -37q-61 -7 -88 -37t-27 -92v-169q0 -53 -25 -75.5t-76 -20.5v-43h43q25 0 49.5 3.5t46.5 11.5t37 23q19 20 28 44
t9 51v178q0 51 21 75.5t72 32.5v36z" />
    <glyph glyph-name="asciitilde" unicode="~" 
d="M47 170q16 39 37.5 55t46 16.5t51.5 -10t55.5 -23.5t57.5 -23.5t56 -10.5q42 0 73 25.5t50 60.5l-37 77q-17 -40 -38.5 -55.5t-46 -16t-51.5 10t-55 23.5t-56.5 23.5t-55.5 10.5q-42 0 -74 -25t-49 -61z" />
    <glyph glyph-name="quotesinglbase" unicode="&#x201a;" horiz-adv-x="245" 
d="M117 145q-32 0 -54 -22t-22 -54q0 -22 13.5 -35.5t27.5 -31.5q1 -2 3 -2q3 0 5 -0.5t3 -2.5t0 -8q-4 -18 -17 -39t-27.5 -39.5t-26 -30.5l-11.5 -12l60 -12q15 8 32.5 27.5t33.5 45t29 53.5t19 53q5 8 6.5 16.5t1.5 17.5q0 32 -22 54t-54 22z" />
    <glyph glyph-name="florin" unicode="&#x192;" horiz-adv-x="575" 
d="M492 599q4 -11 15.5 -8t18.5 7q14 8 11 25t-9 34q-5 15 -17.5 24t-26.5 14.5t-28.5 7.5t-23.5 2q-59 0 -95.5 -27t-58.5 -68.5t-33.5 -91l-21.5 -95.5h-117l-3 -32h114l-42 -395q-2 -16 -5.5 -36.5t-12 -39t-22 -31t-34.5 -12.5q-8 0 -18.5 2.5t-15.5 9.5q2 7 -4.5 11
t-5.5 13q-4 6 -12 5t-16 -8t-13.5 -19.5t-4.5 -29.5q1 -14 12 -23t25.5 -14.5t30 -8t25.5 -2.5q77 0 129 60q17 20 29.5 45.5t21.5 53t15 55.5t9 54l43 310h121l2 32h-119l7 78q1 17 4 41t10.5 46t21 37.5t37.5 15.5q6 0 16 -4t19 -10.5t15.5 -14t6.5 -13.5z" />
    <glyph glyph-name="quotedblbase" unicode="&#x201e;" horiz-adv-x="485" 
d="M114 159q-32 0 -54 -22.5t-22 -53.5q0 -22 10.5 -36.5t30.5 -30.5q4 -3 8.5 -2.5t2.5 -11.5q-4 -18 -17 -39t-27.5 -39t-26 -30l-11.5 -12l60 -12q15 8 32.5 27.5t33.5 44.5t29 53t19 53q8 13 8 35q0 31 -22 53t-54 23zM334 159q-32 0 -54 -22.5t-22 -53.5
q0 -22 10.5 -36.5t30.5 -30.5q4 -3 8.5 -2.5t2.5 -11.5q-4 -18 -17 -39t-27.5 -39t-26 -30l-11.5 -12l60 -12q15 8 32.5 27.5t33.5 44.5t29 53t19 53q8 13 8 35q0 31 -22 53t-54 23z" />
    <glyph glyph-name="ellipsis" unicode="&#x2026;" horiz-adv-x="815" 
d="M87 145q-32 0 -54 -22t-22 -54t22 -53.5t54 -21.5t54 21.5t22 53.5t-22 54t-54 22zM387 145q-32 0 -54 -22t-22 -54t22 -53.5t54 -21.5t54 21.5t22 53.5t-22 54t-54 22zM687 145q-32 0 -54 -22t-22 -54t22 -53.5t54 -21.5t54 21.5t22 53.5t-22 54t-54 22z" />
    <glyph glyph-name="dagger" unicode="&#x2020;" horiz-adv-x="480" 
d="M283 663q-9 16 -25.5 24t-35.5 8t-35.5 -8t-25.5 -24q0 -18 3.5 -35.5t8.5 -34.5q8 -25 10 -50t2 -51q-19 0 -37.5 3.5t-36.5 7.5t-36.5 7.5t-36.5 3.5q-14 -6 -21 -20t-7 -30q0 -15 7 -29t21 -20q37 0 73 10.5t74 11.5q0 -42 -4.5 -78.5t-24.5 -74.5q20 -89 25 -179
t6 -181h70q1 91 6 181t25 179q-20 38 -24.5 74.5t-4.5 78.5q38 -1 74 -11.5t73 -10.5q14 6 21 20t7 29q0 16 -7 30t-21 20q-18 0 -36.5 -3.5t-36.5 -7.5t-36.5 -7.5t-37.5 -3.5q0 26 2 51t10 50q5 17 8.5 34.5t3.5 35.5z" />
    <glyph glyph-name="daggerdbl" unicode="&#x2021;" horiz-adv-x="480" 
d="M281 663q-8 15 -24.5 23t-34.5 8t-35 -8t-24 -23q0 -18 3.5 -37l7.5 -39t7.5 -41t3.5 -43q-19 0 -37.5 3.5t-36.5 7.5t-36.5 7.5t-36.5 3.5q-14 -6 -21 -20t-7 -30q0 -15 7 -29t21 -20q37 0 73 10.5t74 11.5q0 -38 -6.5 -74t-22.5 -70q17 -33 23 -66t6 -70
q-19 0 -37.5 3.5t-36.5 7.5t-36.5 7.5t-36.5 3.5q-14 -6 -21 -20t-7 -30q0 -15 7 -29t21 -20q37 0 73 10.5t74 11.5q0 -22 -3.5 -42t-7.5 -39.5t-7.5 -39t-3.5 -38.5q7 -15 24 -23t35 -8t34.5 8t24.5 23q0 18 -3.5 37l-7.5 39t-7.5 40.5t-3.5 42.5q38 -1 74 -11.5t73 -10.5
q14 6 21 20t7 29q0 16 -7 30t-21 20q-18 0 -36.5 -3.5t-36.5 -7.5t-36.5 -7.5t-37.5 -3.5q0 37 6.5 70t22.5 66q-16 34 -22.5 70t-6.5 74q38 -1 74 -11.5t73 -10.5q14 6 21 20t7 29q0 16 -7 30t-21 20q-18 0 -36.5 -3.5t-36.5 -7.5t-36.5 -7.5t-37.5 -3.5q0 22 3.5 43
t7.5 41l7.5 39t3.5 37z" />
    <glyph glyph-name="circumflex" unicode="&#x2c6;" horiz-adv-x="388" 
d="M11 551h70l95 92l94 -92h71l-117 162h-96z" />
    <glyph glyph-name="perthousand" unicode="&#x2030;" horiz-adv-x="1046" 
d="M187 690q-49 0 -86 -26.5t-59.5 -65.5t-29.5 -85.5t3.5 -85.5t40.5 -65.5t80 -26.5q44 0 76 21t52.5 53.5t30.5 72t10 77.5q0 32 -8 52t-25 38q27 -4 60.5 -4.5t65.5 1.5t57.5 7.5t34.5 13.5l-405 -691h67l430 737h-60q-10 -11 -31.5 -20t-49.5 -15t-60 -9.5t-61 -3
t-53.5 5t-38.5 14.5q-20 5 -41 5zM198 635q24 0 36 -18.5t14 -46t-4.5 -60t-19.5 -60t-32 -46t-40 -18.5q-25 0 -36.5 18.5t-12.5 46t7 60t21.5 60t31 46t35.5 18.5zM532 342q-49 0 -85.5 -26.5t-59 -65.5t-29.5 -85.5t3.5 -85.5t39.5 -65.5t80 -26.5q45 0 77 20.5t52.5 53
t30 72.5t9.5 78q0 59 -28 95t-90 36zM544 287q24 0 35.5 -18.5t13.5 -46.5t-4.5 -60t-19.5 -60t-31.5 -46.5t-40.5 -18.5q-25 0 -36 18.5t-12 46.5t7 60t21.5 60t31 46.5t35.5 18.5zM881 342q-49 0 -85.5 -26.5t-59 -65.5t-29.5 -85.5t3.5 -85.5t39.5 -65.5t80 -26.5
q45 0 77 20.5t52.5 53t30 72.5t9.5 78q0 59 -28 95t-90 36zM893 287q24 0 35.5 -18.5t13.5 -46.5t-4.5 -60t-19.5 -60t-31.5 -46.5t-40.5 -18.5q-25 0 -36 18.5t-12 46.5t7 60t21.5 60t30.5 46.5t36 18.5z" />
    <glyph glyph-name="Scaron" unicode="&#x160;" horiz-adv-x="522" 
d="M30 -3q2 15 16 18q2 0 12.5 -2t23.5 -5l24 -5.5t14 -3.5q35 -9 73 -12.5t75 0.5t72 16.5t65 36.5q36 29 53 66t17 83q0 59 -25 99t-62 67t-80.5 46t-80.5 37.5t-62 40.5t-25 55q0 36 18.5 58t47.5 30.5t63 5t65.5 -18t55 -39t30.5 -57.5l22 53l-3 121h-16q-1 -17 -19 -19
q-1 0 -10.5 2.5l-21 5.5l-22 5.5t-12.5 3.5q-22 6 -44 9.5t-45 3.5q-48 0 -90.5 -12t-75 -36.5t-51 -62.5t-18.5 -90q0 -59 24.5 -97t60.5 -63.5t79 -43.5t79 -36.5t60.5 -42.5t24.5 -61q0 -34 -20 -56.5t-50.5 -33.5t-67.5 -9.5t-71.5 17t-61.5 45t-38 73.5l-22 -59l3 -133
h16zM76 898l118 -162h96l117 162h-71l-94 -92l-95 92h-71z" />
    <glyph glyph-name="guilsinglleft" unicode="&#x2039;" horiz-adv-x="298" 
d="M142 246l109 170q-1 12 -8.5 18t-18.5 7t-22.5 -1t-19.5 -5l-171 -186v-6l166 -186q8 -3 19.5 -5t22.5 -1t18.5 7t8.5 18z" />
    <glyph glyph-name="OE" unicode="&#x152;" horiz-adv-x="971" 
d="M370 621q37 0 61 -14.5t24 -55.5v-404q0 -50 -22.5 -66.5t-69.5 -16.5q-59 0 -97 23t-59.5 60.5t-30 85.5t-8.5 98q0 51 8.5 102.5t31 93t61.5 68t101 26.5zM895 684q-88 0 -176 -1t-176 1q-61 1 -118.5 5t-111.5 -0.5t-105.5 -23.5t-99.5 -65q-54 -51 -75.5 -117.5
t-21.5 -139.5q0 -83 22.5 -149t66 -111t108 -68t149.5 -20q137 5 272 6t272 -1l23 163h-15q-20 -50 -54.5 -72t-87.5 -22h-120q-18 0 -32 3.5t-14 25.5v220h121q44 0 61.5 -19t20.5 -61h14v226h-14q-5 -41 -22 -59t-60 -18h-121v201q0 19 8.5 23t25.5 4h133q50 0 78.5 -17.5
t35.5 -69.5h14z" />
    <glyph glyph-name="quoteleft" unicode="&#x2018;" horiz-adv-x="245" 
d="M87 400q32 -1 54 21.5t22 54.5q0 22 -13.5 35t-27.5 31q-2 2 -4 2t-4 1t-3 3t0 8q4 18 17 39t27.5 39.5t26 30.5l11.5 12l-60 12q-15 -8 -32.5 -27.5t-33.5 -45t-29 -53.5t-19 -53q-5 -8 -6.5 -16.5t-1.5 -17.5q0 -32 22 -54t54 -22z" />
    <glyph glyph-name="quoteright" unicode="&#x2019;" horiz-adv-x="245" 
d="M117 689q-32 0 -54 -22.5t-22 -53.5q0 -11 3.5 -19.5t9.5 -16t13.5 -15t14.5 -16.5q1 -2 3 -2q3 0 5 -1t3 -3t0 -8q-4 -18 -17 -39t-27.5 -39t-26 -30l-11.5 -12l60 -12q15 8 32.5 27.5t33.5 44.5t29 53t19 53q8 13 8 35q0 31 -22 53t-54 23z" />
    <glyph glyph-name="quotedblleft" unicode="&#x201c;" horiz-adv-x="485" 
d="M304 399q32 0 54 22t22 54q0 22 -10.5 36.5t-30.5 30.5q-4 3 -8.5 2t-2.5 11q4 18 17 39t27.5 39.5t26 30.5l11.5 12l-60 12q-15 -8 -32.5 -27.5t-33.5 -45t-29 -53.5t-19 -53q-5 -8 -6.5 -16.5t-1.5 -17.5q0 -32 22 -54t54 -22zM84 399q32 0 54 22t22 54
q0 22 -10.5 36.5t-30.5 30.5q-4 3 -8.5 2t-2.5 11q4 18 17 39t27.5 39.5t26 30.5l11.5 12l-60 12q-15 -8 -32.5 -27.5t-33.5 -45t-29 -53.5t-19 -53q-5 -8 -6.5 -16.5t-1.5 -17.5q0 -32 22 -54t54 -22z" />
    <glyph glyph-name="quotedblright" unicode="&#x201d;" horiz-adv-x="485" 
d="M114 688q-32 0 -54 -22t-22 -54q0 -22 10.5 -36.5t30.5 -30.5q4 -3 8.5 -2t2.5 -11q-4 -18 -17 -39t-27.5 -39.5t-26 -30.5l-11.5 -12l60 -12q15 8 32.5 27.5t33.5 45t29 53.5t19 53q5 8 6.5 16.5t1.5 17.5q0 32 -22 54t-54 22zM334 688q-32 0 -54 -22t-22 -54
q0 -22 10.5 -36.5t30.5 -30.5q4 -3 8.5 -2t2.5 -11q-4 -18 -17 -39t-27.5 -39.5t-26 -30.5l-11.5 -12l60 -12q15 8 32.5 27.5t33.5 45t29 53.5t19 53q5 8 6.5 16.5t1.5 17.5q0 32 -22 54t-54 22z" />
    <glyph glyph-name="bullet" unicode="&#x2022;" horiz-adv-x="244" 
d="M105 490q-32 0 -54 -22t-22 -54t22 -54t54 -22q16 0 30.5 6t25 16.5t16 24.5t4.5 29q-3 32 -23.5 54t-52.5 22z" />
    <glyph glyph-name="endash" unicode="&#x2013;" horiz-adv-x="558" 
d="M11 289v-89h500v89h-500z" />
    <glyph glyph-name="emdash" unicode="&#x2014;" horiz-adv-x="1058" 
d="M11 289v-89h1000v89h-1000z" />
    <glyph glyph-name="tilde" unicode="&#x2dc;" horiz-adv-x="416" 
d="M369 693h-47q-3 -26 -16.5 -35t-31.5 -9t-37 6.5t-34 13.5q-19 9 -39.5 15.5t-41.5 6.5q-26 0 -45.5 -10.5t-33 -27.5t-21.5 -39t-11 -45h45q4 26 17.5 35.5t31 9t36.5 -7.5t34 -14q20 -9 40 -15t42 -6q26 0 45.5 10.5t33.5 27.5t22 39t11 45z" />
    <glyph glyph-name="trademark" unicode="&#x2122;" horiz-adv-x="989" 
d="M361 599v85h-350v-85h19q4 18 16.5 26t28.5 10t32.5 1t30.5 -1v-303q0 -16 -4.5 -26.5t-22.5 -11.5v-19h149v19q-18 1 -22.5 11.5t-4.5 26.5v303q13 0 30.5 1t33 -1t28 -10t17.5 -26h19zM942 684h-129l-127 -277l-124 277h-131v-19q18 -1 23.5 -11t5.5 -27v-295
q0 -17 -5.5 -27t-23.5 -11v-19h119v19q-18 1 -23.5 11t-5.5 27v238l125 -295h42l130 295v-238q0 -17 -5 -27t-23 -11v-19h152v19q-18 1 -23.5 11t-5.5 27v295q0 17 5.5 27t23.5 11v19z" />
    <glyph glyph-name="scaron" unicode="&#x161;" horiz-adv-x="411" 
d="M38 12l70 -16.5t71 -8.5q36 0 69 9.5t59 28.5t41.5 48.5t15.5 68.5q0 44 -17.5 72.5t-44 46.5t-57.5 29.5t-57.5 23.5t-44 26.5t-17.5 38.5q0 29 23.5 43t56 11.5t65.5 -21t51 -54.5l19 46l-1 80h-11q-4 -10 -13 -10q-8 0 -17.5 3t-17.5 5q-22 5 -44 9.5t-45 4.5
q-35 0 -67.5 -9t-58 -27.5t-40.5 -46.5t-15 -67q0 -44 17.5 -71t44 -44t57.5 -28t57.5 -22.5t44 -27t17.5 -41.5q0 -25 -14.5 -39.5t-36.5 -20t-48.5 -2.5t-50.5 14.5t-43 30.5t-25 44l-19 -49v-92h13zM21 712l118 -162h96l117 162h-71l-94 -92l-95 92h-71z" />
    <glyph glyph-name="guilsinglright" unicode="&#x203a;" horiz-adv-x="301" 
d="M123 246l-107 -170q1 -13 9 -18.5t18.5 -6.5t22.5 1t20 5l168 186v6l-173 186q-8 3 -20 5t-22.5 1t-18.5 -6.5t-9 -18.5z" />
    <glyph glyph-name="oe" unicode="&#x153;" horiz-adv-x="817" 
d="M353 241q0 -25 -2.5 -58t-12 -62t-29.5 -49.5t-55 -20.5t-55 20t-30.5 49.5t-13.5 62t-3 58.5q0 25 2.5 58t12 62.5t29.5 50t55 20.5q34 0 54.5 -20.5t31 -50t13.5 -62.5t3 -58zM420 57q12 -20 29.5 -33t38.5 -21t43.5 -11.5t44.5 -3.5q54 0 102.5 23.5t80.5 67.5l-13 38
q-11 -15 -27 -30t-34 -27.5t-37.5 -20.5t-37.5 -8q-35 0 -58.5 21t-38 52t-21.5 67t-10 65l290 2q-1 51 -12 97.5t-35 82.5t-63.5 57t-97.5 21q-91 0 -149 -70q-31 38 -74 54t-91 16q-79 0 -132 -37.5t-80 -94t-27.5 -122.5t25.5 -122.5t79 -94t133 -37.5q49 0 95 14t77 55z
M482 296q1 21 4.5 45.5t12.5 45t25.5 34t44.5 13.5q27 0 42 -14t22.5 -35t10 -45t2.5 -44h-164z" />
    <glyph glyph-name="Ydieresis" unicode="&#x178;" horiz-adv-x="730" 
d="M490 671q30 -2 41.5 -13t-6.5 -41l-146 -251l-149 269q-8 14 -6.5 21.5t8 10.5t16.5 3.5t21 0.5v13h-258v-13q14 -1 25.5 -9.5t19.5 -20.5l218 -369v-217q0 -15 -3.5 -23.5t-10 -12t-16.5 -4.5t-23 -2v-13h255v13q-13 0 -23 1t-16.5 4.5t-9.5 12t-3 23.5v236l208 342
q11 18 20 27t31 12v13h-193v-13zM521 796q0 26 -17.5 45t-43.5 19t-43.5 -19t-17.5 -45t17.5 -45t43.5 -19t43.5 17.5t17.5 46.5zM312 796q0 29 -17.5 46.5t-43.5 17.5t-43 -19t-17 -45t17 -45t43 -19t43.5 19t17.5 45z" />
    <glyph glyph-name="exclamdown" unicode="&#xa1;" horiz-adv-x="217" 
d="M165 428q0 31 -22 53t-53 22q-32 0 -53.5 -22t-21.5 -54q0 -31 22 -53t53 -22q32 0 53.5 22t21.5 54zM170 -140q1 12 -2 38t-8.5 55.5l-10.5 58t-6 44.5l-19 223h-66l-19 -223q-2 -16 -7 -44.5l-10 -58.5l-9 -56t-2 -37q2 -18 14.5 -30.5t29 -19t35.5 -6.5q20 0 36.5 6
t28.5 18.5t15 31.5z" />
    <glyph glyph-name="cent" unicode="&#xa2;" horiz-adv-x="459" 
d="M149 -121l38 116q28 -9 59.5 -8.5t62 9.5t57.5 25.5t46 39.5l-12 19q-15 -17 -38 -22.5t-48.5 -2.5t-50 13.5t-43.5 24.5l105 314l4 -7q-1 -29 10 -43t25 -11.5t25.5 23t11.5 59.5q-7 17 -22 28.5t-31 19.5l41 124h-47l-36 -110q-24 6 -50 6q-66 0 -115.5 -28
t-80.5 -72.5t-43 -99.5t-2.5 -109t41.5 -102t89 -77l-43 -129h47zM185 128q-16 22 -25.5 55t-11 68.5t5 70.5t23 61t43 39.5t65.5 6.5z" />
    <glyph glyph-name="sterling" unicode="&#xa3;" horiz-adv-x="520" 
d="M137 133q-17 1 -39 3.5t-41.5 0t-32.5 -13.5t-13 -38q0 -32 4 -50t15.5 -27t31.5 -11.5t52 -2.5q56 0 96 34q23 -14 48.5 -24t52.5 -10q20 0 43 11t43.5 26t38 30.5t27 25.5l10.5 11l-2 17l-13.5 -7t-34 -15t-44.5 -13.5t-45 -2.5q-29 5 -53 21t-38 23q1 24 3 55
t3.5 63.5l3 63.5t1.5 55h128v30h-131l-9 45.5t-7.5 52.5t-0.5 52t11.5 45t29 32t51.5 12q20 0 38.5 -7.5t28.5 -25.5q0 -6 -0.5 -12t-0.5 -12q0 -17 11 -21.5t25 -0.5q13 4 20.5 12.5t10.5 19t4 23t1 23.5q-6 21 -22 34t-36 21t-41.5 11t-40.5 3q-47 0 -90 -14t-75 -49
q-31 -33 -46.5 -73.5t-11.5 -85.5l7 -85h-82v-30h90q6 -24 10 -52.5t6.5 -58.5t3.5 -59.5t1 -54.5zM140 78q-3 -19 -14 -27.5t-23.5 -9.5t-22 6t-9.5 19q0 15 8 21t19 6t22.5 -4.5t19.5 -10.5z" />
    <glyph glyph-name="currency" unicode="&#x20ac;" horiz-adv-x="781" 
d="M56 228h68q15 -59 47 -104t78 -76t103.5 -47t125.5 -16q34 0 62 5.5t52.5 16.5t48 27.5t49.5 39.5l6 11l-6 56q-41 -38 -92.5 -58.5t-106.5 -20.5q-44 0 -78 13t-59 35.5t-41.5 52.5t-26.5 65h408v68h-420q-1 12 -1.5 24t-0.5 24v19t1 19h421v68h-410q8 36 23.5 68.5
t40 56.5t58 38t77.5 14q66 0 119 -34.5t79 -94.5q8 9 13.5 7l5.5 -2l-1 180h-15q-2 -10 -8 -16.5t-17 -7.5q-2 0 -12.5 3l-23 6.5t-23.5 7l-14 4.5q-56 18 -113 18q-66 0 -122.5 -17.5t-101 -49.5t-76 -78t-47.5 -103h-70v-68h57q-1 -11 -1.5 -22.5t-0.5 -23.5
q0 -11 0.5 -20.5t1.5 -19.5h-57v-68z" />
    <glyph glyph-name="yen" unicode="&#xa5;" horiz-adv-x="652" 
d="M100 221v-33h145v-133q0 -15 -3.5 -23.5t-10.5 -12t-17 -4.5t-23 -2v-13h239v13q-13 0 -23 1t-16.5 4.5t-10 12t-3.5 23.5v134h145v33h-145v91l5 10h140v33h-117l156 284q8 15 17.5 22t26.5 10v13h-170v-13q26 0 34 -9.5t-4 -34.5l-130 -261l-132 264q-13 26 -7.5 32.5
t35.5 8.5v13h-220v-13q17 -1 27 -8.5t18 -21.5l158 -286h-114v-33h136l9 -17v-84h-145z" />
    <glyph glyph-name="brokenbar" unicode="&#xa6;" horiz-adv-x="152" 
d="M11 -17h94v278h-94v-278zM11 437h94v280h-94v-280z" />
    <glyph glyph-name="section" unicode="&#xa7;" horiz-adv-x="463" 
d="M150 388q26 -7 57 -24.5t53 -33.5q24 -17 45.5 -37.5t21.5 -53.5q0 -23 -14 -40.5t-36 -22.5q-26 7 -57 25t-53 33q-25 17 -46 37.5t-21 53.5q0 23 14 40.5t36 22.5zM302 146q56 10 85 42t29 89q0 39 -20 69.5t-50 55.5t-64 44.5l-62 36.5l-25.5 16t-27 20t-21 24
t-8.5 28q0 32 21.5 48t51.5 19.5t61 -3.5t49 -21q-3 -8 -13 -15.5t-10 -18.5q0 -15 10 -22.5t22 -8t22.5 7.5t12.5 25q3 21 -0.5 35t-13.5 24t-27 18.5t-41 18.5q-50 21 -94.5 20.5t-79 -16.5t-55.5 -45t-22 -65t20.5 -76t72.5 -79q-56 -10 -85 -42t-29 -89q0 -39 20 -69.5
t50 -55.5t64 -45l62 -36q11 -6 25 -15t27 -20t21.5 -24t8.5 -28q0 -33 -25 -49t-59 -19t-67.5 4t-51.5 21q1 4 5 8l8 8t7 8.5t3 9.5q0 12 -10 19.5t-22 8t-23 -6.5t-12 -23q-2 -22 1.5 -36t14 -24t28 -18t41.5 -18q50 -20 97 -20q48 0 85 15.5t60 43.5t26 64t-18.5 76.5
t-74.5 80.5z" />
    <glyph glyph-name="dieresis" unicode="&#xa8;" horiz-adv-x="388" 
d="M341 626q0 26 -17.5 45t-43.5 19t-43.5 -19t-17.5 -45t17.5 -45t43.5 -19t43.5 17.5t17.5 46.5zM132 626q0 29 -17.5 46.5t-43.5 17.5t-43 -19t-17 -45t17 -45t43 -19t43.5 19t17.5 45z" />
    <glyph glyph-name="copyright" unicode="&#xa9;" horiz-adv-x="764" 
d="M364 696q-146 0 -250 -104q-56 -56 -80.5 -122t-23 -133t27.5 -129.5t72 -111t110.5 -77.5t143.5 -29q78 0 142.5 29t111 77.5t72.5 111t27.5 129.5t-23.5 133t-81 122q-104 104 -249 104zM364 635q57 0 104.5 -22t85.5 -64q41 -44 60 -98t18.5 -109.5t-19 -108
t-53 -93.5t-84.5 -66t-112 -25q-57 0 -104.5 22t-85.5 64q-41 44 -60 98t-18.5 109.5t19 108t53 93.5t84.5 66t112 25zM505 423q0 10 -1 19.5t-4 20.5q-8 33 -35.5 55.5t-64 31.5t-77 3t-74.5 -30t-56.5 -67.5t-22.5 -108.5q0 -47 15 -85.5t42.5 -65.5t66 -41.5t85.5 -14.5
q24 0 48 10.5t42.5 28.5t29 41.5t7.5 49.5h-12q-8 -28 -28 -47.5t-45 -27.5t-51.5 -4.5t-49 21.5t-37 51.5t-14.5 85.5q0 48 14 80.5t35.5 50.5t48 23t50.5 -3t42.5 -27.5t25.5 -49.5h20z" />
    <glyph glyph-name="ordfeminine" unicode="&#xaa;" horiz-adv-x="364" 
d="M207 545v-51q0 -12 -6 -21.5t-15 -16.5t-20.5 -11t-21.5 -4q-21 0 -33.5 12.5t-12 28.5t15.5 31.5t49 22.5zM209 440q3 -26 13.5 -36.5t26 -12t33.5 4t35 12.5l-5 13l-9 -6q-4 0 -6 7.5t-3 17.5t-1 18v12v120q0 37 -16 60.5t-40 34.5t-53 12.5t-55.5 -5t-47 -19
t-26.5 -27.5q0 -13 -5 -22.5t7 -14.5q3 -2 4 -4t1 6q0 5 6.5 10.5t4.5 10.5q10 15 32.5 22.5t45 5t39.5 -15t17 -37.5v-29l-66 -13q-21 -4 -44 -9.5t-42 -16t-31.5 -27.5t-12.5 -44q0 -36 22.5 -54.5t54 -21t65 9.5t56.5 38z" />
    <glyph glyph-name="guillemotleft" unicode="&#xab;" horiz-adv-x="507" 
d="M351 246l109 170q-1 12 -8.5 18t-18.5 7t-22.5 -1t-19.5 -5l-171 -186v-6l166 -186q8 -3 19.5 -5t22.5 -1t18.5 7t8.5 18zM142 246l109 170q-1 12 -8.5 18t-18.5 7t-22.5 -1t-19.5 -5l-171 -186v-6l166 -186q8 -3 19.5 -5t22.5 -1t18.5 7t8.5 18z" />
    <glyph glyph-name="logicalnot" unicode="&#xac;" horiz-adv-x="678" 
d="M496 706q0 26 -17.5 45t-43.5 19t-43.5 -19t-17.5 -45t17.5 -45t43.5 -19t43.5 17.5t17.5 46.5zM287 706q0 29 -17.5 46.5t-43.5 17.5t-43 -19t-17 -45t17 -45t43 -19t43.5 19t17.5 45zM570 108v298h-504v-93h411v-205h93zM475 696q0 -11 -11 -11t-11 11t11 11t11 -11z
M269 696q0 -11 -11 -11t-11 11t11 11t11 -11z" />
    <glyph glyph-name="registered" unicode="&#xae;" horiz-adv-x="764" 
d="M316 361v136h50q23 0 38 -10t22 -25t7 -33t-8 -33t-23 -25t-37 -10h-49zM364 696q-146 0 -250 -104q-56 -56 -80.5 -122t-23 -133t27.5 -129.5t72 -111t110.5 -77.5t143.5 -29q78 0 142.5 29t111 77.5t72.5 111t27.5 129.5t-23.5 133t-81 122q-104 104 -249 104zM364 635
q57 0 104.5 -22t85.5 -64q41 -44 60 -98t18.5 -109.5t-19 -108t-53 -93.5t-84.5 -66t-112 -25q-57 0 -104.5 22t-85.5 64q-41 44 -60 98t-18.5 109.5t19 108t53 93.5t84.5 66t112 25zM341 151v16q-13 0 -19 7.5t-6 19.5v125h38q10 -17 27 -40.5t36.5 -47.5l38.5 -45.5
t32 -34.5h80v6q-16 19 -35.5 40l-39 43l-38 44t-31.5 43q31 6 52.5 24t31.5 41.5t8.5 49.5t-16.5 47.5t-43.5 35.5t-72.5 14h-177v-16q26 0 26 -26v-303q0 -12 -6.5 -19.5t-19.5 -7.5v-16h134z" />
    <glyph glyph-name="macron" unicode="&#xaf;" horiz-adv-x="1036" 
 />
    <glyph glyph-name="degree" unicode="&#xb0;" horiz-adv-x="358" 
d="M161 696q-62 0 -106 -44q-35 -35 -41.5 -79.5t9.5 -83.5t52 -66t86 -27t86 27t52 66t9.5 83.5t-41.5 79.5q-44 44 -106 44zM161 645q33 0 54.5 -14.5t32.5 -36.5t11 -48t-11 -48t-32.5 -36.5t-54.5 -14.5t-54.5 14.5t-32.5 36.5t-11 48t11 48t32.5 36.5t54.5 14.5z" />
    <glyph glyph-name="plusminus" unicode="&#xb1;" horiz-adv-x="562" 
d="M216 366h-205v-93h205v-140h94v140h205v93h-205v141h-94v-141zM11 0h504v93h-504v-93z" />
    <glyph glyph-name="twosuperior" unicode="&#xb2;" horiz-adv-x="366" 
d="M11 278h291l17 96h-8q-7 -17 -17 -21t-27 -4h-152l55 46t59 54t47.5 62.5t19.5 69.5t-16.5 60.5t-42.5 38t-57.5 15.5t-62 -6.5t-56.5 -27t-41 -46.5l14 -33q12 24 41 36.5t58 11t51.5 -18t22.5 -49.5q0 -20 -10.5 -42.5t-27 -45.5t-38 -45.5l-43 -43t-42 -38
l-35.5 -29.5v-40z" />
    <glyph glyph-name="threesuperior" unicode="&#xb3;" horiz-adv-x="355" 
d="M34 600q17 20 41.5 30t50.5 10q40 0 60 -20t17 -44.5t-31 -44.5t-84 -20l1 -36q21 1 45 -3.5t45 -15t34.5 -28.5t13.5 -43q0 -32 -24.5 -50.5t-54.5 -18.5q-26 0 -43 8t-39 17q-21 9 -37 -3t-18 -34q6 -11 19.5 -18t30 -10.5t32.5 -4.5t27 -1q53 0 91.5 15.5t61.5 40
t31 53.5t2 56t-27 48.5t-56 30.5q31 13 50.5 33.5t19.5 55.5q0 30 -16 50t-41.5 30.5t-56.5 12t-60.5 -5t-55 -20.5t-38.5 -35z" />
    <glyph glyph-name="acute" unicode="&#xb4;" horiz-adv-x="284" 
d="M11 551h70l151 121q6 4 5 9t-4.5 9t-9 7t-8.5 5q-19 11 -33 13t-35 0q-11 -6 -30 -28t-39.5 -48.5l-39 -51.5t-27.5 -36z" />
    <glyph glyph-name="mu" unicode="&#xb5;" horiz-adv-x="556" 
d="M481 484h-170v-12q19 0 27.5 -5.5t8.5 -26.5v-264q0 -21 -9 -40t-24 -34q-22 -22 -47 -29t-46 1.5t-34.5 31t-13.5 59.5v319h-162v-12q18 0 23 -7t5 -25q0 -109 -0.5 -217.5t-3.5 -217.5q0 -12 -3 -37.5t-5.5 -52.5l-4.5 -50t0 -30q4 -20 21.5 -31t39 -12t41 9.5
t28.5 33.5q0 48 -8 95t-11 95q17 -21 42.5 -29t51.5 -8q40 0 73 23.5t52 57.5v-75q7 -1 28 1.5t45.5 6l48 7t35.5 4.5l-1 12q-17 0 -22 8.5t-5 23.5v427z" />
    <glyph glyph-name="paragraph" unicode="&#xb6;" horiz-adv-x="580" 
d="M533 -141q-11 1 -19 2t-14 4.5t-9 10t-3 19.5v740q0 20 13.5 28t31.5 8v13h-303q-47 0 -87.5 -9t-69.5 -30.5t-45.5 -56.5t-16.5 -87q0 -101 54.5 -150t153.5 -51v-405q0 -13 -3 -19.5t-9 -10t-14.5 -4.5t-18.5 -2v-13h141v788h77v-788h141v13zM219 354q-30 2 -51.5 14.5
t-35 32.5t-20 45.5t-6.5 53.5t6.5 52t20 42t35 28.5t51.5 10.5v-279z" />
    <glyph glyph-name="periodcentered" unicode="&#xb7;" horiz-adv-x="210" 
d="M87 378q-32 0 -54 -22t-22 -54t22 -54t54 -22t54 22.5t22 53.5q0 32 -22 54t-54 22z" />
    <glyph glyph-name="periodcentered" unicode="&#x2219;" horiz-adv-x="210" 
d="M87 378q-32 0 -54 -22t-22 -54t22 -54t54 -22t54 22.5t22 53.5q0 32 -22 54t-54 22z" />
    <glyph glyph-name="cedilla" unicode="&#xb8;" horiz-adv-x="290" 
d="M11 -199q24 -9 50 -14t52 -5q46 0 74.5 13t42 32t14 41t-9.5 40.5t-29 29t-45 7.5l-39 -6l39 67h-52l-50 -93l14 -16q8 2 17 3.5t17 3.5q18 3 30.5 -8.5t14 -26.5t-11.5 -27.5t-44 -12.5q-14 0 -34 4t-32 11z" />
    <glyph glyph-name="onesuperior" unicode="&#xb9;" horiz-adv-x="290" 
d="M243 285q-13 0 -26 2.5t-13 19.5v386h-44l-149 -78l21 -35l56 32q10 0 16 -3t6 -14v-288q0 -9 -4.5 -13.5t-10.5 -6.5t-13.5 -3t-13.5 -2v-4h175v7z" />
    <glyph glyph-name="ordmasculine" unicode="&#xba;" horiz-adv-x="383" 
d="M336 544q0 51 -24 85t-60 51t-79 17q-42 0 -78 -17t-60 -51t-24 -85t24 -85t60 -51t78 -17q43 0 79 17t60 51t24 85zM243 544q0 -18 -2 -38t-9.5 -37t-21 -28t-36.5 -11t-36.5 11t-21 28t-10 37t-2.5 38t2 38t9.5 37t21 28t36.5 11q22 0 36 -11.5t21.5 -28.5t10 -37
t2.5 -37z" />
    <glyph glyph-name="guillemotright" unicode="&#xbb;" horiz-adv-x="510" 
d="M332 246l-107 -170q1 -13 9 -18.5t18.5 -6.5t22.5 1t20 5l168 186v6l-173 186q-8 3 -20 5t-22.5 1t-18.5 -6.5t-9 -18.5zM123 246l-107 -170q1 -13 9 -18.5t18.5 -6.5t22.5 1t20 5l168 186v6l-173 186q-8 3 -20 5t-22.5 1t-18.5 -6.5t-9 -18.5z" />
    <glyph glyph-name="onequarter" unicode="&#xbc;" horiz-adv-x="808" 
d="M243 285q-13 0 -26 2.5t-13 19.5v386h-44l-149 -78l21 -35l56 32q10 0 16 -3t6 -14v-288q0 -9 -4.5 -13.5t-10.5 -6.5t-13.5 -3t-13.5 -2v-4h175v7zM151 -15h69l429 716h-69zM629 415l-193 -261v-66h184v-88h87v88h54v63h-54v264h-78zM620 334v-183h-134z" />
    <glyph glyph-name="onehalf" unicode="&#xbd;" horiz-adv-x="844" 
d="M243 285q-13 0 -26 2.5t-13 19.5v386h-44l-149 -78l21 -35l56 32q10 0 16 -3t6 -14v-288q0 -9 -4.5 -13.5t-10.5 -6.5t-13.5 -3t-13.5 -2v-4h175v7zM138 -15h69l429 716h-69zM489 0h291l17 96h-8q-7 -17 -17 -21t-27 -4h-152l55 46t59 54t47.5 62.5t19.5 69.5t-16.5 60.5
t-42 38t-57.5 15.5t-62.5 -6.5t-57 -27t-40.5 -46.5l14 -33q12 24 41 36.5t58 11t51.5 -18t22.5 -49.5q0 -20 -10.5 -42.5t-27 -45.5t-38 -45.5l-43 -43t-42 -38l-35.5 -29.5v-40z" />
    <glyph glyph-name="threequarters" unicode="&#xbe;" horiz-adv-x="815" 
d="M34 600q17 20 41.5 30t50.5 10q40 0 60 -20t17 -44.5t-31 -44.5t-84 -20l1 -36q21 1 45 -3.5t45 -15t34.5 -28.5t13.5 -43q0 -32 -24.5 -50.5t-54.5 -18.5q-26 0 -43 8t-39 17q-21 9 -37 -3t-18 -34q6 -11 19.5 -18t30 -10.5t32.5 -4.5t27 -1q53 0 91.5 15.5t61.5 40
t31 53.5t2 56t-27 48.5t-56 30.5q31 13 50.5 33.5t19.5 55.5q0 30 -16 50t-41.5 30.5t-56.5 12t-60.5 -5t-55 -20.5t-38.5 -35zM161 -15h69l429 716h-69zM636 415l-193 -261v-66h184v-88h87v88h54v63h-54v264h-78zM627 334v-183h-134z" />
    <glyph glyph-name="questiondown" unicode="&#xbf;" horiz-adv-x="462" 
d="M302 428q0 31 -22 53t-53 22q-32 0 -53.5 -22t-21.5 -54q0 -31 22 -53t53 -22q32 0 53.5 22t21.5 54zM415 -105q0 8 1.5 16.5t1.5 14.5t-1.5 9t-7.5 2q-9 -2 -9.5 -10.5t-5.5 -16.5q-14 -20 -37.5 -32t-50 -16.5t-53.5 0t-49 18.5t-35.5 38.5t-13.5 60.5q0 42 17.5 74.5
t38.5 62.5t37.5 62.5t15.5 76.5l-1 28h-71q-1 -16 -2.5 -29t-5 -24t-10.5 -22t-19 -23l-47 -44.5t-46.5 -49.5t-36 -55.5t-14.5 -62.5q0 -70 53 -121q20 -19 51 -31.5t66 -17t71.5 -1.5t69 14.5t57.5 31t36 47.5z" />
    <glyph glyph-name="Agrave" unicode="&#xc0;" horiz-adv-x="754" 
d="M427 254h-201l99 267zM707 13q-17 0 -27.5 12.5t-16.5 26.5l-261 640h-91l-254 -636q-7 -17 -17 -28.5t-29 -14.5v-13h181v13q-12 0 -22 1.5t-15.5 6t-6.5 13t4 22.5l48 126h253l49 -128q6 -14 4.5 -22.5t-7.5 -12.5t-15.5 -5t-21.5 -1v-13h245v13zM441 737l-28 36
l-40 51.5l-40 48.5t-29 28q-21 2 -35 0t-34 -13q-3 -2 -8 -5t-8.5 -7t-4 -9t5.5 -9l150 -121h71z" />
    <glyph glyph-name="Aacute" unicode="&#xc1;" horiz-adv-x="754" 
d="M427 254h-201l99 267zM707 13q-17 0 -27.5 12.5t-16.5 26.5l-261 640h-91l-254 -636q-7 -17 -17 -28.5t-29 -14.5v-13h181v13q-12 0 -22 1.5t-15.5 6t-6.5 13t4 22.5l48 126h253l49 -128q6 -14 4.5 -22.5t-7.5 -12.5t-15.5 -5t-21.5 -1v-13h245v13zM282 737h70l151 121
q6 4 5 9t-4.5 9t-9 7t-8.5 5q-19 11 -33 13t-35 0q-11 -6 -30 -28t-39.5 -48.5l-39 -51.5t-27.5 -36z" />
    <glyph glyph-name="Acircumflex" unicode="&#xc2;" horiz-adv-x="754" 
d="M427 254h-201l99 267zM707 13q-17 0 -27.5 12.5t-16.5 26.5l-261 640h-91l-254 -636q-7 -17 -17 -28.5t-29 -14.5v-13h181v13q-12 0 -22 1.5t-15.5 6t-6.5 13t4 22.5l48 126h253l49 -128q6 -14 4.5 -22.5t-7.5 -12.5t-15.5 -5t-21.5 -1v-13h245v13zM197 737h71l95 92
l94 -92h71l-117 162h-96z" />
    <glyph glyph-name="Atilde" unicode="&#xc3;" horiz-adv-x="754" 
d="M427 254h-201l99 267zM707 13q-17 0 -27.5 12.5t-16.5 26.5l-261 640h-91l-254 -636q-7 -17 -17 -28.5t-29 -14.5v-13h181v13q-12 0 -22 1.5t-15.5 6t-6.5 13t4 22.5l48 126h253l49 -128q6 -14 4.5 -22.5t-7.5 -12.5t-15.5 -5t-21.5 -1v-13h245v13zM541 879h-47
q-3 -26 -16.5 -35t-31.5 -9t-37 6.5t-34 13.5q-19 9 -39.5 15.5t-41.5 6.5q-26 0 -45.5 -10.5t-33.5 -27.5t-22 -39t-11 -45h46q4 26 17.5 35.5t31 9t36.5 -7.5t34 -14q20 -9 40 -15t42 -6q26 0 45.5 10.5t33.5 27.5t22 39t11 45z" />
    <glyph glyph-name="Adieresis" unicode="&#xc4;" horiz-adv-x="754" 
d="M427 254h-201l99 267zM707 13q-17 0 -27.5 12.5t-16.5 26.5l-261 640h-91l-254 -636q-7 -17 -17 -28.5t-29 -14.5v-13h181v13q-12 0 -22 1.5t-15.5 6t-6.5 13t4 22.5l48 126h253l49 -128q6 -14 4.5 -22.5t-7.5 -12.5t-15.5 -5t-21.5 -1v-13h245v13zM511 796
q0 26 -17.5 45t-43.5 19t-43.5 -19t-17.5 -45t17.5 -45t43.5 -19t43.5 17.5t17.5 46.5zM302 796q0 29 -17.5 46.5t-43.5 17.5t-43 -19t-17 -45t17 -45t43 -19t43.5 19t17.5 45z" />
    <glyph glyph-name="Aring" unicode="&#xc5;" horiz-adv-x="754" 
d="M427 254h-201l99 267zM707 13q-17 0 -27.5 12.5t-16.5 26.5l-261 640h-91l-254 -636q-7 -17 -17 -28.5t-29 -14.5v-13h181v13q-12 0 -22 1.5t-15.5 6t-6.5 13t4 22.5l48 126h253l49 -128q6 -14 4.5 -22.5t-7.5 -12.5t-15.5 -5t-21.5 -1v-13h245v13zM360 933
q-35 0 -58.5 -15.5t-35.5 -39.5t-12 -51t12 -51t35.5 -39.5t58.5 -15.5t58.5 15.5t35 39.5t11.5 51t-11.5 51t-35 39.5t-58.5 15.5zM360 883q28 0 41.5 -17.5t13.5 -38.5t-13.5 -38.5t-41.5 -17.5t-42 17.5t-14 38.5t14 38.5t42 17.5z" />
    <glyph glyph-name="AE" unicode="&#xc6;" horiz-adv-x="978" 
d="M455 611l8 -305h-174zM466 234l6 -179q0 -14 -3 -22t-9 -12t-15 -5.5t-21 -2.5v-13h484l23 163h-15q-20 -50 -54 -72t-88 -22h-109q-19 0 -32 3t-14 26l-5 220h114q44 0 61 -19t21 -61h14v226h-14q-5 -42 -22 -59.5t-60 -17.5h-118l-6 201q-1 20 7.5 23.5t26.5 3.5h137
q51 0 78.5 -17.5t35.5 -69.5h14l-1 156h-574v-12q7 0 17.5 -1t19 -4t12 -9.5t-2.5 -18.5l-318 -586q-8 -16 -17 -26.5t-28 -13.5v-13h178v13q-26 2 -36 9.5t4 34.5l93 177h216z" />
    <glyph glyph-name="Ccedilla" unicode="&#xc7;" horiz-adv-x="657" 
d="M590 141q-41 -38 -92.5 -58.5t-106.5 -20.5q-61 0 -103 24t-67.5 63.5t-37 90.5t-11.5 104q0 51 10.5 101.5t35 91t65 65.5t100.5 25q66 0 119 -34.5t79 -94.5q7 9 9 26.5t10 28.5l-1 130h-15q-2 -10 -8 -16.5t-17 -7.5q-2 0 -12.5 3l-23 6.5t-23.5 7l-14 4.5
q-56 18 -113 18q-81 0 -148 -26t-114.5 -73.5t-73.5 -114.5t-26 -148q0 -84 26.5 -149t75 -110t116 -68.5t149.5 -23.5q69 0 125 21.5t107 67.5l-14 11zM229 -199q24 -9 50 -14t52 -5q46 0 74.5 13t42 32t14 41t-9.5 40.5t-29 29t-45 7.5l-39 -6l39 67h-52l-50 -93l14 -16
q8 2 17 3.5t17 3.5q18 3 30.5 -8.5t14 -26.5t-11.5 -27.5t-44 -12.5q-14 0 -34 4t-32 11z" />
    <glyph glyph-name="Egrave" unicode="&#xc8;" horiz-adv-x="593" 
d="M523 0l23 163h-15q-20 -50 -54 -72t-88 -22h-133q-18 0 -32 3.5t-14 25.5v220h133q44 0 61 -19t21 -61h14v226h-14q-5 -42 -22 -59.5t-60 -17.5h-133v201q0 20 8 23.5t26 3.5h146q51 0 78.5 -17.5t35.5 -69.5h14l-1 156h-506v-13q25 0 37 -6.5t12 -34.5v-575
q0 -15 -3 -23t-9 -12t-15 -5t-22 -2v-13h512zM359 737l-28 36l-40 51.5l-40 48.5t-29 28q-21 2 -35 0t-34 -13q-3 -2 -8 -5t-8.5 -7t-4 -9t5.5 -9l150 -121h71z" />
    <glyph glyph-name="Eacute" unicode="&#xc9;" horiz-adv-x="593" 
d="M523 0l23 163h-15q-20 -50 -54 -72t-88 -22h-133q-18 0 -32 3.5t-14 25.5v220h133q44 0 61 -19t21 -61h14v226h-14q-5 -42 -22 -59.5t-60 -17.5h-133v201q0 20 8 23.5t26 3.5h146q51 0 78.5 -17.5t35.5 -69.5h14l-1 156h-506v-13q25 0 37 -6.5t12 -34.5v-575
q0 -15 -3 -23t-9 -12t-15 -5t-22 -2v-13h512zM200 737h70l151 121q6 4 5 9t-4.5 9t-9 7t-8.5 5q-19 11 -33 13t-35 0q-11 -6 -30 -28t-39.5 -48.5l-39 -51.5t-27.5 -36z" />
    <glyph glyph-name="Ecircumflex" unicode="&#xca;" horiz-adv-x="593" 
d="M523 0l23 163h-15q-20 -50 -54 -72t-88 -22h-133q-18 0 -32 3.5t-14 25.5v220h133q44 0 61 -19t21 -61h14v226h-14q-5 -42 -22 -59.5t-60 -17.5h-133v201q0 20 8 23.5t26 3.5h146q51 0 78.5 -17.5t35.5 -69.5h14l-1 156h-506v-13q25 0 37 -6.5t12 -34.5v-575
q0 -15 -3 -23t-9 -12t-15 -5t-22 -2v-13h512zM115 737h71l95 92l94 -92h71l-117 162h-96z" />
    <glyph glyph-name="Edieresis" unicode="&#xcb;" horiz-adv-x="593" 
d="M523 0l23 163h-15q-20 -50 -54 -72t-88 -22h-133q-18 0 -32 3.5t-14 25.5v220h133q44 0 61 -19t21 -61h14v226h-14q-5 -42 -22 -59.5t-60 -17.5h-133v201q0 20 8 23.5t26 3.5h146q51 0 78.5 -17.5t35.5 -69.5h14l-1 156h-506v-13q25 0 37 -6.5t12 -34.5v-575
q0 -15 -3 -23t-9 -12t-15 -5t-22 -2v-13h512zM441 806q0 26 -17.5 45t-43.5 19t-43.5 -19t-17.5 -45t17.5 -45t43.5 -19t43.5 17.5t17.5 46.5zM232 806q0 29 -17.5 46.5t-43.5 17.5t-43 -19t-17 -45t17 -45t43 -19t43.5 19t17.5 45z" />
    <glyph glyph-name="Igrave" unicode="&#xcc;" horiz-adv-x="333" 
d="M286 13q-13 0 -23 1t-16.5 4.5t-10 12t-3.5 23.5v575q0 15 3 23t9.5 12t16.5 5t23 2v13h-255v-13q13 0 23 -1t16.5 -4.5t10 -12t3.5 -23.5v-575q0 -15 -3 -23t-9.5 -12t-16.5 -5t-23 -2v-13h255v13zM237 737l-28 36l-40 51.5l-40 48.5t-29 28q-21 2 -35 0t-34 -13
q-3 -2 -8 -5t-8.5 -7t-4 -9t5.5 -9l150 -121h71z" />
    <glyph glyph-name="Iacute" unicode="&#xcd;" horiz-adv-x="332" 
d="M267 13q-13 0 -23 1t-16.5 4.5t-10 12t-3.5 23.5v575q0 15 3 23t9.5 12t16.5 5t23 2v13h-255v-13q13 0 23 -1t16.5 -4.5t10 -12t3.5 -23.5v-575q0 -15 -3 -23t-9.5 -12t-16.5 -5t-23 -2v-13h255v13zM59 737h70l151 121q6 4 5 9t-4.5 9t-9 7t-8.5 5q-19 11 -33 13t-35 0
q-11 -6 -30 -28t-39.5 -48.5l-39 -51.5t-27.5 -36z" />
    <glyph glyph-name="Icircumflex" unicode="&#xce;" horiz-adv-x="389" 
d="M304 13q-13 0 -23 1t-16.5 4.5t-10 12t-3.5 23.5v575q0 15 3 23t9.5 12t16.5 5t23 2v13h-255v-13q13 0 23 -1t16.5 -4.5t10 -12t3.5 -23.5v-575q0 -15 -3 -23t-9.5 -12t-16.5 -5t-23 -2v-13h255v13zM11 737h71l95 92l94 -92h71l-117 162h-96z" />
    <glyph glyph-name="Idieresis" unicode="&#xcf;" horiz-adv-x="389" 
d="M305 13q-13 0 -23 1t-16.5 4.5t-10 12t-3.5 23.5v575q0 15 3 23t9.5 12t16.5 5t23 2v13h-255v-13q13 0 23 -1t16.5 -4.5t10 -12t3.5 -23.5v-575q0 -15 -3 -23t-9.5 -12t-16.5 -5t-23 -2v-13h255v13zM341 806q0 26 -17.5 45t-43.5 19t-43.5 -19t-17.5 -45t17.5 -45
t43.5 -19t43.5 17.5t17.5 46.5zM132 806q0 29 -17.5 46.5t-43.5 17.5t-43 -19t-17 -45t17 -45t43 -19t43.5 19t17.5 45z" />
    <glyph glyph-name="Eth" unicode="&#xd0;" horiz-adv-x="733" 
d="M240 392v202q12 15 32 17.5t37 2.5q57 0 98.5 -23.5t68.5 -62t39.5 -87t12.5 -99.5q0 -55 -12 -104t-38.5 -86t-69 -59t-103.5 -22q-20 0 -37 4.5t-28 23.5v228h133v65h-133zM11 392v-65h79v-272q0 -27 -11 -34.5t-35 -7.5v-13h261q84 0 154.5 21t120.5 63.5t78 108
t28 154.5q0 88 -28.5 151.5t-79.5 105t-121 61t-152 19.5h-262v-11q23 2 35 -6t12 -34v-241h-79z" />
    <glyph glyph-name="Ntilde" unicode="&#xd1;" horiz-adv-x="701" 
d="M522 210l-157 237l-157 237h-195v-13q22 1 35 -15t13 -37v-551q0 -17 -2 -27t-7.5 -16t-15 -8.5t-25.5 -3.5v-12h190v12q-16 0 -26.5 2t-16.5 8t-8 16.5t-2 27.5v455l362 -525q1 -2 5 -6h94v630q0 15 2 24t7 14.5t13.5 8t22.5 3.5v13h-183v-13q27 1 39 -9.5t12 -39.5
v-412zM513 879h-47q-3 -26 -16.5 -35t-31.5 -9t-37 6.5t-34 13.5q-19 9 -39.5 15.5t-41.5 6.5q-26 0 -45.5 -10.5t-33.5 -27.5t-22 -39t-11 -45h46q4 26 17.5 35.5t31 9t36.5 -7.5t34 -14q20 -9 40 -15t42 -6q26 0 45.5 10.5t33.5 27.5t22 39t11 45z" />
    <glyph glyph-name="Ograve" unicode="&#xd2;" horiz-adv-x="749" 
d="M542 341q0 -44 -8 -94.5t-29 -93.5t-57 -71t-91 -28q-56 0 -92 28t-57 71t-29 93t-8 95q0 44 8 94.5t29 93t57 71t92 28.5q55 0 91 -28.5t57 -71t29 -93t8 -94.5zM702 341q0 78 -24 144t-68.5 113t-108.5 73.5t-144 26.5q-81 0 -145 -26t-109 -73.5t-68.5 -113
t-23.5 -144.5q0 -78 24 -143.5t69 -113t109 -73.5t144 -26q79 0 143 26.5t109 74t69 112.5t24 143zM437 737l-28 36l-40 51.5l-40 48.5t-29 28q-21 2 -35 0t-34 -13q-3 -2 -8 -5t-8.5 -7t-4 -9t5.5 -9l150 -121h71z" />
    <glyph glyph-name="Oacute" unicode="&#xd3;" horiz-adv-x="749" 
d="M542 341q0 -44 -8 -94.5t-29 -93.5t-57 -71t-91 -28q-56 0 -92 28t-57 71t-29 93t-8 95q0 44 8 94.5t29 93t57 71t92 28.5q55 0 91 -28.5t57 -71t29 -93t8 -94.5zM702 341q0 78 -24 144t-68.5 113t-108.5 73.5t-144 26.5q-81 0 -145 -26t-109 -73.5t-68.5 -113
t-23.5 -144.5q0 -78 24 -143.5t69 -113t109 -73.5t144 -26q79 0 143 26.5t109 74t69 112.5t24 143zM278 737h70l151 121q6 4 5 9t-4.5 9t-9 7t-8.5 5q-19 11 -33 13t-35 0q-11 -6 -30 -28t-39.5 -48.5l-39 -51.5t-27.5 -36z" />
    <glyph glyph-name="Ocircumflex" unicode="&#xd4;" horiz-adv-x="749" 
d="M542 341q0 -44 -8 -94.5t-29 -93.5t-57 -71t-91 -28q-56 0 -92 28t-57 71t-29 93t-8 95q0 44 8 94.5t29 93t57 71t92 28.5q55 0 91 -28.5t57 -71t29 -93t8 -94.5zM702 341q0 78 -24 144t-68.5 113t-108.5 73.5t-144 26.5q-81 0 -145 -26t-109 -73.5t-68.5 -113
t-23.5 -144.5q0 -78 24 -143.5t69 -113t109 -73.5t144 -26q79 0 143 26.5t109 74t69 112.5t24 143zM193 737h71l95 92l94 -92h71l-117 162h-96z" />
    <glyph glyph-name="Otilde" unicode="&#xd5;" horiz-adv-x="749" 
d="M542 341q0 -44 -8 -94.5t-29 -93.5t-57 -71t-91 -28q-56 0 -92 28t-57 71t-29 93t-8 95q0 44 8 94.5t29 93t57 71t92 28.5q55 0 91 -28.5t57 -71t29 -93t8 -94.5zM702 341q0 78 -24 144t-68.5 113t-108.5 73.5t-144 26.5q-81 0 -145 -26t-109 -73.5t-68.5 -113
t-23.5 -144.5q0 -78 24 -143.5t69 -113t109 -73.5t144 -26q79 0 143 26.5t109 74t69 112.5t24 143zM537 879h-47q-3 -26 -16.5 -35t-31.5 -9t-37 6.5t-34 13.5q-19 9 -39.5 15.5t-41.5 6.5q-26 0 -45.5 -10.5t-33.5 -27.5t-22 -39t-11 -45h46q4 26 17.5 35.5t31 9t36.5 -7.5
t34 -14q20 -9 40 -15t42 -6q26 0 45.5 10.5t33.5 27.5t22 39t11 45z" />
    <glyph glyph-name="Odieresis" unicode="&#xd6;" horiz-adv-x="749" 
d="M542 341q0 -44 -8 -94.5t-29 -93.5t-57 -71t-91 -28q-56 0 -92 28t-57 71t-29 93t-8 95q0 44 8 94.5t29 93t57 71t92 28.5q55 0 91 -28.5t57 -71t29 -93t8 -94.5zM702 341q0 78 -24 144t-68.5 113t-108.5 73.5t-144 26.5q-81 0 -145 -26t-109 -73.5t-68.5 -113
t-23.5 -144.5q0 -78 24 -143.5t69 -113t109 -73.5t144 -26q79 0 143 26.5t109 74t69 112.5t24 143zM511 796q0 26 -17.5 45t-43.5 19t-43.5 -19t-17.5 -45t17.5 -45t43.5 -19t43.5 17.5t17.5 46.5zM302 796q0 29 -17.5 46.5t-43.5 17.5t-43 -19t-17 -45t17 -45t43 -19
t43.5 19t17.5 45z" />
    <glyph glyph-name="multiply" unicode="&#xd7;" horiz-adv-x="532" 
d="M182 253l-171 -171l66 -66l171 171l171 -171l66 66l-171 171l171 171l-66 66l-171 -171l-171 171l-66 -66z" />
    <glyph glyph-name="Oslash" unicode="&#xd8;" horiz-adv-x="753" 
d="M514 515q16 -33 24.5 -80t8 -98t-11 -102t-33 -91t-58 -65t-85.5 -25q-85 0 -133 69zM200 172q-15 34 -23 81t-7 97.5t11.5 100t33 89t58 64t86.5 24.5q40 0 72 -16t55 -49zM611 733l-62 -84q-42 29 -91 39t-99 10q-81 0 -145.5 -26t-109.5 -73.5t-69 -113t-24 -144.5
q0 -38 6 -76t19.5 -73.5t34.5 -67.5t51 -57l-77 -104q13 -2 25.5 -7.5l24.5 -10.5l68 91q43 -29 94 -40t102 -11q81 0 145 26t109 72.5t69 112t24 145.5q0 81 -26.5 152.5t-88.5 125.5l70 96q-13 2 -25.5 7.5z" />
    <glyph glyph-name="Ugrave" unicode="&#xd9;" horiz-adv-x="696" 
d="M460 671q35 1 44.5 -11t9.5 -48v-352q0 -41 -8 -77t-27 -63t-50.5 -42.5t-77.5 -15.5q-43 0 -71.5 15t-45 40.5t-23 59t-6.5 71.5v381q0 29 14 35t39 7v13h-247v-13q23 2 34.5 -6.5t11.5 -34.5v-399q0 -66 21 -112.5t58 -76t88.5 -43.5t112.5 -14q134 0 201 68t67 202
v356q0 31 6 44.5t38 15.5v13h-189v-13zM421 737l-28 36l-40 51.5l-40 48.5t-29 28q-21 2 -35 0t-34 -13q-3 -2 -8 -5t-8.5 -7t-4 -9t5.5 -9l150 -121h71z" />
    <glyph glyph-name="Uacute" unicode="&#xda;" horiz-adv-x="696" 
d="M460 671q35 1 44.5 -11t9.5 -48v-352q0 -41 -8 -77t-27 -63t-50.5 -42.5t-77.5 -15.5q-43 0 -71.5 15t-45 40.5t-23 59t-6.5 71.5v381q0 29 14 35t39 7v13h-247v-13q23 2 34.5 -6.5t11.5 -34.5v-399q0 -66 21 -112.5t58 -76t88.5 -43.5t112.5 -14q134 0 201 68t67 202
v356q0 31 6 44.5t38 15.5v13h-189v-13zM262 737h70l151 121q6 4 5 9t-4.5 9t-9 7t-8.5 5q-19 11 -33 13t-35 0q-11 -6 -30 -28t-39.5 -48.5l-39 -51.5t-27.5 -36z" />
    <glyph glyph-name="Ucircumflex" unicode="&#xdb;" horiz-adv-x="696" 
d="M460 671q35 1 44.5 -11t9.5 -48v-352q0 -41 -8 -77t-27 -63t-50.5 -42.5t-77.5 -15.5q-43 0 -71.5 15t-45 40.5t-23 59t-6.5 71.5v381q0 29 14 35t39 7v13h-247v-13q23 2 34.5 -6.5t11.5 -34.5v-399q0 -66 21 -112.5t58 -76t88.5 -43.5t112.5 -14q134 0 201 68t67 202
v356q0 31 6 44.5t38 15.5v13h-189v-13zM177 737h71l95 92l94 -92h71l-117 162h-96z" />
    <glyph glyph-name="Udieresis" unicode="&#xdc;" horiz-adv-x="696" 
d="M460 671q35 1 44.5 -11t9.5 -48v-352q0 -41 -8 -77t-27 -63t-50.5 -42.5t-77.5 -15.5q-43 0 -71.5 15t-45 40.5t-23 59t-6.5 71.5v381q0 29 14 35t39 7v13h-247v-13q23 2 34.5 -6.5t11.5 -34.5v-399q0 -66 21 -112.5t58 -76t88.5 -43.5t112.5 -14q134 0 201 68t67 202
v356q0 31 6 44.5t38 15.5v13h-189v-13zM511 796q0 26 -17.5 45t-43.5 19t-43.5 -19t-17.5 -45t17.5 -45t43.5 -19t43.5 17.5t17.5 46.5zM302 796q0 29 -17.5 46.5t-43.5 17.5t-43 -19t-17 -45t17 -45t43 -19t43.5 19t17.5 45z" />
    <glyph glyph-name="Yacute" unicode="&#xdd;" horiz-adv-x="730" 
d="M490 671q30 -2 41.5 -13t-6.5 -41l-146 -251l-149 269q-8 14 -6.5 21.5t8 10.5t16.5 3.5t21 0.5v13h-258v-13q14 -1 25.5 -9.5t19.5 -20.5l218 -369v-217q0 -15 -3.5 -23.5t-10 -12t-16.5 -4.5t-23 -2v-13h255v13q-13 0 -23 1t-16.5 4.5t-9.5 12t-3 23.5v236l208 342
q11 18 20 27t31 12v13h-193v-13zM278 737h70l151 121q6 4 5 9t-4.5 9t-9 7t-8.5 5q-19 11 -33 13t-35 0q-11 -6 -30 -28t-39.5 -48.5l-39 -51.5t-27.5 -36z" />
    <glyph glyph-name="Thorn" unicode="&#xde;" horiz-adv-x="592" 
d="M11 671q24 1 37 -6t13 -35v-575q0 -14 -2.5 -22t-8 -12.5t-14 -5.5t-21.5 -2v-13h249v13q-24 -1 -38.5 5.5t-14.5 35.5v421q8 12 23 15t28 3q64 0 95 -33.5t31 -96.5q0 -72 -34.5 -102t-104.5 -30h-38v-70h74q49 0 96 11t83.5 35t58.5 63t22 95q0 57 -20 95t-54.5 61
t-80 32.5t-95.5 9.5h-84v66q0 15 3 23t9 12t15 5t22 2v13h-249v-13z" />
    <glyph glyph-name="germandbls" unicode="&#xdf;" horiz-adv-x="560" 
d="M176 0v541q0 21 3.5 41.5t13 37.5t25.5 27.5t41 10.5t40.5 -10.5t24.5 -27.5t12 -37.5t3 -41.5q0 -26 -3.5 -50t-13 -43t-26.5 -31t-44 -15q-3 0 -5.5 -0.5t-5.5 -1.5v-12q8 -2 12 -2q13 -2 25 -2.5t25 -5.5q22 -8 36 -28t21.5 -45.5t10 -52t2.5 -47.5t-2 -53t-10 -62
t-24.5 -51t-44.5 -21q-31 0 -44 8l-13 8l-8 -24q15 -10 38.5 -14t40.5 -4q46 0 84 15t65.5 42.5t42.5 65.5t15 84q0 43 -13.5 76t-38 57t-58 38.5t-73.5 22.5q57 14 91.5 44t47.5 66.5t5.5 75t-34.5 70t-72.5 52t-107.5 20.5q-45 0 -85 -13.5t-72 -44.5q-36 -34 -49 -80.5
t-13 -94.5v-442q0 -18 -6.5 -24.5t-23.5 -9.5v-12h165z" />
    <glyph glyph-name="agrave" unicode="&#xe0;" 
d="M317 551l-28 36l-40 51.5l-40 48.5t-29 28q-21 2 -35 0t-34 -13q-3 -2 -8 -5t-8.5 -7t-4 -9t5.5 -9l150 -121h71zM307 244v-85q0 -17 -8.5 -33t-20.5 -28q-27 -28 -66 -28q-31 0 -50 20.5t-19 46.5q0 27 22.5 53.5t75.5 38.5zM311 69q1 -11 3 -24.5t7 -24.5t13.5 -18.5
t23.5 -7.5q30 0 59.5 8.5t56.5 21.5l-7 12l-14 -9q-6 0 -9.5 12.5t-5 28.5t-1.5 31v19v200q0 49 -15 83t-42 55t-65 30.5t-84 9.5q-31 0 -61.5 -6t-58.5 -20q-14 -8 -28.5 -23t-25.5 -36q-5 -11 -9 -26.5t-5.5 -25t-1.5 -11.5l14 -1q0 1 3.5 7.5t10 16.5t12.5 17
q23 24 61 37.5t75 11t63.5 -23.5t26.5 -66v-49l-100 -21q-33 -7 -68 -18t-63.5 -29.5t-46.5 -46.5t-18 -68q0 -54 39 -91q29 -28 65.5 -35t72.5 1.5t68.5 29.5t54.5 49z" />
    <glyph glyph-name="aacute" unicode="&#xe1;" 
d="M158 551h70l151 121q6 4 5 9t-4.5 9t-9 7t-8.5 5q-19 11 -33 13t-35 0q-11 -6 -30 -28t-39.5 -48.5l-39 -51.5t-27.5 -36zM307 244v-85q0 -17 -8.5 -33t-20.5 -28q-27 -28 -66 -28q-31 0 -50 20.5t-19 46.5q0 27 22.5 53.5t75.5 38.5zM311 69q1 -11 3 -24.5t7 -24.5
t13.5 -18.5t23.5 -7.5q30 0 59.5 8.5t56.5 21.5l-7 12l-14 -9q-6 0 -9.5 12.5t-5 28.5t-1.5 31v19v200q0 49 -15 83t-42 55t-65 30.5t-84 9.5q-31 0 -61.5 -6t-58.5 -20q-14 -8 -28.5 -23t-25.5 -36q-5 -11 -9 -26.5t-5.5 -25t-1.5 -11.5l14 -1q0 1 3.5 7.5t10 16.5t12.5 17
q23 24 61 37.5t75 11t63.5 -23.5t26.5 -66v-49l-100 -21q-33 -7 -68 -18t-63.5 -29.5t-46.5 -46.5t-18 -68q0 -54 39 -91q29 -28 65.5 -35t72.5 1.5t68.5 29.5t54.5 49z" />
    <glyph glyph-name="acircumflex" unicode="&#xe2;" 
d="M73 551h71l95 92l94 -92h71l-117 162h-96zM307 244v-85q0 -17 -8.5 -33t-20.5 -28q-27 -28 -66 -28q-31 0 -50 20.5t-19 46.5q0 27 22.5 53.5t75.5 38.5zM311 69q1 -11 3 -24.5t7 -24.5t13.5 -18.5t23.5 -7.5q30 0 59.5 8.5t56.5 21.5l-7 12l-14 -9q-6 0 -9.5 12.5
t-5 28.5t-1.5 31v19v200q0 49 -15 83t-42 55t-65 30.5t-84 9.5q-31 0 -61.5 -6t-58.5 -20q-14 -8 -28.5 -23t-25.5 -36q-5 -11 -9 -26.5t-5.5 -25t-1.5 -11.5l14 -1q0 1 3.5 7.5t10 16.5t12.5 17q23 24 61 37.5t75 11t63.5 -23.5t26.5 -66v-49l-100 -21q-33 -7 -68 -18
t-63.5 -29.5t-46.5 -46.5t-18 -68q0 -54 39 -91q29 -28 65.5 -35t72.5 1.5t68.5 29.5t54.5 49z" />
    <glyph glyph-name="atilde" unicode="&#xe3;" 
d="M417 693h-47q-3 -26 -16.5 -35t-31.5 -9t-37 6.5t-34 13.5q-19 9 -39.5 15.5t-41.5 6.5q-26 0 -45.5 -10.5t-33.5 -27.5t-22 -39t-11 -45h46q4 26 17.5 35.5t31 9t36.5 -7.5t34 -14q20 -9 40 -15t42 -6q26 0 45.5 10.5t33.5 27.5t22 39t11 45zM307 244v-85
q0 -17 -8.5 -33t-20.5 -28q-27 -28 -66 -28q-31 0 -50 20.5t-19 46.5q0 27 22.5 53.5t75.5 38.5zM311 69q1 -11 3 -24.5t7 -24.5t13.5 -18.5t23.5 -7.5q30 0 59.5 8.5t56.5 21.5l-7 12l-14 -9q-6 0 -9.5 12.5t-5 28.5t-1.5 31v19v200q0 49 -15 83t-42 55t-65 30.5t-84 9.5
q-31 0 -61.5 -6t-58.5 -20q-14 -8 -28.5 -23t-25.5 -36q-5 -11 -9 -26.5t-5.5 -25t-1.5 -11.5l14 -1q0 1 3.5 7.5t10 16.5t12.5 17q23 24 61 37.5t75 11t63.5 -23.5t26.5 -66v-49l-100 -21q-33 -7 -68 -18t-63.5 -29.5t-46.5 -46.5t-18 -68q0 -54 39 -91q29 -28 65.5 -35
t72.5 1.5t68.5 29.5t54.5 49z" />
    <glyph glyph-name="adieresis" unicode="&#xe4;" 
d="M391 626q0 26 -17.5 45t-43.5 19t-43.5 -19t-17.5 -45t17.5 -45t43.5 -19t43.5 17.5t17.5 46.5zM182 626q0 29 -17.5 46.5t-43.5 17.5t-43 -19t-17 -45t17 -45t43 -19t43.5 19t17.5 45zM307 244v-85q0 -17 -8.5 -33t-20.5 -28q-27 -28 -66 -28q-31 0 -50 20.5t-19 46.5
q0 27 22.5 53.5t75.5 38.5zM311 69q1 -11 3 -24.5t7 -24.5t13.5 -18.5t23.5 -7.5q30 0 59.5 8.5t56.5 21.5l-7 12l-14 -9q-6 0 -9.5 12.5t-5 28.5t-1.5 31v19v200q0 49 -15 83t-42 55t-65 30.5t-84 9.5q-31 0 -61.5 -6t-58.5 -20q-14 -8 -28.5 -23t-25.5 -36
q-5 -11 -9 -26.5t-5.5 -25t-1.5 -11.5l14 -1q0 1 3.5 7.5t10 16.5t12.5 17q23 24 61 37.5t75 11t63.5 -23.5t26.5 -66v-49l-100 -21q-33 -7 -68 -18t-63.5 -29.5t-46.5 -46.5t-18 -68q0 -54 39 -91q29 -28 65.5 -35t72.5 1.5t68.5 29.5t54.5 49z" />
    <glyph glyph-name="aring" unicode="&#xe5;" 
d="M236 759q-35 0 -58.5 -15.5t-35.5 -39.5t-12 -51t12 -51t35.5 -39.5t58.5 -15.5t58.5 15.5t35 39.5t11.5 51t-11.5 51t-35 39.5t-58.5 15.5zM236 709q28 0 41.5 -17.5t13.5 -38.5t-13.5 -38.5t-41.5 -17.5t-42 17.5t-14 38.5t14 38.5t42 17.5zM307 244v-85
q0 -17 -8.5 -33t-20.5 -28q-27 -28 -66 -28q-31 0 -50 20.5t-19 46.5q0 27 22.5 53.5t75.5 38.5zM311 69q1 -11 3 -24.5t7 -24.5t13.5 -18.5t23.5 -7.5q30 0 59.5 8.5t56.5 21.5l-7 12l-14 -9q-6 0 -9.5 12.5t-5 28.5t-1.5 31v19v200q0 49 -15 83t-42 55t-65 30.5t-84 9.5
q-31 0 -61.5 -6t-58.5 -20q-14 -8 -28.5 -23t-25.5 -36q-5 -11 -9 -26.5t-5.5 -25t-1.5 -11.5l14 -1q0 1 3.5 7.5t10 16.5t12.5 17q23 24 61 37.5t75 11t63.5 -23.5t26.5 -66v-49l-100 -21q-33 -7 -68 -18t-63.5 -29.5t-46.5 -46.5t-18 -68q0 -54 39 -91q29 -28 65.5 -35
t72.5 1.5t68.5 29.5t54.5 49z" />
    <glyph glyph-name="ae" unicode="&#xe6;" horiz-adv-x="783" 
d="M304 244v-85q0 -17 -8.5 -32.5t-19.5 -28.5q-25 -28 -65 -28q-32 0 -49 18t-17 49q0 22 7.5 37.5t20.5 26t30.5 17t36.5 11.5zM380 439q-20 27 -49.5 40.5t-63.5 16t-67.5 -4.5t-60.5 -21q-14 -7 -31 -23t-31 -36q-8 -12 -15 -28.5t-10.5 -26.5t-4.5 -12h16q1 1 6.5 8.5
t15.5 18.5t19 17q24 17 58.5 29.5t66 12t53.5 -19t22 -63.5v-49l-98 -21q-33 -7 -67.5 -18t-63 -29.5t-46.5 -46.5t-18 -68q0 -32 13 -56t35 -40t49.5 -24t56.5 -8q54 0 103.5 25t80.5 70q29 -51 78.5 -73.5t104 -21t106.5 25.5t85 66l-13 28q-23 -25 -55.5 -43t-66.5 -22.5
t-66.5 7.5t-54.5 45q-8 12 -13.5 30.5t-9.5 38.5t-7 39.5t-4 33.5l303 2q-1 51 -11.5 97.5t-34.5 82t-63 57t-97 21.5q-42 0 -81.5 -13.5t-68.5 -43.5zM433 296q1 23 5 47.5t14 44.5t28 33t47 13q27 0 43 -14t24.5 -34.5t11.5 -44.5t4 -45h-177z" />
    <glyph glyph-name="ccedilla" unicode="&#xe7;" horiz-adv-x="462" 
d="M125 -199q24 -9 50 -14t52 -5q46 0 74.5 13t42 32t14 41t-9.5 40.5t-29 29t-45 7.5l-39 -6l29 49q43 3 83.5 20.5t67.5 52.5l-12 29q-19 -22 -49.5 -34.5t-59.5 -12.5q-41 0 -68.5 22t-45 55t-25 72.5t-7.5 74.5q0 28 6 57t19.5 53t36 39t55.5 15q17 0 38 -7t29 -24
q0 -29 11 -41t24.5 -8t25 23.5t11.5 53.5q-7 18 -22.5 29.5t-32.5 19.5q-34 16 -71 19t-72 -5t-67.5 -26t-57.5 -45q-34 -37 -51.5 -81t-20 -89.5t10.5 -89.5t39 -79.5t65 -59.5t90 -31l-42 -77l14 -16q8 2 17 3.5t17 3.5q18 3 30.5 -8.5t14 -26.5t-11.5 -27.5t-44 -12.5
q-14 0 -34 4t-32 11z" />
    <glyph glyph-name="egrave" unicode="&#xe8;" horiz-adv-x="496" 
d="M314 551l-28 36l-40 51.5l-40 48.5t-29 28q-21 2 -35 0t-34 -13q-3 -2 -8 -5t-8.5 -7t-4 -9t5.5 -9l150 -121h71zM436 79l-13 18q-26 -31 -65 -48.5t-79 -17.5q-36 0 -61 20.5t-41.5 51t-25 66.5t-11.5 67l309 2q-1 52 -12.5 98.5t-36 82t-65 56.5t-98.5 21
q-56 0 -98 -20.5t-70.5 -55.5t-43 -81.5t-14.5 -98.5q0 -56 15.5 -102.5t45.5 -79.5t74 -51.5t102 -18.5q56 0 104.5 23t83.5 68zM140 296q1 23 6 47.5t15.5 44.5t28.5 33t47 13q28 0 44.5 -13.5t25.5 -34t12 -45t4 -45.5h-183z" />
    <glyph glyph-name="eacute" unicode="&#xe9;" horiz-adv-x="496" 
d="M155 551h70l151 121q6 4 5 9t-4.5 9t-9 7t-8.5 5q-19 11 -33 13t-35 0q-11 -6 -30 -28t-39.5 -48.5l-39 -51.5t-27.5 -36zM436 79l-13 18q-26 -31 -65 -48.5t-79 -17.5q-36 0 -61 20.5t-41.5 51t-25 66.5t-11.5 67l309 2q-1 52 -12.5 98.5t-36 82t-65 56.5t-98.5 21
q-56 0 -98 -20.5t-70.5 -55.5t-43 -81.5t-14.5 -98.5q0 -56 15.5 -102.5t45.5 -79.5t74 -51.5t102 -18.5q56 0 104.5 23t83.5 68zM140 296q1 23 6 47.5t15.5 44.5t28.5 33t47 13q28 0 44.5 -13.5t25.5 -34t12 -45t4 -45.5h-183z" />
    <glyph glyph-name="ecircumflex" unicode="&#xea;" horiz-adv-x="496" 
d="M70 551h71l95 92l94 -92h71l-117 162h-96zM436 79l-13 18q-26 -31 -65 -48.5t-79 -17.5q-36 0 -61 20.5t-41.5 51t-25 66.5t-11.5 67l309 2q-1 52 -12.5 98.5t-36 82t-65 56.5t-98.5 21q-56 0 -98 -20.5t-70.5 -55.5t-43 -81.5t-14.5 -98.5q0 -56 15.5 -102.5t45.5 -79.5
t74 -51.5t102 -18.5q56 0 104.5 23t83.5 68zM140 296q1 23 6 47.5t15.5 44.5t28.5 33t47 13q28 0 44.5 -13.5t25.5 -34t12 -45t4 -45.5h-183z" />
    <glyph glyph-name="edieresis" unicode="&#xeb;" horiz-adv-x="496" 
d="M401 626q0 26 -17.5 45t-43.5 19t-43.5 -19t-17.5 -45t17.5 -45t43.5 -19t43.5 17.5t17.5 46.5zM192 626q0 29 -17.5 46.5t-43.5 17.5t-43 -19t-17 -45t17 -45t43 -19t43.5 19t17.5 45zM436 79l-13 18q-26 -31 -65 -48.5t-79 -17.5q-36 0 -61 20.5t-41.5 51t-25 66.5
t-11.5 67l309 2q-1 52 -12.5 98.5t-36 82t-65 56.5t-98.5 21q-56 0 -98 -20.5t-70.5 -55.5t-43 -81.5t-14.5 -98.5q0 -56 15.5 -102.5t45.5 -79.5t74 -51.5t102 -18.5q56 0 104.5 23t83.5 68zM140 296q1 23 6 47.5t15.5 44.5t28.5 33t47 13q28 0 44.5 -13.5t25.5 -34t12 -45
t4 -45.5h-183z" />
    <glyph glyph-name="igrave" unicode="&#xec;" horiz-adv-x="245" 
d="M192 12q-13 0 -14 13.5t-1 22.5v437q-42 2 -83 -1t-83 -5v-6l15 -6q12 0 14.5 -13.5t2.5 -21.5v-383q0 -19 -6 -28t-25 -9v-12h180v12zM186 551l-28 36l-40 51.5l-40 48.5t-29 28q-21 2 -35.5 0t-33.5 -13q-4 -2 -8.5 -5t-7.5 -7t-3 -9t5 -9l149 -121h71z" />
    <glyph glyph-name="iacute" unicode="&#xed;" horiz-adv-x="255" 
d="M212 12q-13 0 -24 13.5t-11 22.5v437q-42 2 -83 -1t-83 -5v-6l15 -6q12 0 14.5 -13.5t2.5 -21.5v-383q0 -19 -6 -28t-25 -9v-12h200v12zM27 551h70l151 121q6 4 5 9t-4.5 9t-9 7t-8.5 5q-19 11 -33 13t-35 0q-11 -6 -30 -28t-39.5 -48.5l-39 -51.5t-27.5 -36z" />
    <glyph glyph-name="icircumflex" unicode="&#xee;" horiz-adv-x="246" 
d="M200 12q-13 0 -14 13.5t-1 22.5v437q-42 2 -83 -1t-83 -5v-6l15 -6q12 0 14.5 -13.5t2.5 -21.5v-383q0 -19 -6 -28t-25 -9v-12h180v12zM-49 551h70l95 92l94 -92h71l-117 162h-96z" />
    <glyph glyph-name="idieresis" unicode="&#xef;" horiz-adv-x="256" 
d="M201 12q-13 0 -14 13.5t-1 22.5v437q-42 2 -83 -1t-83 -5v-6l15 -6q12 0 14.5 -13.5t2.5 -21.5v-383q0 -19 -6 -28t-25 -9v-12h180v12zM281 626q0 26 -17.5 45t-43.5 19t-43.5 -19t-17.5 -45t17.5 -45t43.5 -19t43.5 17.5t17.5 46.5zM72 626q0 29 -17.5 46.5t-43.5 17.5
t-43 -19t-17 -45t17 -45t43 -19t43.5 19t17.5 45z" />
    <glyph glyph-name="eth" unicode="&#xf0;" horiz-adv-x="550" 
d="M353 441q-21 26 -51 37t-62 11q-55 0 -98 -22t-72.5 -58t-45 -82t-15 -94t17.5 -94t53 -82q36 -37 81 -53.5t96 -16.5q67 0 113.5 25.5t76 67.5t43 97t13.5 114q0 80 -23.5 153t-77.5 133q-14 16 -29.5 30l-32.5 28l89 49l-46 41l-98 -54q-34 20 -71.5 32.5t-75.5 20.5
l-55 -48q31 -8 60.5 -20.5t56.5 -30.5l-104 -57l48 -40l108 59q32 -32 59.5 -67.5t41.5 -78.5zM257 425q34 0 55 -20t31.5 -49t14 -62t3.5 -58t-3 -57t-13.5 -60.5t-31 -48t-54.5 -19.5q-35 0 -56 18.5t-32 45.5t-15 58.5t-4 57.5t3 59.5t13.5 63.5t31.5 50.5t57 20.5z" />
    <glyph glyph-name="ntilde" unicode="&#xf1;" horiz-adv-x="543" 
d="M493 12q-4 0 -6 5t-2.5 11t-0.5 12v8v275q0 49 -16 84.5t-42.5 57t-60 29t-68 0.5t-67.5 -28t-58 -57v76q-40 2 -80.5 -0.5t-80.5 -4.5v-9l14 -6q5 0 8.5 -4t5.5 -9.5t2.5 -11.5t0.5 -10v-381q0 -19 -5.5 -28t-24.5 -9v-12h178v12q-6 0 -9 4t-4 10t-1 12v10v255q0 4 3 15
t5 16q11 33 34.5 54.5t60.5 21.5q21 0 35 -9t22 -23.5t11 -32t3 -35.5v-261q0 -17 -5 -27t-23 -10v-12h174zM439 693h-47q-3 -26 -16.5 -35t-31.5 -9t-37 6.5t-34 13.5q-19 9 -39.5 15.5t-41.5 6.5q-26 0 -45.5 -10.5t-33.5 -27.5t-22 -39t-11 -45h46q4 26 17.5 35.5t31 9
t36.5 -7.5t34 -14q20 -9 40 -15t42 -6q26 0 45.5 10.5t33.5 27.5t22 39t11 45z" />
    <glyph glyph-name="ograve" unicode="&#xf2;" horiz-adv-x="551" 
d="M504 241q0 85 -36.5 141.5t-91.5 84.5t-119 28q-63 0 -118 -28t-91.5 -84.5t-36.5 -141.5t36.5 -141t91.5 -84t118 -28q64 0 119 28.5t91.5 84.5t36.5 140zM363 241q0 -26 -3 -59t-13.5 -62t-31 -49t-56.5 -20t-57 19.5t-32 48.5t-14.5 62t-3.5 60q0 26 3 59t13.5 62.5
t31 49.5t56.5 20q35 0 56 -20t32.5 -49.5t15 -62.5t3.5 -59zM337 551l-28 36l-40 51.5l-40 48.5t-29 28q-21 2 -35 0t-34 -13q-3 -2 -8 -5t-8.5 -7t-4 -9t5.5 -9l150 -121h71z" />
    <glyph glyph-name="oacute" unicode="&#xf3;" horiz-adv-x="551" 
d="M504 241q0 85 -36.5 141.5t-91.5 84.5t-119 28q-63 0 -118 -28t-91.5 -84.5t-36.5 -141.5t36.5 -141t91.5 -84t118 -28q64 0 119 28.5t91.5 84.5t36.5 140zM363 241q0 -26 -3 -59t-13.5 -62t-31 -49t-56.5 -20t-57 19.5t-32 48.5t-14.5 62t-3.5 60q0 26 3 59t13.5 62.5
t31 49.5t56.5 20q35 0 56 -20t32.5 -49.5t15 -62.5t3.5 -59zM178 551h70l151 121q6 4 5 9t-4.5 9t-9 7t-8.5 5q-19 11 -33 13t-35 0q-11 -6 -30 -28t-39.5 -48.5l-39 -51.5t-27.5 -36z" />
    <glyph glyph-name="ocircumflex" unicode="&#xf4;" horiz-adv-x="551" 
d="M504 241q0 85 -36.5 141.5t-91.5 84.5t-119 28q-63 0 -118 -28t-91.5 -84.5t-36.5 -141.5t36.5 -141t91.5 -84t118 -28q64 0 119 28.5t91.5 84.5t36.5 140zM363 241q0 -26 -3 -59t-13.5 -62t-31 -49t-56.5 -20t-57 19.5t-32 48.5t-14.5 62t-3.5 60q0 26 3 59t13.5 62.5
t31 49.5t56.5 20q35 0 56 -20t32.5 -49.5t15 -62.5t3.5 -59zM93 551h71l95 92l94 -92h71l-117 162h-96z" />
    <glyph glyph-name="otilde" unicode="&#xf5;" horiz-adv-x="551" 
d="M504 241q0 85 -36.5 141.5t-91.5 84.5t-119 28q-63 0 -118 -28t-91.5 -84.5t-36.5 -141.5t36.5 -141t91.5 -84t118 -28q64 0 119 28.5t91.5 84.5t36.5 140zM363 241q0 -26 -3 -59t-13.5 -62t-31 -49t-56.5 -20t-57 19.5t-32 48.5t-14.5 62t-3.5 60q0 26 3 59t13.5 62.5
t31 49.5t56.5 20q35 0 56 -20t32.5 -49.5t15 -62.5t3.5 -59zM437 693h-47q-3 -26 -16.5 -35t-31.5 -9t-37 6.5t-34 13.5q-19 9 -39.5 15.5t-41.5 6.5q-26 0 -45.5 -10.5t-33.5 -27.5t-22 -39t-11 -45h46q4 26 17.5 35.5t31 9t36.5 -7.5t34 -14q20 -9 40 -15t42 -6
q26 0 45.5 10.5t33.5 27.5t22 39t11 45z" />
    <glyph glyph-name="odieresis" unicode="&#xf6;" horiz-adv-x="551" 
d="M504 241q0 85 -36.5 141.5t-91.5 84.5t-119 28q-63 0 -118 -28t-91.5 -84.5t-36.5 -141.5t36.5 -141t91.5 -84t118 -28q64 0 119 28.5t91.5 84.5t36.5 140zM363 241q0 -26 -3 -59t-13.5 -62t-31 -49t-56.5 -20t-57 19.5t-32 48.5t-14.5 62t-3.5 60q0 26 3 59t13.5 62.5
t31 49.5t56.5 20q35 0 56 -20t32.5 -49.5t15 -62.5t3.5 -59zM421 626q0 26 -17.5 45t-43.5 19t-43.5 -19t-17.5 -45t17.5 -45t43.5 -19t43.5 17.5t17.5 46.5zM212 626q0 29 -17.5 46.5t-43.5 17.5t-43 -19t-17 -45t17 -45t43 -19t43.5 19t17.5 45z" />
    <glyph glyph-name="divide" unicode="&#xf7;" horiz-adv-x="562" 
d="M334 458q0 29 -20.5 50t-49.5 21t-50 -21t-21 -50t21 -49.5t50 -20.5t49.5 17t20.5 53zM515 206v94h-504v-94h504zM334 48q0 29 -20.5 50t-49.5 21t-50 -21t-21 -50t21 -49t50 -20t49.5 20t20.5 49z" />
    <glyph glyph-name="oslash" unicode="&#xf8;" horiz-adv-x="554" 
d="M444 552l-60 -87q-28 18 -60.5 24.5t-64.5 6.5q-58 0 -104.5 -22t-78.5 -57.5t-49 -82t-17.5 -95t17 -95.5t54.5 -85q3 -3 6.5 -6t6.5 -6l-70 -101l45 -16l63 89q29 -18 61.5 -24.5t65.5 -6.5q59 0 105.5 22t78.5 58t49 82t17 94q0 49 -17.5 95.5t-54.5 83.5l-15 15
l67 97zM354 341q6 -20 9.5 -49t3.5 -62q0 -32 -5 -64t-17.5 -57.5t-33 -41.5t-50.5 -16q-53 0 -78 43zM163 145q-6 19 -9.5 48t-3 61t6 64t18 57t32.5 41t50 16q24 0 43.5 -9.5t32.5 -30.5z" />
    <glyph glyph-name="ugrave" unicode="&#xf9;" horiz-adv-x="556" 
d="M481 484h-170v-12q19 0 27.5 -5.5t8.5 -26.5v-264q0 -21 -9 -40t-24 -34q-23 -22 -47.5 -29t-45.5 1.5t-34.5 31t-13.5 59.5v319h-162v-12q18 0 23 -7t5 -25v-285q0 -50 16.5 -84.5t43.5 -54.5t61 -26.5t69 0.5t67.5 27t55.5 52v-75q7 -1 28 1.5t45.5 6l48 7t35.5 4.5
l-1 12q-17 -1 -22 8t-5 24v427zM339 551l-28 36l-40 51.5l-40 48.5t-29 28q-21 2 -35 0t-34 -13q-3 -2 -8 -5t-8.5 -7t-4 -9t5.5 -9l150 -121h71z" />
    <glyph glyph-name="uacute" unicode="&#xfa;" horiz-adv-x="556" 
d="M481 484h-170v-12q19 0 27.5 -5.5t8.5 -26.5v-264q0 -21 -9 -40t-24 -34q-23 -22 -47.5 -29t-45.5 1.5t-34.5 31t-13.5 59.5v319h-162v-12q18 0 23 -7t5 -25v-285q0 -50 16.5 -84.5t43.5 -54.5t61 -26.5t69 0.5t67.5 27t55.5 52v-75q7 -1 28 1.5t45.5 6l48 7t35.5 4.5
l-1 12q-17 -1 -22 8t-5 24v427zM180 551h70l151 121q6 4 5 9t-4.5 9t-9 7t-8.5 5q-19 11 -33 13t-35 0q-11 -6 -30 -28t-39.5 -48.5l-39 -51.5t-27.5 -36z" />
    <glyph glyph-name="ucircumflex" unicode="&#xfb;" horiz-adv-x="556" 
d="M481 484h-170v-12q19 0 27.5 -5.5t8.5 -26.5v-264q0 -21 -9 -40t-24 -34q-23 -22 -47.5 -29t-45.5 1.5t-34.5 31t-13.5 59.5v319h-162v-12q18 0 23 -7t5 -25v-285q0 -50 16.5 -84.5t43.5 -54.5t61 -26.5t69 0.5t67.5 27t55.5 52v-75q7 -1 28 1.5t45.5 6l48 7t35.5 4.5
l-1 12q-17 -1 -22 8t-5 24v427zM95 551h71l95 92l94 -92h71l-117 162h-96z" />
    <glyph glyph-name="udieresis" unicode="&#xfc;" horiz-adv-x="556" 
d="M481 484h-170v-12q19 0 27.5 -5.5t8.5 -26.5v-264q0 -21 -9 -40t-24 -34q-23 -22 -47.5 -29t-45.5 1.5t-34.5 31t-13.5 59.5v319h-162v-12q18 0 23 -7t5 -25v-285q0 -50 16.5 -84.5t43.5 -54.5t61 -26.5t69 0.5t67.5 27t55.5 52v-75q7 -1 28 1.5t45.5 6l48 7t35.5 4.5
l-1 12q-17 -1 -22 8t-5 24v427zM421 626q0 26 -17.5 45t-43.5 19t-43.5 -19t-17.5 -45t17.5 -45t43.5 -19t43.5 17.5t17.5 46.5zM212 626q0 29 -17.5 46.5t-43.5 17.5t-43 -19t-17 -45t17 -45t43 -19t43.5 19t17.5 45z" />
    <glyph glyph-name="yacute" unicode="&#xfd;" horiz-adv-x="559" 
d="M365 472q17 0 25.5 -6.5t2.5 -24.5l-98 -291l-109 299q-5 14 7 18.5t22 4.5v12h-204v-12q10 0 17 -5.5t12 -13.5t8 -17.5t6 -17.5l170 -431l-11.5 -35t-16.5 -37.5t-24.5 -30t-34.5 -12.5q-10 0 -19 9q-5 15 -21.5 24.5t-30.5 11.5q-8 -5 -15.5 -14.5t-12.5 -21.5t-8 -24
t-3 -21q0 -13 11.5 -22t27 -15t31.5 -8.5t25 -2.5q37 0 63.5 12.5t46 34t33.5 49.5t26 59l189 496q5 13 11 22t21 11v12h-147v-12zM182 551h70l151 121q6 4 5 9t-4.5 9t-9 7t-8.5 5q-19 11 -33 13t-35 0q-11 -6 -30 -28t-39.5 -48.5l-39 -51.5t-27.5 -36z" />
    <glyph glyph-name="thorn" unicode="&#xfe;" horiz-adv-x="566" 
d="M178 53q24 -33 57.5 -49t74.5 -16q52 0 92 23t66 60t39.5 84.5t13 96t-14.5 94.5t-41 81q-29 36 -68.5 53.5t-80.5 16t-78 -22.5t-60 -63v298q-42 2 -83.5 -0.5t-83.5 -4.5v-6l15 -6q6 0 10 -3.5t5.5 -9t2 -12t0.5 -10.5v-815q0 -21 -6.5 -29t-26.5 -8v-12h211v12
q-20 0 -32 6t-12 31v211zM178 176v127q0 30 15 55.5t37 40.5t48.5 17t48.5 -15t37 -55.5t15 -104.5q0 -64 -15 -102.5t-37 -56.5t-49 -18q-26 0 -48 14t-37 39.5t-15 58.5z" />
    <glyph glyph-name="ydieresis" unicode="&#xff;" horiz-adv-x="559" 
d="M365 472q17 0 25.5 -6.5t2.5 -24.5l-98 -291l-109 299q-5 14 7 18.5t22 4.5v12h-204v-12q10 0 17 -5.5t12 -13.5t8 -17.5t6 -17.5l170 -431l-11.5 -35t-16.5 -37.5t-24.5 -30t-34.5 -12.5q-10 0 -19 9q-5 15 -21.5 24.5t-30.5 11.5q-8 -5 -15.5 -14.5t-12.5 -21.5t-8 -24
t-3 -21q0 -13 11.5 -22t27 -15t31.5 -8.5t25 -2.5q37 0 63.5 12.5t46 34t33.5 49.5t26 59l189 496q5 13 11 22t21 11v12h-147v-12zM441 596q0 26 -17.5 45t-43.5 19t-43.5 -19t-17.5 -45t17.5 -45t43.5 -19t43.5 17.5t17.5 46.5zM232 596q0 29 -17.5 46.5t-43.5 17.5
t-43 -19t-17 -45t17 -45t43 -19t43.5 19t17.5 45z" />
    <glyph glyph-name="nonmarkingreturn" unicode="&#xe000;" horiz-adv-x="301" 
 />
    <glyph glyph-name="Delta" unicode="&#xe001;" horiz-adv-x="695" 
d="M573 326q0 26 -17.5 45t-43.5 19t-43.5 -19t-17.5 -45t17.5 -45t43.5 -19t43.5 17.5t17.5 46.5zM506 52l-14 53q-10 -13 -26 -22.5t-32 -9.5q-32 0 -42.5 19t-10.5 47v276h106v69h-106v156l-13 1l-61 -20q-10 -18 -20 -43t-18 -47.5t-13 -38.5l-5 -16l-78 -3v-58h74v-285
q0 -45 15 -74.5t39 -46t53.5 -20.5t58 2.5t53.5 22t40 38.5zM204 326q0 29 -17.5 46.5t-43.5 17.5t-43 -19t-17 -45t17 -45t43 -19t43.5 19t17.5 45zM410 -55l-39 -6l39 67h-52l-50 -93l14 -16q8 2 17 3.5t17 3.5q18 3 30.5 -8.5t14 -26.5t-11.5 -27.5t-44 -12.5
q-14 0 -34 4t-32 11l-18 -43q24 -9 50 -14t52 -5q46 0 74.5 13t42 32t14 41t-9.5 40.5t-29 29t-45 7.5zM520 280h-2q-11 0 -11 11t11 11h2q11 0 11 -11t-11 -11zM153 282q0 -11 -11 -11t-11 11t11 11t11 -11z" />
    <glyph glyph-name="lozenge" unicode="&#xe002;" horiz-adv-x="506" 
d="M265 0l194 377l-194 368h-60l-194 -368l194 -377h60zM399 377l-164 -323l-164 323l164 314z" />
    <glyph glyph-name="apple" unicode="&#xe003;" horiz-adv-x="819" 
d="M712 556q0 26 -17.5 45t-43.5 19t-43.5 -19t-17.5 -45t17.5 -45t43.5 -19t43.5 17.5t17.5 46.5zM475 0v12q-13 0 -14 13.5t-1 22.5v661q-42 2 -83 -0.5t-83 -4.5v-6l15 -6q12 0 14.5 -13.5t2.5 -21.5v-608q0 -19 -6 -28t-25 -9v-12h180zM203 556q0 29 -17.5 46.5
t-43.5 17.5t-43 -19t-17 -45t17 -45t43 -19t43.5 19t17.5 45zM421 -55l-39 -6l39 67h-52l-50 -93l14 -16q8 2 17 3.5t17 3.5q18 3 30.5 -8.5t14 -26.5t-11.5 -27.5t-44 -12.5q-14 0 -34 4t-32 11l-18 -43q24 -9 50 -14t52 -5q46 0 74.5 13t42 32t14 41t-9.5 40.5t-29 29
t-45 7.5zM641 594q0 -11 -11 -11t-11 11t11 11t11 -11zM129 594q0 -11 -11 -11t-11 11t11 11t11 -11z" />
    <glyph glyph-name="Delta" unicode="&#xe004;" horiz-adv-x="660" 
d="M317 535l-198 -426h373zM295 429l120 -289h-255zM531 556q0 26 -17.5 45t-43.5 19t-43.5 -19t-17.5 -45t17.5 -45t43.5 -19t43.5 17.5t17.5 46.5zM222 556q0 29 -17.5 46.5t-43.5 17.5t-43 -19t-17 -45t17 -45t43 -19t43.5 19t17.5 45z" />
    </font>
</defs>
</svg>
