<?xml version="1.0" standalone="no"?>
<!DOCTYPE svg PUBLIC "-//W3C//DTD SVG 20010904//EN"
 "http://www.w3.org/TR/2001/REC-SVG-20010904/DTD/svg10.dtd">
<svg version="1.0" xmlns="http://www.w3.org/2000/svg"
 width="718.000000pt" height="604.000000pt" viewBox="0 0 718.000000 604.000000"
 preserveAspectRatio="xMidYMid meet">
<metadata>
Created by potrace 1.15, written by Peter Selinger 2001-2017
</metadata>
<g transform="translate(0.000000,604.000000) scale(0.100000,-0.100000)"
fill="#000000" stroke="none">
<path d="M1050 5164 c-179 -167 -326 -309 -328 -316 -1 -7 180 -195 402 -417
l405 -405 128 121 c70 66 137 131 148 143 11 12 78 77 148 143 93 88 131 117
137 108 4 -8 14 -41 21 -74 l13 -61 -125 -119 -124 -118 -50 6 -50 5 35 -13
c33 -13 233 -98 275 -117 11 -5 61 -13 110 -19 50 -6 100 -12 112 -15 13 -3
25 -1 28 3 11 18 114 11 152 -10 75 -42 80 -42 118 -3 25 25 43 35 62 34 16
-1 45 -2 66 -3 20 -1 37 -6 37 -10 0 -5 14 2 31 14 17 12 49 23 70 25 22 2 43
5 48 9 5 3 20 1 33 -4 13 -5 31 -5 39 -1 8 5 48 11 89 15 41 4 79 9 84 12 4 3
33 5 63 4 30 0 63 3 72 9 19 10 79 -6 94 -25 4 -6 10 -5 16 4 8 12 12 12 25 2
9 -8 16 -10 16 -5 0 5 6 2 13 -6 14 -19 21 -18 68 2 56 24 149 49 159 43 6 -3
10 -2 10 4 0 6 23 10 56 9 50 -2 58 0 70 22 7 14 13 20 14 13 0 -6 9 -11 21
-10 14 1 19 7 15 20 -3 13 0 17 9 13 7 -2 15 4 18 15 3 12 11 17 20 13 8 -3
18 -1 22 5 3 6 17 11 31 11 24 0 26 -3 26 -62 1 -19 7 -27 24 -31 13 -2 24 0
24 5 0 5 5 6 12 2 6 -4 16 -1 22 7 7 8 32 33 58 57 42 40 59 49 99 51 8 1 32
17 54 36 32 30 43 35 69 30 19 -4 26 -3 18 3 -9 6 -5 12 15 22 15 7 34 12 41
11 6 -1 12 3 12 9 0 5 10 10 23 10 13 0 32 7 43 15 10 8 25 15 33 15 7 0 28
12 46 28 17 15 40 33 51 39 20 14 -18 0 -86 -30 -19 -8 -107 -38 -195 -66 -88
-28 -173 -60 -189 -70 -22 -15 -41 -18 -85 -14 -70 6 -441 -61 -616 -111 -27
-8 -111 -17 -185 -21 -74 -3 -153 -10 -175 -15 -22 -5 -96 -14 -165 -20 -69
-5 -155 -17 -192 -27 -55 -14 -74 -14 -106 -5 -22 7 -75 12 -118 12 -141 0
-589 29 -616 39 l-27 10 81 78 c45 43 96 93 115 111 37 37 48 35 58 -7 11 -52
63 -73 113 -47 30 15 31 15 51 -12 15 -20 23 -24 31 -16 7 7 10 20 8 30 -2 12
6 25 23 35 18 12 28 29 32 55 19 115 -5 201 -80 286 -29 32 -53 67 -53 77 0
12 14 23 41 34 l42 16 -5 49 c-3 27 -18 78 -35 114 -24 52 -43 74 -91 111 -33
26 -65 47 -71 47 -6 0 -11 6 -11 14 0 19 -28 28 -51 16 -20 -11 -26 -30 -9
-30 21 0 9 -20 -15 -26 -30 -7 -31 -25 -13 -170 6 -52 8 -97 5 -100 -3 -4
-147 128 -319 292 -173 165 -325 309 -338 320 l-25 22 -325 -304z m1205 -137
c63 -69 95 -178 61 -206 -22 -19 -72 5 -90 44 -9 18 -27 73 -40 122 -13 48
-27 97 -31 107 -8 19 -8 19 24 0 18 -10 53 -40 76 -67z m-71 -134 c8 -27 21
-64 30 -84 12 -28 14 -62 10 -165 -3 -71 -8 -135 -10 -143 -8 -26 -33 9 -45
65 -12 51 -11 57 10 85 l23 31 -25 26 c-36 38 -63 185 -39 213 24 28 30 24 46
-28z m135 -255 c20 -22 44 -56 53 -76 20 -42 24 -152 8 -183 -12 -22 -56 -25
-80 -6 -38 31 -43 48 -47 168 -6 167 -3 172 66 97z"/>
<path d="M2577 5397 c-9 -24 100 -634 119 -664 9 -14 24 -23 40 -23 23 0 25 3
20 23 -16 51 -19 50 144 80 85 16 156 31 158 32 6 5 -101 549 -109 559 -6 7
-232 -27 -336 -51 -18 -4 -22 0 -25 29 -2 26 -5 29 -11 15z"/>
<path d="M4671 4078 c-1 -142 -2 -147 -27 -177 -14 -17 -22 -31 -17 -31 5 0
10 -11 11 -25 2 -26 -21 -35 -34 -13 -5 7 -3 8 6 3 9 -6 11 -4 5 5 -6 10 -11
9 -21 -4 -10 -14 -17 -15 -33 -7 -25 14 -34 14 -26 1 3 -5 2 -10 -4 -10 -6 0
-8 -8 -5 -17 4 -12 -1 -10 -15 7 -18 21 -20 22 -15 5 4 -15 4 -17 -4 -6 -6 9
-7 23 -1 38 6 17 5 23 -6 23 -8 0 -12 6 -9 15 7 17 -13 82 -28 91 -7 4 -8 2
-4 -4 11 -19 -35 -14 -56 5 -10 9 -18 11 -18 5 0 -6 -11 -9 -26 -6 -21 4 -25
2 -20 -12 5 -14 1 -15 -31 -9 -21 4 -43 11 -49 16 -6 5 -15 4 -22 -3 -9 -9
-12 -9 -12 1 0 8 -6 11 -16 7 -14 -5 -15 -4 -4 9 7 9 10 18 6 22 -3 3 -6 2 -6
-3 0 -5 -11 -10 -25 -10 -15 -1 -22 2 -18 9 4 6 0 8 -10 4 -10 -4 -20 0 -26
11 -9 15 -10 14 -11 -5 0 -13 -4 -23 -10 -23 -5 0 -10 4 -10 9 0 5 -10 9 -22
9 -32 0 -122 19 -188 39 -73 23 -194 23 -239 0 -20 -10 -57 -17 -90 -17 -31 0
-67 -7 -81 -15 -14 -8 -32 -17 -40 -20 -8 -3 -37 -17 -65 -31 -27 -13 -73 -31
-102 -39 -48 -14 -146 -84 -165 -118 -4 -7 -28 -28 -55 -46 -51 -35 -83 -90
-140 -241 -22 -59 -24 -71 -15 -130 6 -36 14 -74 18 -84 5 -13 4 -17 -3 -13
-6 4 -14 1 -16 -5 -4 -10 -8 -10 -15 1 -6 8 -12 9 -16 3 -3 -5 -25 -8 -48 -7
-59 3 -58 3 -58 21 0 8 -5 12 -11 9 -5 -4 -22 -4 -36 0 -19 4 -24 11 -20 26 5
17 2 20 -14 16 -10 -3 -22 -1 -25 4 -3 6 -14 7 -23 4 -11 -3 -24 2 -32 12 -13
17 -13 17 5 3 16 -13 20 -12 31 4 8 10 19 15 26 10 8 -5 10 -3 4 5 -4 7 -18
11 -30 9 -18 -4 -22 -1 -17 11 4 13 3 14 -9 5 -24 -19 -79 -34 -79 -22 0 7 -4
7 -13 -1 -8 -6 -17 -8 -21 -4 -4 4 -4 -1 0 -11 5 -14 9 -15 15 -4 7 11 9 11 9
0 0 -7 -7 -20 -15 -29 -14 -13 -16 -11 -22 17 -6 32 -6 32 -18 10 -7 -13 -15
-18 -19 -12 -3 6 0 13 6 15 10 4 9 6 -1 6 -8 1 -23 -7 -33 -16 -18 -16 -24
-16 -104 0 -76 16 -123 31 -176 58 -10 5 -25 9 -33 9 -9 0 -32 7 -53 17 -20 9
-40 15 -44 15 -5 -1 -8 2 -8 8 0 5 -7 10 -16 10 -8 0 -13 4 -10 9 3 5 -1 11
-9 15 -12 4 -15 -5 -15 -50 0 -56 0 -56 -27 -50 -19 4 -23 3 -13 -3 8 -5 47
-16 85 -26 147 -35 428 -119 625 -186 113 -38 234 -75 270 -82 l65 -13 12 -44
c7 -25 19 -64 27 -87 12 -32 15 -84 14 -230 0 -104 3 -199 6 -211 5 -16 3 -24
-10 -29 -22 -8 -54 30 -54 66 0 32 -49 83 -100 104 -19 8 -70 23 -113 32 -56
12 -77 21 -73 30 5 15 -20 29 -35 19 -5 -3 -9 -1 -9 3 0 5 -22 7 -50 6 -27 -2
-50 1 -50 6 0 12 -49 20 -56 9 -3 -5 -13 -6 -23 -3 -32 14 -149 33 -266 45
-66 6 -159 17 -206 25 -47 8 -106 15 -130 15 -24 1 -62 5 -84 9 -22 5 -78 16
-125 25 -137 26 -169 35 -275 73 -114 40 -201 79 -263 118 -23 14 -42 24 -42
21 0 -12 145 -93 252 -142 66 -30 133 -63 149 -74 17 -13 30 -16 34 -10 14 22
63 9 126 -35 35 -25 69 -45 76 -45 6 0 33 -18 58 -40 25 -22 51 -40 56 -40 14
0 99 -81 99 -95 0 -6 -8 -19 -18 -28 -10 -10 -33 -38 -51 -65 l-33 -47 47 50
46 50 16 -22 c8 -13 24 -23 35 -23 12 0 24 -12 33 -32 8 -20 26 -38 45 -47 19
-8 37 -26 45 -45 8 -17 22 -36 33 -43 11 -6 28 -34 38 -62 10 -30 26 -53 36
-57 10 -3 26 -17 35 -30 15 -24 93 -67 153 -84 25 -7 32 -5 40 11 12 22 35 24
71 5 14 -7 42 -16 61 -20 19 -3 78 -29 130 -56 53 -28 102 -50 109 -50 7 0 21
-7 31 -17 17 -15 19 -15 39 3 12 10 35 37 52 58 22 28 26 36 11 29 -28 -15
-72 -14 -134 4 -30 9 -59 16 -63 14 -17 -4 -123 54 -142 78 -24 29 -55 90 -55
107 0 27 -113 104 -141 97 -4 -1 -29 19 -57 45 -72 68 -143 185 -124 204 6 6
16 2 26 -8 27 -26 41 -4 25 40 -7 20 -17 36 -21 36 -10 0 -11 37 0 44 14 8 99
-13 158 -40 32 -15 79 -33 104 -40 25 -7 78 -22 118 -33 68 -20 121 -31 167
-34 23 -2 55 -38 55 -61 0 -9 9 -25 20 -36 11 -11 17 -20 13 -20 -5 0 -1 -5 7
-10 12 -8 12 -10 1 -10 -11 0 -11 -3 -1 -15 7 -8 19 -15 26 -15 8 0 14 -7 14
-15 0 -10 7 -15 18 -13 10 2 16 -2 14 -11 -1 -7 6 -20 16 -30 26 -22 47 -71
47 -103 -1 -16 2 -28 6 -28 4 0 12 -14 18 -30 9 -26 7 -33 -12 -52 -12 -11
-17 -18 -11 -15 6 4 34 9 61 12 49 5 50 4 71 -33 12 -22 19 -47 16 -59 -3 -11
-1 -24 5 -27 7 -4 11 1 11 13 0 28 6 27 51 -14 22 -19 46 -35 54 -35 8 0 15
-4 15 -10 0 -5 7 -10 15 -10 8 0 23 -9 32 -20 10 -11 23 -20 30 -20 7 0 13 -4
13 -10 0 -14 42 -50 52 -44 5 3 15 1 22 -5 7 -6 33 -14 56 -17 24 -3 59 -13
79 -21 41 -18 118 -27 141 -17 8 4 18 8 23 9 4 2 8 4 10 5 1 1 13 3 27 4 14 0
31 5 39 10 10 7 12 6 6 -4 -5 -9 -2 -10 14 -5 25 7 54 -20 46 -42 -7 -21 3
-15 16 8 9 17 8 20 -2 14 -8 -5 -10 -4 -5 4 4 6 12 9 17 5 14 -8 59 23 59 41
0 8 16 18 38 24 128 33 149 37 182 30 67 -15 87 9 65 75 -9 26 -10 36 -1 37 6
1 -9 7 -34 15 -43 13 -41 13 60 9 158 -6 208 -28 213 -94 1 -17 6 -31 10 -31
4 0 25 18 46 39 36 37 73 52 121 49 8 0 41 16 74 35 32 20 88 46 123 58 l65
21 -7 52 c-3 28 -13 76 -20 107 -19 77 -25 133 -29 276 -4 141 -9 134 109 153
28 4 64 12 82 18 17 6 33 8 36 6 2 -3 17 0 33 7 45 17 191 42 269 46 39 2 90
6 114 9 31 5 42 3 37 -5 -4 -6 29 7 73 30 45 23 81 46 81 53 0 6 10 17 21 24
18 12 26 11 54 -3 l31 -18 130 72 c167 94 178 106 32 36 -86 -40 -133 -57
-179 -62 -41 -4 -70 -13 -88 -28 -14 -12 -39 -27 -56 -33 -39 -15 -163 -34
-175 -27 -5 3 -18 1 -28 -4 -11 -6 -50 -12 -88 -15 -104 -8 -253 -33 -269 -46
-5 -5 -50 -10 -100 -11 -49 -2 -93 -8 -96 -13 -4 -4 -24 -10 -44 -13 -21 -2
-45 -8 -55 -13 -9 -5 -27 -6 -40 -3 -15 4 -21 2 -16 -5 8 -14 -29 -25 -75 -24
-25 1 -39 -3 -43 -13 -3 -8 -15 -15 -26 -15 -11 0 -32 -7 -45 -16 -22 -15 -25
-14 -42 5 -19 23 -43 28 -43 10 0 -6 -8 -9 -18 -7 -10 3 -23 -1 -30 -9 -7 -7
-21 -13 -32 -13 -11 0 -24 -9 -30 -21 -7 -11 -14 -18 -17 -16 -3 3 2 16 11 29
28 39 18 43 -19 8 -35 -34 -47 -67 -21 -57 14 6 14 3 -6 -77 -9 -35 -11 -37
-22 -20 -15 22 -13 139 3 158 6 7 13 23 15 37 3 13 6 26 7 29 8 20 2 80 -8 80
-19 0 -16 14 7 28 11 7 20 20 21 30 1 24 28 -37 29 -68 l2 -25 8 26 c8 28 13
139 5 139 -3 0 -23 -16 -44 -35 -38 -34 -40 -35 -46 -15 -14 43 46 96 94 83
17 -4 21 -1 21 21 0 47 7 51 323 189 48 21 54 31 37 57 -8 13 -10 13 -10 -2 0
-21 -22 -33 -77 -42 -32 -5 -45 -2 -55 10 -7 8 -26 29 -43 46 -16 16 -29 37
-27 45 2 9 -1 12 -7 8 -24 -14 2 23 30 44 16 12 27 26 24 31 -3 6 0 8 7 5 19
-7 30 4 58 58 13 26 30 47 36 47 8 0 10 98 7 353 -4 371 -10 482 -12 235z
m-758 -467 c16 -6 36 -11 45 -11 43 0 199 -133 203 -173 1 -7 3 -23 5 -37 3
-14 6 -47 8 -75 2 -27 9 -70 15 -94 7 -24 10 -50 7 -57 -3 -7 -1 -14 5 -16 14
-5 25 -458 11 -458 -7 0 -9 8 -5 18 3 9 3 14 -2 10 -4 -4 -9 -18 -10 -30 -2
-13 -7 -41 -12 -63 -6 -27 -5 -52 3 -75 7 -20 8 -36 3 -38 -5 -2 -6 -9 -2 -15
12 -20 11 -68 -2 -63 -8 3 -11 -2 -8 -15 4 -13 -3 -26 -20 -39 -17 -14 -24
-26 -20 -37 4 -11 3 -14 -5 -9 -7 4 -12 2 -12 -5 0 -25 -40 25 -41 50 0 16 -3
20 -6 11 -4 -8 -19 -27 -35 -42 -16 -15 -28 -36 -28 -51 0 -14 -6 -27 -14 -30
-20 -8 -27 60 -10 102 11 25 12 43 4 72 -11 39 -59 87 -69 70 -10 -16 -134 48
-127 65 21 51 21 50 -1 32 -24 -22 -43 -23 -43 -3 0 8 -2 15 -5 15 -13 0 -62
-30 -74 -44 -11 -13 -11 -16 3 -16 28 0 18 -18 -14 -25 -16 -4 -30 -13 -30
-21 0 -19 -16 -18 -24 1 -3 8 -15 15 -26 15 -20 0 -29 6 -65 38 -19 17 -59 6
-113 -30 -27 -19 -49 -27 -61 -23 -11 3 -22 1 -26 -5 -4 -6 -14 -8 -24 -5 -11
3 -25 -4 -38 -18 -30 -35 -32 -48 -16 -86 12 -31 12 -125 0 -137 -10 -10 -37
10 -37 27 0 10 -4 19 -9 19 -5 0 -12 11 -15 25 -10 40 -36 32 -36 -11 0 -30
-3 -34 -14 -25 -11 9 -15 7 -19 -10 -7 -25 -27 -16 -27 11 0 12 -9 22 -23 25
-13 4 -24 12 -25 18 0 7 -3 53 -6 102 -2 50 -7 115 -11 145 -3 30 -5 129 -4
220 1 91 2 217 3 281 1 94 4 120 18 135 9 11 33 51 53 89 20 39 51 91 70 117
31 43 37 46 87 51 29 3 76 10 103 15 30 6 54 6 59 1 6 -5 19 -9 30 -9 17 0 18
2 6 10 -11 7 -3 14 34 29 26 12 52 21 57 21 6 0 24 7 41 16 39 20 27 -1 -16
-27 -54 -33 -13 -21 59 18 43 23 101 44 149 53 88 17 109 18 149 1z m779
-1082 l29 -21 6 21 c3 11 8 21 12 21 14 -1 36 -26 39 -45 2 -11 8 -22 12 -25
5 -3 8 -12 8 -20 -1 -8 0 -47 0 -87 2 -60 5 -71 17 -67 11 5 15 -1 15 -17 0
-19 -2 -21 -10 -9 -8 13 -10 12 -11 -5 -1 -11 -1 -28 0 -37 1 -9 -12 -27 -28
-39 -17 -12 -28 -26 -25 -31 3 -4 2 -8 -3 -9 -21 -2 -45 -8 -50 -13 -3 -3 -18
1 -34 10 -30 15 -54 49 -44 64 3 5 1 11 -5 15 -6 4 -8 11 -5 16 8 13 3 11 -35
-8 -24 -12 -35 -13 -38 -5 -2 7 -7 10 -12 7 -4 -3 -10 7 -13 20 -2 14 0 28 4
31 5 3 9 13 9 21 0 14 -4 12 -21 -6 -12 -12 -24 -19 -28 -15 -3 4 0 9 7 11 6
3 12 18 12 34 0 18 4 28 10 24 6 -3 10 3 10 15 0 12 4 19 9 15 16 -9 41 36 35
62 -5 18 -1 25 18 32 13 5 30 16 37 25 15 18 36 22 25 4 -5 -7 -3 -8 5 -4 7 5
10 14 7 22 -7 19 1 18 36 -7z m-1102 -94 c114 1 203 -3 215 -9 11 -6 23 -9 28
-8 4 1 7 -2 7 -6 0 -5 -21 -13 -47 -19 l-48 -10 38 -2 c25 -1 37 -6 37 -15 0
-18 -29 -48 -39 -42 -4 3 -25 -1 -47 -9 -71 -25 -258 -11 -277 22 -4 7 -15 13
-22 13 -8 0 -15 5 -15 10 0 6 -7 10 -15 10 -9 0 -20 11 -25 25 -5 14 -16 25
-25 25 -8 0 -15 5 -15 11 0 5 4 8 8 5 4 -2 14 -1 22 4 8 5 17 6 20 2 3 -4 93
-7 200 -7z m-227 -75 c19 -16 39 -30 44 -30 5 0 14 -5 21 -12 17 -17 66 -22
205 -23 87 0 117 -3 117 -12 0 -33 75 3 129 62 31 33 42 41 38 26 -3 -11 -2
-21 3 -21 4 0 12 -22 17 -50 7 -36 7 -50 -1 -50 -12 0 -36 -45 -36 -67 0 -7
-3 -13 -7 -13 -5 0 -19 -16 -32 -35 -19 -28 -28 -34 -47 -29 -19 5 -23 3 -19
-9 5 -11 0 -13 -20 -9 -15 2 -24 10 -22 16 3 7 -1 27 -9 45 -13 32 -16 33 -54
28 -22 -3 -40 -1 -40 4 0 5 -24 9 -54 9 -38 0 -60 -6 -78 -20 -29 -22 -46 -65
-23 -56 8 3 17 1 20 -3 4 -7 -42 -22 -61 -20 -3 1 -18 -10 -32 -24 l-27 -26
-1 31 c-1 33 -19 49 -42 40 -12 -4 -14 0 -9 17 7 29 -1 51 -20 51 -7 0 -13 6
-11 13 1 6 -5 26 -14 42 -16 31 -14 100 3 111 5 3 9 14 9 25 0 27 14 24 53
-11z"/>
<path d="M4014 3140 c-12 -4 -54 -7 -95 -6 -74 3 -109 -8 -109 -32 0 -7 -4
-10 -10 -7 -5 3 -7 0 -4 -8 3 -8 1 -18 -5 -22 -37 -22 46 -21 174 4 122 24
165 7 165 -65 0 -24 4 -34 13 -31 15 5 11 56 -9 102 -7 18 -29 42 -47 54 -38
23 -42 24 -73 11z"/>
<path d="M3722 2980 c-28 -25 -31 -33 -22 -50 10 -18 40 -40 55 -40 3 0 3 5 0
10 -11 17 84 15 189 -5 73 -14 87 -12 123 15 22 17 17 18 -120 22 -149 6 -182
12 -173 34 6 16 -2 44 -13 44 -4 0 -21 -13 -39 -30z"/>
<path d="M3091 2113 c0 -6 -14 -25 -30 -41 l-30 -29 26 -12 26 -12 -27 -15
c-37 -18 -36 -19 -36 16 0 19 -6 33 -16 37 -8 3 -13 12 -10 20 5 11 2 11 -15
2 -12 -6 -24 -20 -26 -30 -3 -10 -8 -19 -12 -19 -22 0 -56 -197 -45 -257 6
-29 10 -33 39 -33 19 0 45 -4 59 -10 20 -7 41 -2 104 25 85 37 114 41 175 24
32 -9 37 -14 37 -39 0 -25 4 -30 23 -30 13 0 29 -6 36 -12 10 -11 11 -10 6 5
-11 27 6 20 49 -20 l40 -38 -42 47 c-26 29 -42 57 -42 73 0 19 -5 25 -22 24
-13 -1 -56 5 -96 12 -59 11 -77 11 -93 0 -12 -7 -24 -9 -27 -6 -4 4 -5 59 -3
122 2 84 0 114 -8 109 -6 -4 -9 -11 -6 -16 3 -5 0 -12 -6 -16 -8 -4 -9 -3 -5
4 4 7 4 12 -1 12 -15 0 -34 53 -22 61 6 3 9 17 6 30 -2 13 -5 19 -6 12z"/>
</g>
</svg>
