<?xml version="1.0" standalone="no"?>
<!DOCTYPE svg PUBLIC "-//W3C//DTD SVG 20010904//EN"
 "http://www.w3.org/TR/2001/REC-SVG-20010904/DTD/svg10.dtd">
<svg version="1.0" xmlns="http://www.w3.org/2000/svg"
 width="718.000000pt" height="604.000000pt" viewBox="0 0 718.000000 604.000000"
 preserveAspectRatio="xMidYMid meet">
<metadata>
Created by potrace 1.15, written by Peter Selinger 2001-2017
</metadata>
<g transform="translate(0.000000,604.000000) scale(0.100000,-0.100000)"
fill="#000000" stroke="none">
<path d="M2345 5669 c-95 -5 -119 -10 -175 -36 -36 -17 -85 -39 -110 -50 -53
-21 -176 -141 -212 -205 -13 -24 -37 -86 -54 -138 -30 -92 -31 -100 -29 -255
3 -186 2 -175 15 -175 6 0 10 9 10 21 0 31 18 59 38 59 10 0 31 -13 47 -30 16
-16 34 -30 40 -30 7 0 40 -31 75 -70 35 -38 66 -70 70 -70 4 0 23 20 43 45 35
45 35 47 30 123 -5 77 -4 77 34 129 21 28 48 57 61 64 12 7 21 17 20 23 -4 23
26 96 48 117 l23 22 -5 -29 -4 -29 17 28 c10 15 24 27 31 27 7 0 11 -4 7 -9
-12 -20 13 -19 34 0 12 11 26 17 32 13 6 -3 17 3 25 14 8 12 20 19 27 16 7 -2
22 4 32 16 10 11 28 20 39 20 12 0 39 9 61 20 22 11 45 20 52 20 7 0 13 3 13
8 0 4 14 13 30 21 31 13 78 11 114 -4 14 -6 17 -5 12 3 -5 8 4 12 28 12 19 0
37 -6 39 -12 4 -10 8 -10 15 1 40 57 172 -215 187 -384 8 -94 13 -117 26 -110
5 4 6 69 4 153 -7 191 -9 212 -29 251 -9 17 -14 35 -12 40 3 5 -3 19 -14 31
-25 29 -25 28 3 23 29 -5 62 19 54 40 -3 9 -22 19 -41 23 -20 3 -36 10 -36 15
0 16 -4 22 -63 84 -47 51 -68 66 -115 80 -31 10 -62 22 -68 27 -7 5 -45 18
-85 30 -80 22 -191 27 -384 17z"/>
<path d="M2450 5010 c-8 -5 -23 -7 -32 -4 -10 3 -18 1 -18 -5 0 -6 -7 -11 -15
-11 -8 0 -21 -16 -29 -35 -9 -20 -22 -35 -32 -35 -10 0 -14 -5 -10 -15 3 -8 1
-15 -4 -15 -21 0 -9 -37 15 -48 37 -17 40 -15 14 8 l-24 21 40 -16 c26 -11 36
-12 28 -4 -20 20 -16 29 12 29 14 0 25 -4 25 -8 0 -15 -34 -40 -63 -47 -18 -5
-26 -12 -23 -21 3 -7 0 -15 -7 -17 -7 -2 12 -7 41 -11 l54 -7 -16 -24 c-15
-22 -15 -24 0 -18 9 3 20 0 25 -8 4 -8 20 -15 35 -16 15 -1 30 -6 33 -11 3 -5
16 -12 29 -16 21 -7 31 -26 13 -26 -4 0 -8 -12 -9 -27 -1 -88 -4 -102 -23
-108 -10 -4 -19 -14 -19 -23 0 -14 -2 -13 -13 2 -13 17 -15 17 -55 -3 -23 -12
-49 -32 -57 -45 -21 -32 -34 -81 -26 -94 4 -7 12 8 19 32 7 28 24 54 47 75 64
56 79 29 16 -31 -36 -34 -38 -39 -31 -75 3 -22 10 -45 14 -51 18 -29 34 -117
25 -135 -6 -10 -7 -27 -4 -37 4 -14 2 -20 -9 -20 -10 0 -16 9 -16 24 0 14 -4
28 -10 31 -5 3 -10 15 -10 26 0 10 -6 18 -12 16 -7 -1 -13 5 -14 13 0 8 -7 29
-14 45 -17 40 -18 152 -1 192 21 51 5 63 -17 13 -35 -76 -43 -132 -32 -211 6
-40 9 -74 7 -76 -18 -17 -67 62 -67 108 0 8 -7 24 -16 35 -14 18 -15 18 -9 -6
4 -14 3 -20 -2 -14 -12 16 -63 27 -63 13 0 -8 -4 -9 -13 0 -11 8 -18 6 -32 -9
-22 -25 -32 -25 -38 -2 -4 13 -5 11 -6 -5 -1 -14 5 -23 14 -23 17 0 21 -25 5
-35 -5 -3 -7 -12 -4 -19 11 -28 -16 -27 -28 1 -9 22 -12 24 -15 10 -3 -10 7
-40 21 -66 14 -27 23 -51 20 -54 -3 -2 9 -20 25 -38 17 -18 31 -38 31 -44 0
-5 12 -21 26 -34 30 -29 49 -61 35 -61 -5 0 -27 21 -48 47 -96 120 -132 159
-133 146 0 -7 4 -13 9 -13 5 0 12 -12 15 -28 4 -15 32 -55 62 -90 31 -34 53
-62 51 -62 -3 0 -12 6 -19 13 -7 7 -42 32 -78 55 -36 23 -74 48 -85 57 -24 19
-41 20 -26 1 15 -18 281 -198 409 -277 58 -36 103 -57 113 -54 12 4 35 -11 71
-44 29 -28 56 -51 59 -51 4 0 -4 21 -17 47 -26 51 -33 86 -12 65 7 -7 21 -12
32 -12 12 0 34 -7 50 -15 16 -9 35 -14 41 -11 13 5 14 34 1 54 -4 7 -1 15 8
18 9 3 13 10 10 16 -3 5 2 9 12 7 20 -2 108 34 117 48 3 5 -10 7 -29 5 -19 -2
-34 0 -34 6 0 6 -9 8 -21 5 -14 -4 -28 2 -45 20 -13 14 -32 31 -41 37 -13 8
-14 13 -5 16 6 3 12 18 12 32 l1 27 14 -25 c15 -26 19 -21 16 17 -1 11 3 24 8
28 17 10 13 21 -9 21 -11 0 -20 -4 -20 -8 0 -4 -4 -8 -10 -8 -5 0 -7 7 -3 16
3 8 11 13 18 11 6 -3 17 4 24 15 10 17 15 18 21 7 11 -17 22 -7 14 14 -3 9
-12 13 -20 10 -11 -4 -12 1 -3 26 8 21 8 35 1 44 -8 9 10 12 79 13 79 2 92 5
119 27 16 14 39 29 50 32 35 11 17 28 -33 32 -37 3 -47 1 -47 -11 0 -8 -5 -27
-10 -41 -8 -22 -13 -25 -25 -15 -8 6 -18 9 -23 6 -8 -5 -131 19 -162 31 -8 4
-35 7 -60 7 -41 1 -45 3 -48 27 l-3 27 68 -4 c72 -4 92 -7 135 -19 44 -12 54
-1 21 23 -29 20 -88 31 -205 36 -11 0 -14 4 -8 10 11 11 104 9 149 -4 41 -11
94 15 85 43 -3 11 2 27 11 38 14 15 15 22 6 33 -18 22 -73 37 -120 35 -22 -2
-44 0 -48 5 -13 13 14 41 41 41 30 1 51 18 42 34 -8 12 -33 10 -55 -3 -26 -17
-41 33 -16 54 12 10 15 10 15 -4 0 -9 5 -16 11 -16 5 0 9 10 7 22 -2 13 2 23
9 23 20 0 28 16 13 26 -13 9 -13 10 0 7 8 -3 27 9 43 25 23 24 31 27 38 16 7
-11 11 -11 21 -1 10 10 10 14 -1 21 -8 5 -20 7 -27 4 -6 -2 -15 0 -19 6 -3 6
-15 11 -25 11 -27 0 -48 70 -32 104 8 19 8 26 -1 30 -7 2 -2 5 11 5 22 1 33
31 11 31 -6 0 -22 9 -36 20 -14 11 -32 20 -40 20 -7 0 -30 7 -51 16 -44 20
-131 28 -152 14z"/>
<path d="M2933 4883 c-10 -16 -30 -38 -45 -51 -23 -19 -26 -29 -21 -55 7 -42
30 -77 48 -77 8 0 15 4 15 10 0 5 12 16 28 24 15 8 21 15 15 16 -7 0 -13 7
-13 16 0 21 30 14 44 -11 13 -23 47 -54 60 -55 15 0 -3 63 -29 102 -19 29 -22
38 -11 38 8 0 18 -4 21 -10 10 -17 35 -12 28 6 -3 9 0 20 7 24 21 13 -48 50
-92 50 -30 0 -41 -6 -55 -27z"/>
<path d="M1829 4522 c-3 -43 3 -277 8 -288 4 -10 14 -14 30 -11 13 2 22 0 20
-6 -4 -12 -204 -10 -297 3 -126 18 -259 44 -310 60 -14 5 -50 14 -80 21 -30 6
-70 18 -88 26 -18 8 -37 11 -42 8 -6 -4 -17 1 -26 9 -9 10 -33 16 -62 16 -26
0 -60 7 -76 15 -15 8 -29 15 -31 15 -7 0 -17 -87 -22 -193 -5 -108 -4 -119 13
-132 17 -12 22 -11 47 13 15 14 25 32 23 39 -15 38 86 39 259 4 55 -11 133
-23 173 -27 65 -6 75 -10 83 -31 11 -29 13 -30 123 -45 l90 -13 8 -34 c5 -18
7 -35 4 -38 -5 -5 -378 20 -615 42 -116 10 -147 16 -157 30 -7 10 -20 15 -28
12 -27 -11 -29 -73 -7 -225 29 -192 29 -192 46 -192 8 0 15 -7 15 -15 0 -7 8
-18 17 -24 16 -9 18 -32 22 -215 l3 -206 -29 6 c-27 5 -30 3 -41 -34 -7 -22
-13 -64 -14 -93 -1 -63 21 -88 77 -85 19 1 35 -3 35 -9 0 -5 -6 -52 -14 -104
-13 -86 -27 -117 -48 -105 -14 9 -28 -45 -28 -108 0 -52 3 -61 21 -65 20 -6
20 -10 13 -117 -3 -61 -11 -114 -17 -117 -13 -9 -13 -40 3 -301 10 -175 10
-231 1 -241 -15 -19 -196 -60 -228 -52 -14 3 -27 15 -30 25 -3 11 -10 17 -16
13 -6 -4 -8 0 -4 10 4 10 9 23 12 30 7 16 -32 60 -46 52 -5 -4 -14 6 -21 20
-10 21 -9 28 2 35 11 7 10 11 -3 24 -8 9 -20 16 -26 16 -6 0 -11 10 -11 21 0
12 -8 29 -18 38 -23 20 -60 97 -66 136 -3 17 -8 47 -11 68 -4 28 -11 37 -25
37 -17 0 -20 7 -19 48 0 26 -6 74 -15 107 -9 32 -16 70 -16 82 0 13 -4 23 -9
23 -6 0 -7 16 -4 36 5 28 2 39 -10 46 -11 6 -17 22 -17 46 0 21 -5 43 -12 50
-9 9 -9 12 0 12 14 0 17 100 4 128 -5 9 -14 27 -21 40 -6 13 -14 60 -18 105
-3 45 -12 92 -19 105 -13 19 -13 22 1 22 16 0 21 40 6 56 -5 5 -12 19 -16 32
-5 16 -2 22 9 22 17 0 24 55 8 62 -5 2 -12 15 -16 31 -5 20 -2 29 9 33 18 7
21 81 4 118 -8 18 -9 29 -2 38 7 9 8 70 3 188 -20 437 -22 493 -10 500 8 5 12
63 13 176 l2 169 -148 3 -147 3 0 -1156 c0 -1147 0 -1155 20 -1155 18 0 20 5
14 40 -5 33 -4 40 10 40 12 0 16 -10 16 -45 0 -43 -1 -45 -30 -45 l-30 0 0
-1095 0 -1095 1655 0 c1020 0 1655 4 1655 9 0 5 5 22 10 36 9 23 13 25 26 14
9 -7 20 -23 25 -36 l9 -23 1105 0 c877 0 1105 3 1106 13 0 6 2 43 2 81 1 46 6
71 15 73 15 6 48 -66 58 -125 l7 -42 91 1 c50 0 86 3 81 5 -6 2 -9 20 -7 40 3
22 -1 41 -11 52 -8 9 -18 39 -20 66 -3 26 -10 53 -16 59 -18 18 -13 37 25 114
21 43 33 80 30 91 -6 18 -64 52 -91 52 -38 0 -145 173 -145 234 0 24 2 27 15
16 8 -7 15 -9 15 -4 0 5 6 -2 13 -16 7 -14 27 -34 44 -45 18 -11 37 -32 44
-47 6 -16 19 -28 30 -28 10 0 21 -4 24 -10 13 -21 23 -8 27 36 2 33 -1 49 -14
61 -13 12 -15 21 -7 40 6 17 6 53 -2 106 -6 43 -9 119 -7 168 3 49 2 91 -2 94
-4 3 -19 29 -34 59 -15 30 -32 57 -39 60 -7 3 0 3 14 0 15 -3 30 -1 34 5 3 6
11 9 16 6 16 -11 10 6 -18 42 l-27 35 23 19 c13 11 35 20 50 21 14 0 32 2 40
2 25 2 23 23 -5 45 l-27 21 29 0 c15 0 56 7 91 16 93 23 105 17 58 -29 -33
-32 -35 -37 -17 -37 11 0 24 5 27 11 4 5 18 15 32 20 20 7 24 14 19 31 -3 13
1 29 11 40 8 9 19 32 23 50 l7 33 22 -48 c30 -66 41 -216 17 -236 -9 -7 -16
-11 -16 -7 0 3 -15 -3 -33 -13 -25 -14 -47 -18 -83 -14 l-49 4 23 -18 c31 -25
63 -96 51 -114 -14 -23 -10 -31 13 -23 27 8 57 43 58 67 0 22 17 22 24 0 2
-10 5 -115 5 -233 0 -191 4 -236 31 -400 33 -202 62 -448 55 -461 -3 -4 -2
-14 1 -23 5 -14 57 -16 485 -16 l479 0 0 1154 0 1154 -105 7 c-147 10 -139 22
-154 -218 -14 -223 -16 -228 -98 -220 -54 5 -140 18 -163 24 -12 3 -16 -12
-21 -76 -6 -79 -14 -125 -43 -260 -9 -38 -16 -104 -16 -146 0 -42 -6 -94 -14
-115 -9 -27 -12 -70 -9 -139 4 -92 2 -106 -25 -175 -20 -51 -35 -76 -48 -79
-10 -2 -25 -12 -33 -23 -9 -13 -20 -18 -35 -14 -15 4 -26 -1 -34 -14 -17 -28
-42 -25 -42 3 0 13 7 47 16 76 8 29 13 55 10 58 -10 11 -24 -8 -35 -49 -14
-48 -82 -133 -101 -126 -8 2 -4 13 12 33 14 17 28 48 31 71 4 22 16 62 27 88
16 35 20 57 15 91 -5 32 -3 50 9 66 13 20 16 20 22 6 5 -14 34 -25 34 -13 0 2
5 27 10 57 6 29 13 71 15 92 3 22 8 44 12 51 4 6 8 34 8 62 1 28 10 69 20 90
14 28 20 64 22 132 1 51 6 123 11 160 23 156 19 378 -8 438 -21 49 -35 53 -73
24 -31 -25 -29 -28 -79 114 -60 168 -61 162 17 186 64 20 185 93 185 112 0 9
-4 19 -10 23 -5 3 -7 12 -4 19 3 7 -1 16 -9 19 -9 3 -18 21 -22 39 -4 18 -14
43 -22 56 -8 13 -12 31 -8 39 3 9 -1 37 -9 62 -8 25 -17 70 -21 100 -7 63 -29
150 -43 177 -6 11 -13 27 -16 36 -8 27 -86 78 -119 78 -18 0 -42 11 -64 30
-18 17 -42 30 -52 30 -10 0 -24 7 -31 15 -7 8 -20 15 -29 15 -9 0 -28 6 -42
14 -25 13 -28 12 -39 -9 -14 -27 -82 -56 -101 -44 -7 4 -42 6 -77 4 -83 -6
-87 2 -47 97 5 13 2 15 -14 11 -22 -6 -26 3 -12 26 5 8 14 10 21 6 7 -4 16 -2
21 6 13 20 11 69 -3 69 -6 0 -20 8 -30 17 -17 16 -22 15 -87 -17 -59 -28 -75
-32 -112 -26 -24 4 -49 12 -56 18 -17 14 -17 43 1 58 8 6 12 19 9 27 -4 9 1
21 11 28 15 11 14 13 -9 19 -31 8 -28 26 6 43 24 13 24 13 2 13 -25 0 -31 15
-9 23 19 8 11 183 -10 204 -7 8 -14 18 -14 23 0 5 -12 16 -27 23 l-26 14 21
19 c28 24 28 27 -9 43 l-30 13 27 29 c15 16 35 29 44 29 10 0 38 11 64 25 52
28 125 33 163 12 57 -32 81 -99 84 -232 1 -44 4 -70 6 -57 3 13 11 26 19 29 8
3 14 11 14 18 0 7 7 18 15 25 20 17 20 100 -1 171 -26 89 -69 151 -132 189
-61 37 -183 66 -212 50 -9 -5 -26 -8 -36 -8 -27 2 -131 -63 -178 -112 -43 -45
-75 -122 -76 -185 0 -37 -14 -75 -23 -65 -2 3 -17 28 -33 55 -26 47 -48 75
-100 130 -21 22 -120 65 -152 65 -9 0 -39 -9 -67 -19 -60 -23 -157 -124 -178
-186 -8 -22 -26 -57 -40 -78 -14 -21 -29 -59 -33 -83 -7 -51 -26 -64 -93 -64
-27 0 -44 7 -61 25 -19 20 -26 22 -38 13 -11 -10 -16 -9 -23 5 -6 9 -18 17
-29 17 -16 0 -19 9 -22 68 -4 89 0 112 18 105 8 -3 14 -1 14 5 0 16 -76 20
-240 10 -85 -5 -227 -7 -315 -6 -157 3 -160 3 -170 26 -10 24 -21 25 -85 7
-90 -25 -218 -31 -320 -14 -30 4 -79 10 -108 11 l-53 3 -39 -72 -39 -72 332
-5 c183 -3 341 -6 352 -7 11 -1 101 -1 200 0 280 4 282 4 288 -19 3 -12 -1
-24 -11 -29 -23 -13 -4 -45 29 -49 36 -5 48 -22 15 -22 -21 0 -27 -4 -24 -17
2 -10 13 -19 26 -21 31 -5 28 -32 -4 -32 -31 0 -28 -22 5 -30 32 -7 31 -24 -2
-28 -33 -4 -31 -25 2 -30 27 -4 22 -26 -7 -30 -31 -5 -28 -32 3 -32 16 0 25
-6 25 -15 0 -9 -9 -15 -25 -15 -31 0 -34 -27 -3 -32 31 -4 35 -28 5 -28 -13 0
-27 -3 -30 -7 -11 -10 13 -33 34 -33 29 0 22 -18 -8 -22 -38 -4 -41 -27 -4
-34 37 -8 41 -24 7 -24 -23 0 -41 -22 -29 -34 4 -3 17 -6 30 -6 32 0 29 -18
-4 -22 -30 -3 -43 -25 -19 -33 49 -15 51 -18 22 -24 -33 -7 -46 -28 -22 -36
49 -15 51 -18 22 -24 -33 -7 -46 -28 -22 -36 50 -16 51 -17 19 -27 -43 -11
-44 -38 -3 -38 20 0 33 6 36 18 4 9 12 31 20 49 8 17 14 35 14 41 0 5 7 15 15
22 19 16 19 30 -1 30 -8 0 -12 5 -9 11 4 6 19 7 36 4 18 -4 46 0 74 10 51 20
127 15 177 -11 26 -13 29 -19 22 -42 -12 -43 -7 -84 18 -129 21 -39 26 -43 61
-43 23 0 36 -4 32 -10 -3 -6 1 -13 11 -17 12 -4 26 4 46 26 28 32 29 36 25
114 -2 45 -9 104 -16 130 -14 62 -2 114 34 156 22 24 36 31 67 31 45 0 49 14
11 34 -39 20 -84 70 -84 92 0 50 15 161 23 178 8 15 18 17 51 13 23 -3 49 -8
58 -11 10 -5 19 1 27 18 10 22 7 29 -31 66 -35 36 -41 47 -38 78 3 42 27 81
55 92 22 8 112 -12 129 -29 5 -5 13 -28 17 -51 7 -41 1 -56 -33 -77 -7 -5 -18
-20 -24 -35 -15 -33 0 -53 46 -63 19 -4 33 -16 41 -35 16 -38 6 -70 -20 -63
-16 4 -19 2 -14 -11 4 -12 0 -16 -15 -16 -16 0 -21 -6 -21 -24 0 -14 -4 -28
-10 -31 -6 -3 -10 -10 -10 -16 0 -17 23 -9 50 16 17 16 30 21 39 16 24 -15 3
-61 -55 -117 -55 -54 -85 -108 -110 -199 -19 -70 -18 -113 3 -117 16 -3 19
-15 24 -96 1 -24 6 -45 11 -48 10 -6 3 -365 -8 -436 -4 -23 -20 -53 -45 -82
-21 -24 -39 -49 -39 -55 0 -6 -4 -11 -10 -11 -13 0 -13 -97 0 -105 6 -4 8 -15
5 -26 -4 -11 -2 -19 4 -19 15 0 14 -16 -5 -56 -10 -20 -13 -41 -8 -51 11 -26
13 -174 3 -202 -6 -13 -6 -28 -1 -35 5 -6 5 -47 1 -96 -5 -47 -7 -110 -5 -142
3 -54 2 -56 -23 -62 -44 -10 -354 -19 -405 -12 -64 10 -72 32 -50 135 17 81
19 177 4 217 -7 17 -5 36 7 65 12 30 13 43 4 52 -15 15 -14 37 3 37 8 0 16 16
20 38 3 22 15 51 27 66 l22 28 -37 -6 c-20 -3 -36 -3 -36 2 0 4 25 29 55 55
57 50 65 68 40 94 -11 11 -15 34 -13 91 1 43 -2 87 -6 98 -4 14 -1 27 9 37 9
10 15 34 15 64 0 26 7 70 15 97 8 27 15 58 15 69 0 16 -3 17 -15 7 -13 -11
-15 -4 -16 51 -2 67 -2 65 -20 -101 -5 -58 -17 -130 -26 -160 -16 -58 -40
-168 -72 -335 -11 -55 -22 -107 -26 -116 -12 -32 -12 -115 1 -140 7 -15 10
-30 6 -34 -12 -11 -34 -106 -39 -165 -2 -30 0 -82 5 -115 9 -53 8 -62 -9 -81
-13 -14 -19 -35 -19 -66 0 -58 35 -240 54 -276 7 -15 21 -67 30 -117 9 -49 19
-100 21 -112 3 -12 1 -24 -4 -27 -4 -3 -11 -19 -14 -36 -9 -43 -29 -38 -26 8
4 61 0 102 -11 102 -5 0 -10 -5 -10 -11 0 -27 -44 -109 -59 -109 -26 0 -101
-109 -101 -148 0 -78 -31 -173 -83 -250 -56 -85 -166 -202 -191 -202 -9 0 -18
12 -22 27 -10 47 -13 53 -26 51 -6 -2 -14 5 -16 14 -2 11 2 18 11 18 8 0 18
11 21 25 7 27 74 105 90 105 6 0 20 10 34 22 13 13 31 23 40 23 11 0 16 7 14
17 -2 10 2 27 8 38 21 40 -10 20 -78 -49 -75 -77 -125 -111 -162 -111 -18 0
-21 3 -11 9 9 6 10 11 2 15 -6 4 -9 11 -6 16 3 5 3 21 -1 35 -5 21 -11 26 -30
22 -26 -5 -35 10 -27 43 4 13 16 23 34 27 16 3 26 9 23 14 -3 5 0 9 5 9 6 0
11 6 11 14 0 14 61 66 79 66 5 0 14 6 18 13 12 19 109 97 121 97 6 0 20 -16
32 -35 12 -19 30 -35 40 -35 15 0 18 8 17 57 -1 67 18 133 38 133 8 0 12 6 9
14 -3 8 7 26 23 40 15 14 22 26 14 26 -16 0 -49 -25 -121 -93 -30 -29 -82 -74
-115 -102 -33 -27 -88 -77 -123 -110 -34 -33 -85 -72 -113 -87 -57 -31 -105
-37 -96 -13 4 8 2 17 -3 20 -6 4 -10 19 -10 35 0 22 -6 29 -27 35 -36 9 -44
22 -31 54 21 56 77 79 104 44 12 -16 13 -16 14 -2 0 18 -43 44 -58 35 -6 -4
-8 2 -5 14 5 17 0 20 -26 20 -22 0 -39 9 -62 35 -18 19 -37 35 -43 35 -6 0
-24 -13 -39 -30 l-29 -30 25 -9 c14 -6 28 -15 32 -20 3 -6 17 -11 29 -11 21 0
54 -25 45 -34 -13 -12 -86 -36 -109 -36 -15 0 -58 -18 -94 -40 -50 -31 -76
-40 -110 -40 -49 0 -76 -7 -76 -21 0 -5 8 -9 18 -9 14 0 14 -2 3 -9 -16 -10
-44 -3 -36 8 2 5 -9 17 -24 29 -22 16 -27 27 -24 46 4 19 0 27 -13 31 -11 4
-41 18 -69 33 -69 36 -125 28 -125 -19 0 -19 -16 -24 -42 -14 -9 4 -13 17 -10
39 3 27 0 34 -17 39 -12 3 -21 13 -21 25 0 24 -32 62 -53 62 -18 0 -61 53 -70
85 -6 21 -20 193 -20 232 1 12 28 80 61 150 71 152 93 173 181 173 42 0 66 6
96 25 83 51 145 19 145 -76 0 -59 -13 -96 -48 -132 l-26 -27 33 -32 c51 -50
91 -113 137 -217 48 -110 46 -109 153 -66 32 13 97 30 144 36 99 15 146 5 198
-38 l31 -27 43 23 c24 13 67 45 97 71 72 66 155 127 200 146 23 11 41 28 49
47 l13 30 9 -27 9 -27 15 28 c11 22 12 36 4 70 -6 23 -11 59 -11 80 0 35 -4
40 -41 58 l-41 20 -4 115 c-2 63 -6 180 -9 260 -5 112 -3 166 10 239 25 136
24 137 -112 145 -59 3 -140 8 -179 11 -70 4 -71 4 -104 -30 -19 -19 -40 -35
-47 -35 -7 0 -13 -4 -13 -9 0 -4 -50 -7 -112 -6 -104 3 -112 4 -129 26 -10 13
-16 25 -14 28 3 2 -6 12 -19 22 -21 17 -43 19 -164 19 -124 0 -141 2 -147 18
-4 9 -23 62 -42 117 -19 55 -37 102 -39 105 -3 2 -2 -34 1 -80 l7 -85 -61 90
c-33 50 -60 95 -61 101 0 6 -7 17 -15 24 -12 10 -13 15 -4 20 13 9 -25 173
-41 178 -6 2 -10 10 -10 17 0 7 -12 24 -28 37 -15 12 -32 34 -38 48 -11 25
-11 25 -33 -19 -13 -24 -26 -39 -30 -35 -5 5 -61 79 -126 164 -272 355 -405
492 -612 627 -58 38 -83 60 -83 74 0 28 27 89 39 89 6 0 11 21 11 48 0 26 9
89 20 141 11 52 20 104 20 117 0 14 -19 42 -50 73 -27 28 -50 47 -51 43z
m2719 -788 c1 -56 -2 -113 -7 -127 -9 -24 -16 -27 -61 -27 -47 0 -52 2 -71 35
-17 28 -24 33 -35 24 -11 -9 -15 -7 -20 6 -15 38 -49 63 -78 58 -22 -5 -27 -2
-24 8 3 8 11 13 18 11 21 -5 50 9 50 24 0 9 -11 14 -35 14 -19 0 -35 5 -35 10
0 6 16 10 35 10 19 0 35 5 35 11 0 24 31 41 65 36 19 -3 37 -1 41 4 3 6 31 9
62 7 l57 -3 3 -101z m736 74 c2 -7 8 -35 14 -63 5 -27 17 -70 26 -94 24 -62
12 -73 -78 -69 l-71 3 -3 41 c-2 32 3 47 28 79 17 21 33 50 36 64 10 45 13 51
29 51 9 0 17 -6 19 -12z m72 -312 c7 -30 -41 -100 -88 -129 l-32 -19 -18 22
c-22 27 -24 80 -4 80 21 0 30 20 17 33 -27 27 -11 37 54 37 60 0 65 -2 71 -24z
m-4056 -44 c0 -2 -17 -25 -38 -51 -66 -80 -131 -176 -159 -237 l-27 -59 -9 70
c-4 39 -6 115 -5 170 3 96 4 99 28 106 26 8 210 8 210 1z m4985 -1167 c23 -67
28 -111 26 -242 l-1 -63 -41 0 -42 0 7 46 c3 26 6 112 6 191 0 164 9 177 45
68z"/>
<path d="M2792 1529 c2 -18 -3 -25 -19 -27 -24 -4 -30 -16 -13 -27 6 -4 8 -10
5 -15 -9 -14 27 -23 108 -26 47 -3 77 0 77 6 0 5 -4 10 -10 10 -5 0 -10 5 -10
10 0 6 17 10 37 10 35 0 36 1 17 15 -10 8 -27 15 -36 15 -9 0 -21 6 -25 13 -4
8 -28 17 -53 20 -25 3 -54 9 -63 13 -14 5 -17 1 -15 -17z"/>
</g>
</svg>
