<?xml version="1.0" standalone="no"?>
<!DOCTYPE svg PUBLIC "-//W3C//DTD SVG 20010904//EN"
 "http://www.w3.org/TR/2001/REC-SVG-20010904/DTD/svg10.dtd">
<svg version="1.0" xmlns="http://www.w3.org/2000/svg"
 width="835.000000pt" height="635.000000pt" viewBox="0 0 835.000000 635.000000"
 preserveAspectRatio="xMidYMid meet">
<metadata>
Created by potrace 1.15, written by Peter Selinger 2001-2017
</metadata>
<g transform="translate(0.000000,635.000000) scale(0.100000,-0.100000)"
fill="#000000" stroke="none">
<path d="M520 6331 c0 -15 10 -20 53 -25 96 -12 119 -18 109 -28 -6 -6 -33 -3
-72 7 -67 17 -111 17 -117 -2 -2 -6 6 -13 19 -16 17 -3 15 -5 -9 -6 -39 -1
-44 -18 -9 -27 28 -7 46 1 46 20 0 9 13 13 39 12 47 -1 45 -11 -4 -20 -19 -4
-35 -11 -35 -16 0 -6 -9 -10 -19 -10 -29 0 -51 -11 -51 -25 0 -7 -12 -16 -26
-19 -17 -5 -24 -12 -20 -21 3 -9 -3 -15 -17 -18 -21 -3 -21 -4 -2 -11 59 -23
60 -25 8 -25 -55 -1 -69 -15 -30 -31 20 -8 19 -9 -10 -9 -49 -1 -42 -28 10
-40 l42 -10 -60 2 c-51 2 -60 -1 -59 -15 1 -10 -6 -20 -16 -23 -10 -3 -21 -17
-24 -30 -5 -18 -13 -25 -31 -25 -32 0 -39 -15 -36 -70 2 -41 36 -129 50 -131
3 0 47 -2 96 -3 50 -2 98 -4 108 -5 14 -1 17 -11 17 -63 0 -82 -8 -108 -31
-108 -11 0 -19 5 -19 10 0 6 -14 19 -31 29 -34 21 -24 37 16 27 13 -3 27 -2
30 4 3 5 0 10 -8 10 -22 0 -29 29 -12 46 21 22 19 26 -13 23 -15 -2 -32 0 -38
4 -7 4 -14 0 -18 -8 -6 -18 7 -27 28 -19 10 4 16 1 16 -9 0 -9 -9 -18 -19 -22
-40 -12 -30 -78 14 -92 11 -3 25 -13 32 -22 10 -13 15 -14 31 -4 11 6 23 9 26
6 11 -11 6 -79 -6 -91 -9 -9 -9 -12 0 -12 20 0 13 -17 -9 -23 -13 -4 -20 -11
-16 -20 7 -18 -99 -81 -107 -64 -3 7 -5 3 -5 -8 2 -42 -1 -55 -15 -55 -7 0
-16 10 -19 22 -6 22 -6 22 -27 3 -20 -18 -23 -18 -33 -4 -9 11 -23 14 -49 11
-36 -4 -51 9 -28 23 6 4 8 21 4 41 -4 22 -2 34 5 34 18 0 13 14 -11 29 -18 11
-22 11 -30 -3 -12 -21 -28 -21 -28 1 0 15 -1 15 -18 0 -25 -23 -36 -21 -52 8
-10 19 -11 28 -3 36 6 6 9 18 6 26 -3 8 0 19 7 23 18 11 4 29 -19 23 -17 -4
-19 -16 -20 -119 -2 -95 1 -115 14 -120 19 -8 20 -24 0 -24 -13 0 -15 -174
-15 -1504 l0 -1504 25 -16 c16 -11 26 -12 31 -5 3 6 17 9 31 6 16 -3 27 2 34
15 8 16 13 17 25 7 8 -7 13 -18 10 -25 -2 -6 5 -14 16 -17 14 -4 22 0 25 14 6
21 14 24 29 10 5 -4 21 -11 35 -15 29 -6 43 11 33 39 -4 8 -1 15 5 15 6 0 11
-4 11 -10 0 -5 8 -10 18 -10 31 0 33 -11 7 -32 -14 -11 -25 -24 -25 -30 0 -6
8 -4 18 5 26 23 30 24 45 4 12 -17 14 -17 26 -3 11 13 11 16 1 16 -18 0 -4 13
18 17 86 15 94 15 90 2 -3 -8 -15 -13 -29 -11 -32 3 -58 -13 -43 -28 7 -7 20
-8 35 -2 13 5 32 7 42 4 20 -4 23 -28 4 -35 -9 -4 -9 -7 1 -18 10 -11 16 -10
33 8 18 18 19 23 7 42 -11 18 -11 23 2 31 13 8 12 11 -5 24 -19 14 -19 15 8
27 16 7 27 20 27 33 0 42 21 -2 23 -48 1 -25 5 -46 10 -46 4 0 7 4 7 10 0 5
15 24 33 41 l32 31 3 -31 c3 -30 4 -31 25 -16 26 18 57 20 57 3 0 -17 52 -41
60 -29 3 5 30 8 60 6 30 -1 66 -3 79 -4 20 -1 23 -5 19 -31 -4 -23 -2 -27 8
-19 7 6 16 19 19 30 9 26 24 14 18 -14 l-5 -22 16 22 c15 19 20 21 37 10 17
-10 22 -9 34 6 13 18 13 18 17 0 2 -10 -6 -25 -17 -35 -27 -22 -13 -34 17 -14
12 9 30 16 40 16 10 0 18 7 18 15 0 12 5 13 26 5 16 -6 31 -7 38 -2 6 5 18 10
26 10 8 1 24 2 35 4 16 2 21 -4 25 -30 l5 -33 23 21 c13 12 29 19 37 16 8 -3
19 3 25 14 16 29 -7 36 -40 11 -19 -13 -31 -17 -35 -10 -4 6 2 13 14 16 12 3
21 9 21 14 0 17 44 28 53 13 10 -18 27 -18 27 0 0 8 6 16 12 18 9 3 8 15 -6
46 -19 42 -46 57 -46 25 0 -13 -3 -14 -12 -5 -9 9 -9 15 -1 23 18 18 5 37 -23
31 -14 -2 -24 0 -24 7 0 6 -8 11 -17 12 -30 1 17 17 53 18 16 1 35 6 42 13 18
18 15 58 -4 58 -13 0 -13 3 4 18 25 21 50 117 59 221 3 42 11 87 18 101 7 14
24 50 39 81 31 67 129 174 172 189 21 7 30 17 30 31 -1 18 6 22 44 24 45 4 45
4 13 -8 -50 -19 -50 -27 0 -27 39 0 45 3 40 17 -5 13 -2 15 17 10 36 -9 77 3
88 27 7 17 19 23 45 24 30 1 36 -3 41 -24 7 -26 8 -26 73 -21 36 3 71 11 76
16 17 17 27 13 27 -10 0 -18 4 -20 26 -15 17 5 23 3 19 -4 -3 -5 1 -10 9 -10
9 0 16 -4 16 -10 0 -5 7 -10 15 -10 8 0 15 -7 15 -15 0 -20 25 -19 46 2 17 17
17 16 11 -9 -5 -20 -3 -30 10 -37 10 -6 15 -11 10 -11 -10 0 21 -49 57 -87 16
-18 26 -36 22 -40 -7 -7 -56 43 -56 57 0 5 -6 10 -14 13 -10 4 -12 0 -9 -14 6
-23 -10 -25 -31 -4 -8 8 -17 15 -21 15 -3 0 -23 11 -43 25 -41 28 -77 34 -69
11 3 -8 1 -16 -6 -19 -9 -3 -9 -10 0 -30 16 -34 -2 -37 -41 -6 -42 33 -143 79
-174 79 -26 0 -26 -1 18 -40 l45 -40 -37 15 c-47 19 -59 19 -52 1 6 -14 -28
-40 -39 -30 -3 3 -15 -8 -28 -25 -13 -17 -28 -31 -35 -31 -6 0 -17 -7 -24 -15
-11 -13 -8 -15 13 -15 18 0 31 -9 44 -30 21 -36 118 -115 165 -134 18 -8 53
-17 78 -21 51 -8 85 -26 100 -55 13 -25 25 -141 25 -250 0 -137 -31 -189 -150
-250 -78 -40 -143 -80 -130 -80 22 0 91 23 105 35 8 7 25 15 38 18 30 7 39
-15 24 -56 -15 -39 -11 -42 25 -24 64 34 139 33 111 -1 -10 -12 -10 -16 0 -19
6 -3 12 -11 12 -19 0 -16 19 -20 21 -4 1 6 2 15 3 20 0 6 4 10 9 10 4 0 12 0
19 0 6 0 3 -6 -7 -14 -17 -12 -17 -16 -6 -30 17 -21 7 -33 -14 -16 -12 10 -15
10 -15 -3 0 -9 10 -17 23 -19 14 -2 23 -11 25 -26 4 -24 22 -31 22 -7 0 15 19
22 21 8 6 -41 5 -73 -2 -73 -5 0 -9 9 -9 20 0 11 -7 20 -15 20 -17 0 -21 -45
-5 -55 6 -3 10 -15 10 -26 0 -10 4 -19 8 -19 8 0 25 -28 41 -65 2 -5 -5 -2
-17 8 -14 13 -22 15 -27 7 -4 -6 -5 -14 -2 -16 3 -3 1 -19 -3 -35 -10 -35 6
-51 19 -18 l8 23 12 -21 c25 -47 -3 -113 -48 -113 -12 0 -21 -4 -21 -9 0 -5
-3 -16 -6 -24 -3 -9 3 -16 15 -20 15 -3 27 4 47 30 39 51 42 31 4 -26 l-33
-48 -35 23 c-19 13 -42 24 -50 24 -9 0 -42 -20 -73 -45 -32 -25 -66 -45 -76
-45 -10 0 -39 20 -63 45 -24 25 -47 45 -51 45 -10 0 -113 -71 -121 -84 -8 -12
-57 40 -58 61 0 27 -20 20 -63 -22 -24 -25 -49 -45 -55 -45 -7 0 -19 14 -27
31 -16 29 -15 31 5 36 21 6 21 6 2 27 -11 11 -29 40 -41 64 -12 23 -28 42 -36
42 -18 0 -20 21 -3 38 8 8 20 1 47 -29 34 -39 38 -40 64 -28 15 7 27 19 27 27
0 12 -4 11 -21 -4 -21 -19 -21 -18 -42 7 -12 14 -32 39 -43 55 -18 23 -24 27
-35 17 -15 -15 -39 -17 -39 -4 0 4 12 20 27 35 20 20 24 29 15 38 -16 16 -15
48 1 48 20 0 47 33 47 57 0 31 12 35 37 11 15 -14 23 -33 23 -55 0 -25 4 -33
18 -33 15 0 18 8 18 38 -1 20 -9 46 -18 56 -10 11 -18 26 -18 34 0 8 -6 12
-15 8 -22 -8 -18 8 8 32 29 27 47 28 47 3 0 -11 5 -23 10 -26 6 -4 8 -15 5
-26 -8 -24 21 -37 38 -18 7 8 22 23 35 33 22 19 23 19 37 0 14 -18 14 -18 15
9 0 18 -5 27 -15 27 -9 0 -30 7 -47 16 l-31 16 6 -30 c4 -20 1 -34 -8 -42 -13
-11 -15 -6 -15 33 0 49 -14 63 -47 44 -74 -45 -83 -53 -83 -77 0 -14 -10 -36
-21 -49 -17 -21 -22 -22 -30 -10 -8 12 -12 11 -24 -5 -14 -19 -15 -19 -35 4
-11 13 -20 27 -20 32 0 19 -46 78 -62 78 -17 0 -99 -40 -124 -61 -11 -9 -15
-7 -20 5 -10 26 -37 20 -29 -6 4 -13 11 -27 14 -31 10 -10 61 9 61 23 0 11 74
49 95 50 19 0 47 -60 42 -89 -3 -15 -2 -33 3 -41 5 -8 6 -19 2 -25 -13 -20
-11 -40 4 -52 14 -10 14 -13 -3 -30 -18 -18 -18 -19 14 -49 17 -16 35 -43 39
-60 8 -31 63 -147 135 -284 25 -47 50 -100 56 -117 10 -26 18 -32 55 -38 23
-3 77 -17 118 -30 124 -40 198 -55 340 -67 187 -16 217 -15 236 3 14 15 13 17
-11 23 -14 4 -25 12 -24 19 1 7 -1 24 -5 39 -5 17 -3 41 4 60 7 18 16 48 20
67 10 39 -7 158 -25 185 -14 20 -11 86 6 117 5 10 9 28 9 41 0 44 14 53 51 32
34 -20 36 -22 113 -92 72 -66 64 -45 -11 32 -51 51 -64 69 -55 78 18 18 14 28
-9 28 -24 0 -59 17 -59 29 0 4 23 7 50 5 28 -1 50 2 50 6 0 18 -34 27 -83 22
-47 -5 -51 -4 -38 11 7 10 19 17 25 17 6 0 12 17 13 38 6 91 10 100 54 104 22
2 43 0 45 -4 3 -5 10 -6 15 -2 6 4 6 10 -1 19 -6 7 -8 19 -5 27 3 8 -10 34
-30 59 -19 24 -35 50 -35 56 0 17 -78 73 -102 73 -20 0 -24 -15 -5 -24 19 -9
-35 4 -66 16 l-28 11 29 31 c17 17 46 63 66 102 30 59 36 81 36 133 0 34 -5
82 -11 106 -10 39 -9 48 9 77 26 44 73 163 106 270 14 48 30 90 35 93 5 3 36
-12 68 -34 32 -21 76 -48 99 -59 50 -25 104 -85 104 -114 0 -12 -25 -74 -56
-138 -73 -151 -84 -171 -104 -195 -16 -19 -61 -108 -92 -183 -7 -17 -16 -32
-20 -32 -5 0 -8 -7 -8 -16 0 -10 -6 -14 -15 -10 -8 3 -14 0 -12 -6 1 -6 -8
-17 -21 -23 l-23 -13 26 -6 c32 -8 38 -2 94 99 62 110 74 118 176 116 85 -2
85 -2 85 24 0 31 16 33 25 3 18 -62 18 -59 -9 -52 -19 4 -28 2 -32 -10 -3 -9
-12 -16 -20 -16 -8 0 -14 -7 -14 -15 0 -12 13 -13 69 -9 63 4 71 3 85 -17 21
-30 13 -39 -32 -33 -35 5 -36 4 -18 -10 20 -17 22 -15 -29 -31 -27 -8 -16 -32
18 -40 l32 -8 -40 -7 c-48 -8 -120 -38 -112 -46 3 -4 20 -1 38 5 18 6 41 11
52 11 18 0 18 -1 -4 -18 -13 -10 -37 -26 -54 -34 -16 -8 -43 -22 -60 -31 -16
-9 -38 -18 -47 -21 -10 -3 -18 -13 -18 -22 0 -18 0 -18 105 20 39 14 88 25
110 25 l40 0 -64 -24 c-99 -37 -112 -59 -17 -30 44 13 149 21 118 8 -20 -8 -3
-23 28 -23 16 0 32 -5 36 -12 5 -8 -5 -9 -35 -4 -42 6 -111 -9 -111 -26 0 -4
35 -5 79 -1 43 3 91 2 107 -2 28 -8 28 -8 -15 -16 -74 -14 -73 -29 1 -29 75 0
98 -6 98 -26 0 -8 6 -14 13 -14 22 0 183 -87 268 -145 44 -30 89 -55 100 -55
11 0 19 -7 19 -18 0 -9 25 -37 56 -62 116 -93 236 -238 205 -248 -6 -2 -8 -14
-5 -28 9 -34 -8 -30 -58 16 -84 77 -189 160 -201 160 -4 0 -7 -16 -7 -37 0
-26 10 -50 38 -87 21 -28 52 -77 68 -109 16 -33 45 -77 64 -99 l35 -39 54 26
c29 14 60 25 69 23 20 -4 26 -27 12 -48 -9 -13 -11 -13 -20 0 -9 13 -12 13
-21 -3 -9 -15 -18 -17 -45 -12 -35 6 -40 1 -25 -24 7 -10 32 -16 82 -17 39 -2
76 -7 81 -12 16 -16 -21 -42 -58 -42 -46 0 -43 -13 6 -33 38 -15 40 -17 28
-37 -11 -18 -19 -20 -53 -15 -70 12 -99 12 -122 2 -26 -11 -30 -32 -9 -40 22
-9 78 -96 72 -113 -8 -22 -24 -17 -78 22 -46 34 -54 37 -120 36 -89 0 -175
-38 -184 -81 -12 -53 -17 -66 -33 -78 -29 -22 -39 -14 -46 42 -7 57 -14 65
-35 40 -7 -8 -18 -15 -25 -15 -15 0 -49 -17 -84 -42 -24 -17 -24 -17 -8 -60
16 -42 57 -99 132 -185 l36 -42 -34 -38 c-19 -21 -40 -48 -46 -61 -17 -32 -19
-118 -4 -176 6 -27 11 -53 10 -59 -1 -5 3 -11 9 -14 7 -2 12 2 11 9 -2 68 5
138 14 133 6 -4 10 -24 8 -44 -3 -60 0 -92 10 -86 5 3 12 1 16 -5 9 -15 48
-13 39 3 -6 9 -4 9 7 -1 14 -13 30 -16 26 -4 -2 8 7 12 31 12 14 0 15 -2 2
-10 -11 -7 -7 -10 18 -10 28 0 32 3 32 28 0 15 5 33 12 40 9 9 8 12 -4 12 -9
0 -18 -6 -21 -12 -2 -7 -8 -10 -12 -6 -4 4 0 24 8 45 9 21 16 32 16 26 2 -27
21 -11 21 16 0 17 4 33 10 36 6 3 10 -1 10 -10 0 -8 7 -18 15 -21 18 -7 19
-41 1 -73 -8 -14 -12 -31 -9 -38 3 -7 -2 -13 -11 -13 -9 0 -16 -6 -16 -13 0
-10 15 -14 47 -15 27 0 41 3 33 8 -16 10 -4 31 15 24 10 -4 12 0 8 18 -3 13
-10 28 -15 35 -6 7 -5 14 3 18 6 4 15 1 20 -6 6 -10 9 -9 15 6 3 11 15 38 25
60 l18 40 -6 -35 c-3 -19 -12 -48 -19 -64 -8 -16 -14 -38 -14 -48 0 -11 -5
-28 -10 -39 -10 -18 -5 -19 190 -19 199 0 201 0 190 20 -8 15 -8 30 1 55 17
45 41 48 29 4 -10 -35 -6 -49 16 -49 11 0 14 15 14 66 0 36 -5 75 -11 86 -8
15 -8 23 0 31 17 17 31 -9 32 -63 0 -25 3 -39 6 -33 3 9 10 10 24 3 25 -14 25
-33 0 -25 -27 8 -40 -33 -16 -51 14 -10 20 -10 30 -1 22 22 35 55 29 72 -4 10
-1 21 6 25 13 8 32 98 23 113 -2 4 -12 3 -21 -2 -10 -5 -51 -8 -92 -6 -41 2
-82 4 -92 4 -11 1 -15 7 -11 20 4 18 -1 19 -76 17 -45 -1 -81 1 -81 4 0 4 13
24 30 45 32 41 36 50 20 60 -23 14 -12 25 70 67 14 7 27 15 30 19 3 3 19 11
35 17 17 6 23 11 13 11 -39 2 -15 20 25 20 45 -1 91 13 102 30 3 6 1 11 -6 11
-10 0 -10 3 -1 12 9 9 17 10 30 1 19 -11 72 -6 72 7 0 4 21 14 46 21 26 8 49
20 51 27 4 9 8 9 17 -4 10 -13 19 -14 48 -6 23 6 53 6 85 0 37 -8 63 -7 99 3
72 19 258 17 315 -3 35 -13 74 -16 175 -14 120 3 132 5 177 30 38 22 56 27 85
22 20 -3 29 -2 19 2 -16 7 -15 10 12 36 16 15 34 25 40 22 6 -4 11 -4 11 1 0
4 7 17 16 28 13 17 16 18 25 5 9 -13 10 -13 6 0 -6 23 81 89 128 97 21 3 49
16 61 28 57 57 104 83 85 46 -15 -26 -3 -32 30 -15 35 17 37 31 7 37 -21 4
-20 5 10 18 28 12 32 17 27 40 -5 21 0 33 25 55 18 16 45 41 61 56 18 16 29
37 29 53 0 33 40 73 80 81 38 8 76 52 92 107 6 23 20 54 30 69 10 14 18 29 18
33 0 4 14 28 31 53 18 27 28 53 25 65 -7 30 12 129 29 146 18 19 21 1 4 -31
-13 -24 -7 -31 31 -33 25 -2 30 2 30 22 0 14 -4 21 -10 18 -6 -4 -10 8 -10 29
0 20 5 36 10 36 6 0 10 8 10 17 0 14 2 15 13 4 10 -11 10 -14 0 -18 -18 -6
-16 -34 3 -73 17 -32 16 -33 -14 -57 -30 -23 -34 -48 -10 -64 5 -3 -2 -27 -17
-53 -15 -27 -24 -55 -20 -65 8 -26 -18 -49 -49 -44 -20 4 -28 -1 -41 -26 -9
-18 -20 -29 -25 -26 -6 3 -7 -1 -4 -10 4 -8 1 -22 -6 -30 -6 -8 -9 -19 -5 -25
4 -6 2 -16 -4 -23 -5 -7 -6 -19 -2 -26 6 -9 11 -10 15 -2 4 6 4 15 1 21 -3 5
-2 10 3 10 5 0 21 17 35 38 43 61 76 97 83 89 4 -4 -6 -19 -21 -34 -27 -27
-65 -82 -65 -94 0 -10 77 67 96 96 14 22 15 28 4 35 -11 7 -11 11 1 26 37 48
55 68 68 78 7 6 48 44 91 83 76 73 100 86 100 58 0 -13 -11 -19 -31 -17 -4 1
-17 -11 -30 -25 -17 -18 -20 -27 -11 -30 22 -8 14 -35 -8 -28 -11 4 -20 2 -20
-4 0 -6 5 -11 10 -11 7 0 6 -8 -2 -23 -7 -12 -11 -45 -9 -76 2 -41 0 -52 -10
-46 -9 6 -11 3 -6 -8 3 -9 1 -18 -6 -21 -9 -3 -9 -5 0 -5 17 -1 4 -31 -14 -31
-8 0 -12 -4 -9 -9 3 -4 -3 -16 -14 -26 -11 -10 -20 -26 -20 -35 0 -9 -9 -25
-20 -35 -11 -10 -20 -31 -20 -46 0 -15 -5 -29 -11 -31 -5 -2 -13 -22 -16 -46
l-6 -42 46 0 c46 0 57 10 57 50 0 23 29 48 39 32 10 -16 35 3 28 22 -4 9 -13
13 -22 10 -10 -4 -15 0 -15 14 0 26 23 45 37 31 7 -7 14 -5 23 7 12 14 12 17
-3 25 -33 19 -20 69 52 194 16 28 30 57 30 66 1 9 10 24 21 34 11 10 20 24 20
31 0 17 40 44 65 44 12 0 35 15 51 34 21 23 43 36 70 41 21 4 55 18 74 31 114
79 107 76 151 61 38 -13 39 -15 18 -20 -13 -4 -35 -7 -49 -8 -31 -1 -101 -31
-103 -44 -1 -6 -15 -19 -31 -30 -27 -18 -51 -47 -109 -130 -14 -20 -22 -23
-32 -15 -10 8 -18 4 -34 -19 -12 -16 -21 -36 -21 -45 0 -9 -4 -16 -8 -16 -10
0 -44 -91 -37 -98 3 -3 12 3 21 14 15 18 15 17 9 -11 -10 -46 -43 -115 -54
-115 -6 0 -11 5 -11 10 0 21 -20 9 -26 -15 -3 -14 -10 -25 -15 -25 -5 0 -9
-11 -9 -24 0 -28 -26 -59 -42 -50 -6 4 -6 -1 1 -14 6 -11 10 -31 8 -44 -1 -17
2 -22 16 -20 9 2 17 -2 17 -8 0 -5 -9 -10 -19 -10 -11 0 -33 -12 -50 -26 -26
-21 -34 -24 -46 -14 -12 10 -16 8 -25 -14 -5 -14 -7 -33 -3 -43 4 -11 3 -14
-6 -9 -17 11 -40 -11 -64 -63 -11 -25 -23 -50 -25 -56 -3 -5 4 -1 16 9 13 12
22 14 22 7 0 -16 -29 -71 -46 -89 -8 -7 -14 -17 -14 -22 0 -5 -12 -8 -27 -7
-22 2 -29 -3 -31 -21 -2 -15 2 -22 13 -22 13 0 14 -3 3 -22 -11 -20 -13 -21
-16 -5 -3 14 -7 16 -18 6 -19 -16 -18 -46 2 -57 14 -8 15 -14 6 -42 -7 -18 -9
-36 -6 -41 10 -17 53 -9 64 12 9 16 15 18 25 9 11 -9 11 -15 -1 -38 -12 -24
-12 -28 3 -39 12 -9 20 -10 30 -2 7 6 19 9 26 6 19 -7 76 48 83 81 3 15 10 36
16 47 6 11 29 54 51 96 39 77 90 139 104 125 4 -4 2 -16 -5 -26 -15 -25 -4
-26 14 -3 18 24 17 43 -1 43 -19 0 -19 24 0 40 12 10 15 10 15 -4 0 -19 11
-21 28 -4 20 20 15 40 -9 33 -20 -7 -21 -5 -15 21 8 33 51 110 67 119 5 4 16
1 24 -5 12 -10 16 -9 21 4 3 9 11 16 16 16 6 0 17 8 24 18 12 16 13 16 20 -2
5 -14 1 -24 -14 -37 -12 -9 -22 -27 -22 -40 0 -12 -11 -37 -25 -55 -14 -18
-25 -40 -25 -49 0 -8 -7 -18 -15 -21 -8 -4 -15 -18 -15 -32 0 -14 -6 -33 -14
-41 -8 -9 -23 -33 -35 -53 l-21 -38 21 0 c20 0 20 -2 -6 -48 -15 -26 -35 -55
-43 -64 -18 -21 -38 -13 -21 8 6 8 9 17 6 21 -7 6 -46 -36 -47 -51 0 -5 7 -18
17 -28 15 -17 15 -18 -10 -18 -21 0 -27 -5 -27 -21 0 -11 4 -17 10 -14 6 4 7
-1 3 -11 -4 -11 -8 -13 -11 -6 -6 19 -24 14 -20 -6 3 -21 -17 -54 -62 -103
-25 -28 -32 -31 -40 -19 -8 12 -11 12 -28 -3 -10 -9 -24 -17 -30 -17 -7 0 -12
-9 -12 -20 0 -21 -34 -45 -51 -35 -5 4 -7 15 -4 26 4 11 2 19 -5 19 -6 0 -8 5
-5 10 4 6 11 8 16 5 9 -6 39 17 39 30 0 3 -9 3 -20 0 -25 -8 -26 11 -4 43 15
22 15 25 -17 53 -28 24 -38 28 -67 23 -33 -6 -34 -6 -22 16 10 18 9 24 -7 36
-10 8 -30 13 -44 11 -20 -2 -26 0 -21 11 3 9 0 13 -8 10 -19 -6 -71 -108 -56
-108 7 0 18 6 25 12 7 7 2 -7 -11 -31 -28 -54 -85 -106 -101 -93 -7 5 -25 12
-42 15 -16 3 -43 11 -60 17 -25 10 -28 13 -15 23 8 7 24 28 34 47 l19 35 -28
-25 -27 -25 7 24 c7 23 6 23 -31 16 -22 -3 -40 -11 -42 -16 -5 -12 -62 -12
-62 0 0 6 4 13 10 16 5 3 10 15 10 27 0 19 -4 20 -42 14 -23 -4 -44 -8 -45
-10 -2 -2 2 -15 8 -30 16 -35 2 -47 -20 -17 -10 13 -23 21 -28 18 -5 -3 -27 1
-49 9 -21 8 -47 17 -56 21 -10 3 -18 9 -18 14 0 22 -51 -17 -58 -45 -9 -32
-36 -46 -55 -27 -8 8 -6 15 9 25 18 14 18 15 -8 21 -14 4 -36 1 -49 -5 -19
-10 -21 -10 -16 3 4 10 -2 17 -19 21 -31 8 -30 19 5 49 16 13 36 38 45 55 15
29 15 32 0 32 -24 0 -144 -93 -144 -112 0 -26 -62 -41 -135 -33 -43 4 -65 3
-70 -5 -4 -6 -18 -9 -34 -5 -18 4 -32 1 -40 -9 -16 -19 -7 -22 59 -21 39 0 54
4 52 13 -1 6 5 12 13 12 22 0 18 -28 -6 -41 -12 -6 -30 -8 -41 -6 -11 3 -21 0
-24 -8 -4 -8 -25 -12 -67 -12 -65 0 -117 -15 -117 -33 0 -6 5 -8 10 -5 13 8
50 -3 50 -15 0 -4 -12 -11 -26 -14 -21 -6 -32 -1 -55 25 -18 20 -38 32 -56 33
-24 1 -28 5 -25 29 3 30 -15 37 -25 10 -3 -10 -14 -37 -25 -61 -19 -41 -17
-73 2 -42 6 8 10 10 10 4 0 -6 -9 -19 -20 -29 -24 -22 -26 -55 -4 -55 14 0 14
-3 4 -15 -7 -9 -10 -19 -5 -23 8 -8 65 56 65 74 0 7 -5 14 -11 16 -6 2 -1 12
10 22 21 19 21 19 19 -10 -1 -16 -10 -41 -19 -55 -10 -14 -21 -37 -24 -52 -6
-22 -4 -26 8 -21 8 3 21 19 27 35 11 25 30 40 30 23 0 -7 -41 -66 -51 -74 -23
-18 -50 -150 -29 -150 5 0 10 -7 10 -15 0 -25 48 -19 55 8 12 43 27 77 35 77
3 0 6 -22 6 -50 -1 -27 2 -50 6 -50 5 0 8 20 8 45 0 33 6 51 21 66 18 18 21
30 17 78 -3 31 -3 48 -1 39 3 -10 9 -18 14 -18 5 0 9 -9 9 -20 0 -11 5 -20 10
-20 6 0 10 -9 10 -19 0 -10 7 -22 16 -25 10 -4 14 -12 10 -22 -11 -29 4 -34
42 -13 l37 21 -33 -34 c-27 -29 -31 -39 -24 -58 l9 -24 7 27 c7 30 26 27 26
-4 0 -10 5 -19 10 -19 6 0 10 13 10 29 0 17 4 32 10 36 5 3 7 12 4 19 -3 8 0
17 5 21 6 3 9 10 6 15 -3 5 -1 11 5 15 6 4 10 -6 10 -25 0 -21 4 -29 12 -24 8
5 9 2 4 -12 -5 -10 -10 -28 -13 -39 -4 -15 -2 -17 5 -6 6 8 17 11 26 8 12 -5
16 0 17 21 1 15 1 32 0 39 -2 19 16 24 29 8 13 -16 40 -20 40 -7 0 5 9 18 20
30 12 12 22 35 23 52 1 16 8 32 15 35 6 2 12 13 12 24 0 20 13 35 22 25 7 -6
-24 -90 -51 -135 -19 -33 -31 -112 -19 -124 3 -3 11 9 18 26 8 18 24 43 36 56
l22 24 -5 -40 c-3 -22 -2 -48 1 -58 6 -15 11 -10 27 25 11 23 17 47 13 53 -3
6 1 18 9 27 18 21 37 78 30 86 -4 3 -19 6 -35 6 -15 0 -28 4 -28 9 0 5 9 7 20
4 38 -10 70 5 70 33 0 14 4 23 10 19 9 -5 6 -92 -7 -165 -12 -73 -9 -105 10
-108 16 -3 17 1 12 31 -4 21 -3 37 4 41 7 4 11 -1 11 -13 0 -29 17 -35 31 -10
6 13 9 38 5 62 -6 34 -5 38 7 28 8 -6 17 -32 20 -58 3 -32 12 -53 27 -65 28
-23 50 -23 50 0 1 16 1 16 11 0 6 -12 22 -18 44 -18 30 0 35 4 45 36 9 28 10
38 1 44 -9 5 -8 10 4 20 12 10 15 10 15 -4 0 -22 27 -20 34 2 10 29 0 156 -12
160 -8 2 -8 9 1 23 19 31 27 22 27 -31 0 -30 4 -50 11 -50 6 0 9 -6 6 -14 -4
-11 47 -116 56 -116 2 0 4 17 5 38 3 45 32 74 44 42 10 -28 27 -25 34 7 3 16
7 33 9 40 2 6 -5 19 -16 29 -22 20 -25 39 -5 31 18 -7 33 30 18 45 -13 13 -52
-11 -52 -32 0 -13 -1 -13 -10 0 -5 8 -10 18 -10 21 0 9 102 50 109 43 3 -4 0
-9 -6 -11 -18 -6 -16 -23 2 -23 19 0 20 -58 2 -85 -13 -19 -37 -101 -37 -125
0 -7 6 -10 14 -7 21 8 26 -2 16 -29 -5 -13 -5 -26 -1 -29 14 -8 20 20 16 66
-3 23 -1 47 3 53 3 6 7 29 7 50 0 22 5 41 11 43 11 4 11 -184 -1 -195 -3 -3
-5 -14 -5 -25 0 -17 5 -19 32 -13 40 8 42 10 30 33 -12 24 -26 100 -16 91 4
-5 17 -31 28 -60 20 -48 48 -79 61 -67 3 3 7 44 9 90 2 46 10 101 18 122 14
36 14 33 14 -75 -1 -115 9 -163 25 -120 10 28 29 29 22 2 -5 -17 0 -20 28 -20
l34 1 -25 14 c-16 9 -20 15 -10 16 8 1 25 3 36 4 29 3 46 14 38 27 -4 6 1 8
12 6 11 -1 25 -18 33 -36 12 -27 20 -32 48 -32 20 0 33 5 33 13 0 8 4 7 10 -3
8 -12 10 -12 10 5 1 19 1 19 14 3 15 -20 56 -24 56 -7 0 8 4 8 13 1 7 -6 101
-11 246 -11 l234 -2 -7 138 c-7 157 -24 428 -28 457 -4 24 35 36 132 43 86 6
100 -5 103 -79 2 -32 -1 -59 -5 -60 -8 -3 -12 -55 -23 -248 -5 -105 -16 -221
-22 -236 -4 -12 39 -14 256 -14 l262 0 -7 37 c-6 34 -5 37 9 25 9 -8 17 -23
19 -35 3 -22 3 -22 306 -25 l302 -2 0 375 c0 327 -2 375 -15 375 -19 0 -19 14
-1 30 8 6 12 19 9 27 -5 14 -9 12 -25 -7 -21 -25 -88 -64 -130 -74 -21 -5 -28
-3 -28 9 0 8 -4 15 -10 15 -5 0 -10 9 -10 20 0 17 -3 19 -19 10 -27 -14 -29
-13 -26 13 2 12 -6 33 -16 46 -16 19 -22 21 -34 11 -12 -10 -16 -8 -23 10 -7
20 -10 21 -15 7 -4 -10 -13 -17 -22 -17 -31 0 -121 70 -108 84 4 3 -2 15 -12
26 -10 11 -14 20 -10 20 5 0 -1 10 -12 23 -21 21 -21 23 -4 56 12 23 30 38 57
47 48 17 63 12 89 -25 22 -31 155 -142 220 -183 22 -14 58 -31 80 -38 22 -7
46 -17 53 -23 9 -7 12 6 12 61 0 63 -2 71 -24 85 -23 15 -24 15 -31 -6 -5 -16
-8 -18 -12 -8 -3 8 4 22 15 32 12 9 18 19 15 23 -3 3 0 12 7 21 9 11 10 18 1
28 -14 18 -2 30 16 16 11 -9 13 -2 12 42 -1 30 -3 45 -6 34 -3 -11 -10 -24
-15 -30 -7 -7 -8 -3 -3 13 4 15 2 24 -10 28 -12 5 -13 9 -4 21 10 11 8 18 -9
33 -16 15 -21 16 -26 5 -2 -7 0 -15 6 -17 7 -3 9 -12 5 -22 -6 -15 -10 -16
-22 -6 -8 7 -15 19 -15 27 0 10 -7 14 -20 10 -22 -6 -26 3 -9 20 8 8 7 13 -1
18 -7 4 -16 2 -20 -5 -6 -10 -10 -9 -16 1 -14 22 -54 40 -74 34 -15 -5 -21 1
-29 32 -13 45 -36 83 -27 44 6 -29 -4 -82 -14 -76 -5 3 -6 14 -3 24 3 10 0 22
-6 25 -6 4 -11 2 -11 -3 0 -22 -27 -10 -40 17 -10 22 -13 24 -19 10 -7 -21
-22 -12 -38 22 l-12 25 0 -24 c-1 -19 -4 -21 -16 -11 -8 6 -18 9 -23 6 -13 -8
-24 7 -60 76 -17 31 -67 112 -111 179 -45 67 -81 125 -81 129 0 4 7 10 15 14
10 3 15 -1 15 -13 0 -29 32 -31 70 -4 31 20 36 21 46 8 17 -23 32 -18 49 15
21 40 27 38 19 -5 -5 -30 -4 -35 13 -35 10 0 24 -5 31 -12 8 -8 10 -2 5 27 -4
28 -3 36 5 31 8 -5 12 2 13 21 2 48 -3 78 -13 84 -6 4 -8 15 -4 24 5 14 14 16
46 11 23 -4 41 -2 45 4 9 14 35 -7 35 -27 0 -11 -7 -13 -25 -9 -18 5 -27 2
-32 -9 -3 -9 -11 -14 -18 -11 -19 7 -25 -18 -14 -58 11 -40 29 -48 29 -13 0
17 2 19 9 8 7 -11 13 -12 23 -3 9 7 18 8 24 2 6 -6 15 -6 24 0 10 7 11 10 3
10 -7 0 -13 5 -13 10 0 6 8 10 18 10 19 0 23 -24 9 -47 -4 -6 -3 -14 3 -18 5
-3 7 -19 3 -35 -7 -36 8 -39 24 -5 8 19 8 33 0 55 -9 23 -8 32 2 42 12 11 13
10 7 -5 -3 -10 1 -28 9 -40 12 -18 15 -18 21 -4 3 9 3 20 0 26 -4 5 -2 12 4
16 5 3 10 -1 10 -9 0 -9 7 -16 15 -16 16 0 20 -16 6 -24 -12 -8 -20 -66 -9
-66 4 0 8 9 8 20 0 26 15 26 37 0 17 -20 17 -20 28 0 10 18 13 18 39 5 35 -19
32 -19 41 8 7 20 8 19 15 -13 l7 -35 2 33 c1 32 15 43 24 20 3 -7 6 11 6 40 1
28 -3 52 -9 52 -5 0 -10 18 -10 40 0 36 -2 40 -26 40 -21 0 -25 4 -21 20 3 11
4 20 4 21 -1 0 -22 2 -45 5 -30 4 -42 2 -37 -5 3 -6 12 -11 19 -11 17 0 41
-28 32 -37 -3 -3 -15 2 -26 12 -20 18 -21 18 -27 -3 -3 -15 -13 -22 -29 -22
-19 0 -24 5 -24 26 0 20 -3 24 -13 16 -17 -15 -39 1 -31 21 3 10 1 17 -5 17
-6 0 -11 -5 -11 -11 0 -6 -7 -9 -15 -6 -8 4 -17 2 -20 -2 -8 -15 -157 -4 -190
13 -16 9 -36 16 -42 16 -7 0 -13 4 -13 10 0 12 -74 6 -113 -9 -15 -6 -27 -17
-27 -26 0 -12 5 -13 26 -5 22 9 25 8 20 -6 -4 -12 -2 -15 9 -10 22 8 73 -13
56 -23 -11 -7 -9 -11 5 -19 10 -6 15 -14 11 -18 -5 -5 -12 -2 -17 6 -6 10 -12
11 -22 3 -15 -12 -49 -13 -42 -1 3 4 -2 8 -11 8 -8 0 -19 10 -24 22 l-8 23 -7
-23 c-9 -27 -16 -27 -42 -4 -25 23 -64 28 -64 8 0 -20 -49 24 -70 63 -23 42
-90 141 -124 184 -29 37 -29 38 -14 71 9 18 22 60 28 93 l12 59 81 -13 c102
-16 297 -40 400 -49 58 -5 77 -3 77 6 0 10 3 10 14 1 8 -7 56 -17 108 -22 51
-5 124 -13 161 -17 71 -8 88 -2 67 23 -10 13 -8 15 14 15 16 0 25 -4 21 -10
-3 -5 -2 -10 2 -10 5 0 10 58 11 130 l3 130 -30 0 c-21 0 -29 4 -25 14 3 8 15
11 30 8 l24 -4 0 111 c0 67 -4 110 -9 106 -14 -8 -24 34 -12 49 6 8 9 21 5 30
-3 9 -2 16 4 16 5 0 10 27 10 59 1 45 -2 59 -12 55 -9 -3 -13 5 -13 26 0 17 6
30 13 30 17 0 20 786 3 792 -8 3 -8 20 0 63 15 80 14 962 -1 971 -7 4 -5 9 3
15 11 7 12 12 1 29 -7 12 -8 20 -2 20 7 0 10 180 10 530 0 522 0 530 -20 530
-11 0 -43 9 -72 20 -59 22 -70 25 -48 10 12 -8 9 -10 -10 -6 -14 3 -43 8 -65
11 -88 14 -135 27 -129 36 3 5 0 9 -5 9 -6 0 -11 -4 -11 -10 0 -5 -12 -10 -27
-10 -14 0 -34 -7 -44 -16 -15 -13 -29 -19 -59 -23 -3 -1 -13 -14 -23 -30 -11
-18 -60 -55 -135 -99 -189 -112 -251 -139 -202 -87 16 17 19 25 9 25 -12 0
-12 2 0 9 8 5 20 7 28 4 9 -4 11 0 7 10 -4 12 2 18 22 23 15 4 63 30 106 58
43 28 98 64 123 79 47 30 112 114 98 127 -7 7 -76 20 -242 45 -24 4 -51 14
-61 22 -53 45 -71 65 -66 70 3 4 167 7 364 8 444 2 462 3 462 15 0 7 -655 10
-1944 10 l-1945 0 -110 -167 c-61 -93 -111 -161 -111 -152 0 14 65 121 160
262 l39 57 -1960 0 c-1907 0 -1959 0 -1959 -19z m5957 -341 c2 0 3 -7 3 -15 0
-8 5 -15 11 -15 6 0 9 7 5 15 -7 20 11 19 22 0 4 -9 21 -17 38 -19 16 -3 37
-7 47 -11 9 -4 23 -3 30 3 11 9 41 16 60 13 5 0 5 -6 1 -13 -11 -18 -12 -61
-1 -75 5 -7 19 -13 31 -13 11 0 32 -6 46 -13 14 -8 45 -13 68 -13 45 1 55 -8
22 -19 -27 -9 -18 -21 21 -29 20 -4 29 -11 26 -19 -6 -15 29 -41 43 -32 5 3 7
12 3 21 -4 12 0 14 20 9 25 -7 52 15 29 23 -21 7 -13 23 11 20 12 -2 21 -9 19
-17 -8 -40 37 -80 95 -82 18 -1 22 -3 10 -6 -18 -5 -18 -6 -1 -24 16 -17 16
-19 0 -25 -9 -4 -35 -4 -56 0 -28 4 -40 3 -40 -6 0 -6 -13 0 -28 15 -15 15
-33 27 -40 27 -7 0 -11 5 -10 12 2 6 -6 14 -17 16 -11 2 -32 13 -47 23 -14 11
-31 19 -37 19 -5 0 -14 7 -18 15 -9 15 -160 95 -181 95 -7 0 -12 8 -10 17 2
11 -7 20 -27 26 -16 5 -40 14 -52 20 -12 5 -37 7 -56 3 -25 -5 -38 -2 -47 9
-7 8 -25 15 -40 15 -22 0 -26 4 -24 23 1 12 3 23 3 24 1 1 16 -3 33 -8 18 -5
34 -9 35 -9z m-1602 -40 c-4 -6 -8 -24 -10 -40 -3 -24 -1 -28 13 -23 14 5 15
4 4 -8 -7 -8 -18 -14 -23 -14 -6 0 -26 -28 -44 -63 -31 -57 -32 -61 -12 -51
12 7 28 20 35 31 7 10 23 18 36 18 13 0 31 9 41 20 20 22 35 18 29 -8 -4 -14
6 -19 60 -30 36 -6 75 -12 86 -12 14 0 20 -7 20 -21 0 -18 -4 -20 -27 -14 -16
4 -44 11 -64 15 -19 4 -40 10 -46 13 -6 4 -16 0 -22 -7 -7 -8 -8 -17 -3 -20
11 -7 81 -18 160 -25 6 0 12 -8 12 -17 0 -12 -8 -14 -47 -9 -27 4 -60 11 -76
17 -20 8 -31 7 -43 -2 -13 -12 -9 -16 32 -36 l47 -23 -34 -5 c-19 -3 -52 -7
-74 -8 -34 -3 -42 -8 -57 -37 -18 -36 -57 -81 -70 -81 -4 0 -8 7 -8 15 0 21
-48 126 -67 147 -18 20 -11 48 13 48 10 0 14 5 10 15 -3 9 1 18 9 21 8 4 15
14 15 23 0 9 8 21 18 27 9 6 23 33 31 60 8 27 23 59 34 72 21 23 33 29 22 12z
m-4256 -264 c9 -11 10 -20 1 -36 -6 -12 -11 -31 -10 -43 1 -12 1 -24 0 -27 -8
-16 -6 -56 3 -61 5 -4 13 -29 17 -55 7 -42 5 -52 -13 -71 -11 -13 -15 -23 -9
-23 7 0 12 -4 12 -10 0 -5 -8 -10 -19 -10 -18 0 -28 37 -36 145 -1 17 -6 69
-10 118 l-8 87 30 0 c17 0 36 -6 42 -14z m4373 -107 c15 -8 22 -8 28 1 5 9 13
9 26 2 11 -6 21 -10 24 -9 21 2 80 -16 80 -25 0 -7 -33 -9 -105 -6 -93 4 -107
3 -122 -14 -16 -18 -16 -19 5 -25 17 -4 21 -11 17 -24 -5 -14 -1 -19 14 -19
11 0 23 -4 26 -10 4 -6 -7 -10 -27 -10 -18 0 -44 -9 -58 -20 -32 -25 -37 -25
-44 4 -5 19 -11 23 -28 18 -23 -6 -23 -5 3 29 14 19 29 45 34 57 4 15 23 31
48 43 50 22 52 22 79 8z m-632 -29 c0 -11 4 -20 10 -20 5 0 14 9 20 20 13 24
58 27 66 5 4 -8 3 -27 0 -41 -6 -23 -11 -26 -37 -20 -22 4 -35 0 -49 -14 -11
-11 -28 -20 -37 -21 -12 0 -8 -4 9 -11 22 -7 31 -6 44 6 17 18 20 18 52 9 16
-4 20 -8 12 -13 -7 -4 -14 -21 -16 -38 -3 -27 0 -31 26 -37 31 -7 38 -19 18
-31 -6 -4 -14 -2 -16 4 -4 12 -81 -46 -82 -61 0 -4 9 -17 19 -29 17 -17 24
-19 50 -10 17 6 31 9 31 6 0 -13 -38 -39 -53 -36 -13 3 -15 -1 -11 -15 4 -10
14 -24 22 -30 9 -7 13 -16 9 -20 -4 -3 -15 1 -25 10 -10 10 -25 17 -33 17 -9
0 -5 -7 10 -19 13 -10 19 -21 14 -24 -6 -4 -20 3 -32 14 -16 15 -22 30 -19 55
3 38 -17 68 -31 45 -5 -7 -14 -10 -20 -6 -8 5 -11 -2 -9 -22 3 -23 -1 -29 -22
-31 -14 -2 -33 -11 -43 -20 -15 -14 -16 -17 -2 -38 19 -29 20 -88 3 -81 -7 2
-13 14 -12 26 1 24 -6 27 -24 9 -9 -9 -18 -9 -38 1 l-27 12 22 23 c26 27 27
41 4 31 -29 -12 -82 -14 -89 -4 -3 6 -1 16 5 23 8 10 6 18 -9 31 -11 10 -18
20 -16 24 2 3 34 5 70 5 57 -1 66 1 66 17 0 28 -18 32 -53 11 -60 -35 -89 -3
-46 52 17 22 20 34 13 64 -4 20 -6 43 -5 50 1 6 -3 12 -9 12 -5 0 -10 -15 -10
-33 0 -45 -7 -50 -40 -25 -33 24 -50 17 -48 -20 1 -15 -1 -37 -5 -49 -7 -19
-4 -22 25 -25 18 -2 32 -6 31 -10 -2 -5 -5 -8 -8 -8 -3 1 -13 -6 -21 -15 -17
-17 -44 -20 -44 -5 0 6 -7 10 -15 10 -8 0 -15 -7 -15 -16 0 -29 22 -104 31
-104 5 0 9 -8 9 -17 0 -15 -2 -14 -14 3 -14 18 -15 18 -21 2 -10 -26 -24 -22
-17 5 5 19 3 20 -10 9 -12 -10 -17 -10 -20 -1 -3 10 -12 9 -36 -2 -22 -9 -30
-19 -27 -30 3 -9 -1 -19 -10 -22 -8 -4 -12 -13 -9 -22 3 -8 2 -15 -2 -15 -12
0 -39 61 -36 78 2 7 -6 24 -18 39 -11 15 -17 29 -13 32 4 3 13 15 19 26 10 18
9 21 -14 23 -14 1 -29 8 -33 14 -16 26 -17 0 -2 -46 16 -48 16 -49 -8 -67 -13
-10 -28 -18 -34 -17 -5 1 -23 -2 -38 -7 -23 -6 -32 -3 -52 19 -13 14 -27 21
-30 16 -10 -15 -18 -12 -52 19 -33 30 -33 41 -1 41 10 0 18 7 18 15 0 18 12
19 28 3 9 -9 13 -7 17 8 4 10 11 27 16 37 12 23 3 37 -24 37 -16 0 -18 3 -8 9
11 7 10 10 -3 18 -28 15 5 36 44 28 29 -6 30 -9 24 -43 -4 -21 -11 -40 -17
-43 -18 -12 4 -30 26 -23 12 4 31 7 42 7 11 -1 14 1 8 4 -7 3 -13 13 -13 23 0
10 -6 20 -12 23 -10 3 -10 7 1 20 17 22 41 22 41 1 0 -12 6 -15 25 -10 18 5
23 3 19 -8 -6 -17 12 -31 21 -16 3 5 14 10 23 10 13 0 13 -2 -4 -15 -12 -9
-14 -14 -6 -15 22 0 52 20 52 35 0 18 12 19 28 3 9 -9 16 -8 31 6 17 15 19 15
25 1 10 -26 49 -14 60 18 8 22 7 30 -4 38 -11 8 -12 12 -2 16 17 7 15 26 -3
19 -17 -6 -18 -4 -9 18 4 11 10 13 18 8 6 -5 25 -14 43 -20 25 -8 34 -8 44 4
9 11 8 14 -2 14 -23 0 -22 64 1 91 l19 24 2 -30 c1 -16 2 -38 1 -47 -2 -20 14
-24 21 -5 2 7 12 -2 24 -21 17 -28 22 -31 33 -17 7 8 24 15 39 14 l26 -1 -27
-11 c-27 -11 -45 -46 -25 -48 7 0 35 -2 62 -4 l50 -4 -29 23 -29 24 43 7 c35
6 41 10 37 26 -3 10 -2 19 3 19 4 0 11 8 14 18 22 58 46 80 46 42z m-914 -107
l-6 -28 20 23 c20 24 40 22 40 -5 0 -8 -9 -17 -19 -20 -12 -3 -23 -17 -26 -34
-4 -15 -17 -44 -30 -63 -13 -20 -20 -38 -15 -41 15 -9 12 -22 -5 -29 -20 -7
-43 33 -24 44 9 6 9 12 -4 25 -10 9 -17 23 -17 32 0 8 -5 12 -12 9 -7 -3 -20
-9 -30 -12 -9 -3 -18 -14 -21 -25 -6 -21 -27 -26 -27 -6 0 21 30 57 47 57 9 0
31 11 49 25 34 26 50 32 39 15 -3 -5 1 -10 9 -10 19 0 21 11 4 28 -8 8 -8 15
2 27 20 24 33 18 26 -12z m1309 16 c4 -6 13 -8 20 -5 10 4 11 -2 4 -27 -13
-45 -12 -49 10 -37 11 5 28 10 38 10 15 -1 13 -5 -10 -25 -15 -13 -34 -22 -42
-19 -23 9 -17 -14 7 -27 l22 -12 -27 -23 c-15 -13 -27 -28 -27 -34 0 -5 -9
-10 -20 -10 -23 0 -24 4 -10 30 16 30 -6 33 -29 4 l-21 -27 3 34 c2 20 8 33
15 32 7 -2 12 2 12 7 0 6 -7 10 -16 10 -26 0 -11 22 29 43 40 20 46 37 22 60
-8 8 -11 17 -8 21 9 9 21 7 28 -5z m-1575 -65 c11 -32 10 -39 -9 -65 -19 -26
-14 -48 8 -35 8 5 61 -55 61 -69 0 -3 -13 -11 -30 -16 -16 -6 -30 -15 -30 -20
0 -13 -46 -59 -59 -59 -5 0 -7 9 -4 19 3 11 -2 30 -11 43 -18 26 -20 38 -6 38
6 0 10 -7 10 -15 0 -27 27 -16 48 19 l20 33 -29 1 c-16 0 -29 -4 -29 -9 0 -6
-4 -7 -10 -4 -17 11 -11 42 12 57 21 14 21 16 5 32 -20 21 -22 32 -4 40 9 5 9
7 -2 12 -11 5 -8 11 10 25 29 21 34 18 49 -27z m-310 6 c0 -12 -11 -32 -25
-46 -14 -14 -25 -29 -25 -34 0 -19 22 -10 47 20 13 17 33 30 44 30 28 0 23
-12 -19 -41 -25 -17 -42 -39 -51 -67 -8 -22 -20 -43 -27 -46 -8 -3 -14 -19
-14 -36 0 -38 -16 -38 -51 1 -26 29 -31 58 -8 43 7 -4 9 4 7 20 -2 15 -7 25
-13 24 -5 -2 -9 -10 -8 -18 1 -8 -7 -20 -18 -28 -21 -14 -26 -54 -7 -49 6 1
16 -14 22 -34 16 -52 57 -102 77 -94 24 9 12 44 -17 51 -24 6 -34 34 -12 34
20 0 58 42 58 66 0 23 57 87 71 79 4 -3 4 -19 -1 -36 -8 -27 -6 -32 10 -36 27
-7 25 -31 -2 -35 -16 -2 -23 -10 -23 -24 -1 -12 -5 -28 -11 -35 -23 -29 -23
-36 -1 -34 13 1 23 9 25 21 6 30 18 37 41 24 15 -7 20 -17 16 -29 -4 -13 0
-17 16 -17 12 1 24 -4 26 -11 6 -17 -46 -28 -68 -14 -30 18 -56 13 -78 -15
-15 -20 -21 -22 -21 -10 0 19 -11 21 -28 4 -9 -9 -15 -9 -24 0 -7 7 -24 12
-39 12 -29 0 -45 30 -27 48 7 7 1 16 -16 27 -21 14 -24 20 -15 31 9 11 9 14 0
14 -6 0 -14 -13 -17 -30 -4 -19 -13 -30 -23 -30 -9 0 -27 -7 -39 -16 -19 -13
-22 -13 -22 0 0 8 16 23 35 32 21 10 35 23 35 35 0 10 5 21 10 24 17 10 12 38
-6 31 -16 -6 -16 -6 1 52 8 26 -9 30 -24 5 -9 -16 -12 -16 -21 -3 -16 24 -11
51 10 57 13 3 20 14 20 28 0 26 28 40 60 30 13 -4 30 1 46 14 32 25 44 26 44
6 0 -21 13 -19 35 5 23 26 45 26 45 0z m2265 -55 c0 -5 -14 -11 -32 -13 -40
-4 -43 -17 -34 -151 1 -19 4 -21 15 -12 9 8 28 10 51 5 33 -6 35 -8 20 -23
-19 -22 -19 -31 0 -31 7 0 19 -8 25 -17 10 -16 10 -16 5 3 -5 20 -2 21 51 18
79 -4 116 -14 111 -27 -5 -17 -46 -21 -72 -7 -12 7 -31 10 -40 8 -18 -3 -18
-4 0 -21 15 -15 16 -22 6 -43 -6 -14 -9 -29 -7 -33 3 -4 -11 -7 -30 -7 -33 0
-41 6 -27 20 14 14 8 51 -11 69 -24 22 -24 22 -54 -10 -21 -23 -26 -24 -36
-12 -12 15 -40 19 -52 7 -4 -4 -12 -1 -18 8 -10 14 -15 14 -41 0 -36 -19 -45
-20 -45 -4 0 16 40 58 56 58 6 0 18 7 25 17 13 15 11 16 -13 9 -21 -5 -28 -3
-28 9 0 10 -10 14 -35 13 -29 -1 -34 -4 -31 -22 2 -12 1 -15 -1 -8 -3 6 -13
12 -24 12 -21 0 -27 30 -6 30 6 0 27 21 46 45 32 43 67 62 55 30 -4 -11 -2
-13 9 -9 8 3 18 1 22 -5 10 -17 21 -13 22 8 1 11 -7 22 -20 26 -20 7 -19 8 11
14 42 8 46 24 8 31 -35 6 -36 26 -1 22 12 -2 26 1 29 6 7 11 91 0 91 -13z
m2575 -213 c0 -11 9 -14 62 -26 19 -4 26 -11 22 -21 -4 -8 -2 -15 2 -15 5 0
21 -11 37 -24 28 -24 29 -56 1 -56 -23 0 -16 -36 11 -50 29 -16 31 -27 9 -78
-14 -34 -17 -35 -28 -19 -21 28 -37 21 -20 -10 7 -16 14 -34 14 -40 0 -7 5
-13 11 -13 6 0 8 -10 5 -22 -3 -13 -3 -18 0 -11 3 7 12 9 20 6 10 -4 12 0 8
11 -7 19 12 22 20 4 5 -10 7 -10 12 0 3 6 10 12 16 12 5 0 1 -12 -10 -27 -21
-30 -26 -90 -9 -111 14 -18 1 -27 -18 -12 -12 10 -15 10 -15 -3 0 -8 14 -21
30 -29 17 -7 30 -16 30 -19 0 -4 18 -7 41 -7 62 -1 60 -12 -2 -13 -66 -1 -101
-10 -107 -27 -2 -8 5 -16 17 -19 12 -3 21 -12 21 -19 0 -16 22 -18 67 -5 20 6
35 6 38 0 4 -5 -5 -9 -18 -9 -30 0 -49 -22 -49 -55 0 -23 -31 -45 -45 -31 -3
3 -12 -6 -20 -20 -11 -23 -11 -28 3 -39 15 -11 15 -12 -5 -18 -25 -6 -28 -34
-3 -54 16 -14 16 -14 0 -9 -10 3 -18 1 -18 -4 0 -12 29 -40 42 -40 7 0 2 -10
-10 -23 -28 -30 -28 -37 2 -37 18 0 26 -7 31 -27 4 -16 10 -22 12 -15 7 19 22
4 16 -17 -5 -18 -22 -23 -90 -23 -18 1 -33 -1 -33 -3 0 -16 15 -35 27 -35 8 0
11 -5 8 -11 -4 -6 2 -13 14 -16 25 -6 27 -18 5 -27 -13 -5 -14 -9 -4 -21 7 -8
21 -15 31 -15 16 0 17 -4 9 -26 -9 -22 -6 -32 15 -61 l26 -34 39 31 c21 16 47
30 59 30 17 0 14 -6 -21 -42 -35 -35 -39 -44 -29 -60 6 -10 9 -23 6 -28 -4 -6
-1 -10 4 -10 6 0 11 7 11 15 0 8 9 19 20 25 21 11 29 -3 10 -15 -6 -4 -9 -14
-8 -23 2 -9 -8 -22 -24 -29 -23 -12 -30 -11 -47 3 -11 10 -18 21 -16 24 2 4
-3 22 -13 41 -13 26 -23 33 -40 31 -12 -2 -22 -10 -22 -18 0 -18 -14 -18 -30
1 -16 19 -57 19 -92 1 -23 -12 -27 -12 -32 0 -7 19 -26 18 -26 -3 0 -15 -2
-15 -19 1 -17 15 -25 16 -55 6 -40 -13 -56 -7 -56 21 0 15 7 19 34 19 19 0 38
5 41 10 3 6 1 10 -4 10 -6 0 -11 5 -11 10 0 6 7 10 15 10 8 0 15 -5 15 -11 0
-6 7 -3 16 5 8 9 19 16 24 16 9 0 5 58 -4 68 -3 2 -8 -3 -12 -12 -9 -24 -24
-19 -24 9 0 13 7 28 16 33 13 7 17 25 17 78 1 117 -5 234 -13 239 -3 2 -5 21
-2 42 6 57 6 58 -3 208 -4 77 -8 149 -7 160 1 11 2 99 2 195 -1 96 2 198 6
227 l6 53 19 -24 c11 -13 19 -29 19 -34z m-5235 -78 c8 -9 22 -13 30 -10 9 3
25 -4 37 -16 l22 -22 9 22 c10 22 41 30 52 12 3 -5 12 -7 20 -3 8 3 15 0 15
-6 0 -7 -7 -14 -15 -17 -17 -7 -21 -34 -5 -34 6 0 10 -4 10 -9 0 -14 -43 0
-57 18 -9 13 -11 10 -10 -19 2 -29 -2 -36 -20 -38 -13 -2 -23 -10 -23 -18 0
-17 5 -17 29 -2 15 9 24 8 45 -5 30 -20 35 -47 8 -47 -26 0 -42 -20 -42 -51 0
-14 -11 -38 -25 -53 -29 -32 -29 -33 -11 -52 17 -16 30 -19 21 -4 -3 6 5 14
19 20 16 6 26 17 26 30 0 22 -16 27 -23 8 -2 -7 -8 -10 -12 -5 -5 4 -3 13 3
19 10 10 16 10 30 0 9 -7 25 -15 35 -18 36 -13 13 -44 -33 -44 -10 0 -20 -8
-24 -17 -3 -10 -9 -24 -12 -30 -3 -8 1 -13 10 -13 25 0 19 -16 -16 -45 -17
-15 -25 -26 -17 -24 8 1 22 -1 32 -6 10 -4 23 -2 32 5 19 16 19 34 0 27 -28
-11 -25 12 4 32 37 27 49 26 53 -1 2 -14 14 -25 35 -32 18 -6 32 -15 32 -21
-1 -5 12 -16 29 -25 25 -12 31 -22 34 -54 4 -49 21 -57 38 -17 11 29 40 50 40
31 0 -6 -4 -10 -10 -10 -5 0 -10 -5 -10 -11 0 -6 -11 -25 -24 -42 -13 -18 -27
-42 -31 -54 -3 -13 -11 -23 -16 -23 -6 0 -8 9 -4 19 3 11 1 22 -4 25 -5 4 -13
-3 -16 -14 -4 -13 -13 -20 -23 -17 -17 3 -18 9 -7 40 6 13 2 17 -19 17 -15 0
-29 -7 -32 -15 -7 -18 -31 -20 -36 -3 -3 7 -5 -6 -6 -30 -1 -31 2 -42 13 -42
20 0 20 -39 0 -46 -8 -4 -15 -11 -15 -17 0 -6 11 0 24 13 23 21 26 21 41 6 9
-9 21 -14 26 -11 5 4 9 1 9 -4 0 -6 5 -11 10 -11 6 0 10 6 9 13 -4 28 2 47 14
47 9 0 13 -16 12 -55 0 -30 -3 -55 -7 -55 -5 0 -8 5 -8 11 0 5 -4 8 -9 5 -5
-3 -7 -15 -4 -26 3 -11 2 -20 -2 -20 -11 0 -44 43 -45 58 0 20 -20 3 -20 -17
0 -10 -9 -26 -20 -36 -19 -17 -19 -19 -4 -37 14 -14 20 -15 31 -6 11 9 16 9
22 -1 5 -7 18 -10 32 -6 20 5 28 1 39 -19 7 -14 17 -26 22 -26 4 0 8 -9 8 -20
0 -23 11 -25 58 -8 29 11 36 10 46 -4 10 -14 14 -14 31 -2 10 8 26 14 34 14
13 0 12 -4 -4 -18 -41 -34 -46 -46 -29 -71 l16 -22 15 20 c8 12 20 21 27 21
15 0 51 -111 43 -131 -4 -10 -6 -9 -6 4 -1 9 -5 17 -10 17 -5 0 -14 14 -21 30
-7 17 -19 30 -27 30 -12 0 -13 -3 -3 -15 9 -11 9 -22 0 -52 -7 -21 -16 -42
-21 -48 -14 -14 -11 -23 14 -39 32 -21 71 -31 62 -17 -7 12 11 41 26 41 10 0
1 -56 -13 -82 -12 -24 -32 -23 -25 2 4 16 2 18 -13 10 -27 -15 -32 -12 -25 11
5 15 4 19 -4 15 -6 -4 -11 -13 -11 -19 0 -7 -9 -18 -20 -25 -13 -8 -20 -8 -20
-2 0 6 -9 20 -19 32 -15 15 -27 19 -45 14 -16 -4 -26 -2 -26 4 0 6 -9 14 -21
18 -19 7 -19 9 -5 21 12 10 16 11 16 1 0 -8 8 -10 24 -6 14 3 28 2 31 -4 11
-17 22 -11 27 14 6 31 -18 61 -64 77 -36 12 -65 6 -41 -9 8 -5 6 -15 -8 -32
-16 -21 -20 -23 -29 -10 -14 21 -12 30 5 30 8 0 15 5 15 10 0 6 -11 10 -23 10
-13 0 -32 9 -42 20 -18 20 -18 21 3 27 27 7 19 23 -11 23 -12 0 -28 9 -35 21
-10 15 -21 19 -45 17 -29 -3 -32 -1 -30 25 1 15 -2 25 -8 22 -5 -4 -9 1 -9 10
0 21 -27 30 -45 15 -12 -10 -15 -9 -15 5 0 14 -5 12 -21 -9 -16 -21 -24 -24
-30 -15 -14 23 -19 4 -9 -31 5 -18 7 -37 4 -42 -3 -5 -3 -20 0 -34 5 -18 13
-24 34 -24 17 0 32 -8 40 -21 13 -21 7 -43 -6 -23 -4 6 -20 14 -35 18 -24 6
-30 3 -34 -14 -8 -31 -26 -24 -21 10 3 23 0 31 -14 36 -11 3 -25 0 -33 -6 -12
-10 -15 -9 -15 2 0 27 22 83 38 95 13 11 13 15 -2 37 -27 43 -15 95 20 82 13
-5 15 -9 6 -18 -7 -7 -12 -17 -12 -24 0 -17 38 -24 44 -8 3 7 17 16 31 20 14
3 25 11 25 16 0 6 -11 7 -24 4 -20 -5 -27 -1 -40 25 -8 16 -13 36 -10 44 3 7
1 16 -5 19 -6 4 -8 13 -4 21 3 9 -1 15 -11 15 -9 0 -15 -7 -14 -17 4 -38 -15
-94 -40 -113 -16 -13 -28 -17 -32 -10 -4 7 -16 7 -39 -1 -17 -6 -35 -9 -38 -5
-10 10 18 35 48 41 32 7 44 19 34 35 -4 7 -17 4 -35 -7 -16 -9 -32 -14 -35
-11 -10 10 6 58 20 58 6 0 20 9 30 20 11 12 25 18 36 15 24 -8 32 10 13 29
-23 24 -12 40 27 40 33 1 34 2 31 36 -2 19 -9 38 -15 42 -7 4 -7 11 3 22 11
15 15 15 29 2 14 -13 19 -12 39 9 27 28 28 49 3 74 -17 17 -18 24 -7 54 6 19
17 42 25 50 21 26 4 38 -42 30 -39 -6 -48 -10 -82 -41 -20 -18 -33 -7 -27 23
3 17 0 25 -10 25 -10 0 -14 10 -13 33 4 56 17 97 31 97 8 0 14 9 14 19 0 10 7
22 16 25 9 4 14 9 10 13 -3 3 -15 -2 -26 -12 -11 -10 -28 -15 -40 -12 -13 3
-23 0 -27 -9 -7 -20 -25 -18 -51 6 -16 15 -19 26 -13 42 12 33 31 34 31 3 0
-24 2 -26 16 -14 9 8 18 9 22 3 11 -15 36 -11 56 9 10 9 25 17 34 17 11 0 17
8 17 23 1 12 4 39 9 61 7 36 6 38 -13 33 -12 -3 -24 -1 -27 4 -10 17 -24 9
-24 -14 0 -13 -4 -27 -9 -32 -5 -6 -11 -21 -13 -34 -4 -31 -32 -50 -54 -36
-23 15 -23 29 1 33 44 7 47 10 31 34 -18 27 -13 36 34 66 42 26 63 28 85 6z
m-1780 -45 c4 -5 -1 -19 -11 -30 -21 -24 -10 -38 17 -21 11 7 25 9 32 5 7 -4
48 -8 92 -9 115 -2 255 -15 261 -26 3 -5 1 -15 -5 -22 -6 -7 -7 -16 -3 -21 4
-4 -13 -5 -38 -1 -25 4 -72 11 -105 16 -33 4 -87 16 -120 24 -40 11 -79 14
-117 10 -48 -6 -61 -3 -84 15 l-27 21 29 0 c25 1 26 2 11 11 -23 14 -12 32 13
19 13 -7 19 -6 24 5 6 17 22 20 31 4z m2917 -76 c23 -21 23 -33 -1 -33 -25 0
-28 -6 -32 -55 -3 -29 0 -39 9 -37 8 1 16 -7 19 -18 6 -23 8 -24 34 -10 10 6
19 18 19 27 0 9 -3 13 -6 10 -10 -10 -45 13 -38 24 4 6 11 6 19 -1 8 -7 19 -9
24 -6 16 10 32 -29 19 -42 -12 -12 -10 -13 32 -16 11 -1 14 -12 12 -43 -3 -31
1 -44 14 -51 20 -11 13 -42 -10 -42 -10 0 -14 9 -13 26 1 16 -4 29 -12 32 -10
3 -12 0 -8 -12 11 -27 -15 -18 -44 17 l-28 32 -1 -48 c0 -42 -2 -48 -18 -43
-10 4 -26 0 -36 -7 -15 -11 -16 -17 -5 -42 20 -48 19 -66 -2 -60 -25 8 -24
-12 1 -27 29 -18 26 -56 -5 -68 -14 -5 -25 -14 -25 -19 0 -6 7 -8 15 -5 8 4
15 1 15 -5 0 -6 7 -11 15 -11 8 0 15 -7 15 -15 0 -8 6 -15 13 -15 8 0 13 -15
13 -40 1 -26 -3 -39 -10 -37 -6 2 -11 17 -12 33 0 22 -5 29 -19 27 -11 -1 -23
3 -26 9 -4 6 -12 7 -18 3 -9 -5 -9 -10 -1 -20 18 -22 -12 -38 -43 -22 l-26 14
27 27 c25 25 26 28 10 37 -10 6 -18 17 -18 25 0 9 -6 14 -12 11 -7 -2 -12 -11
-10 -21 4 -22 -17 -21 -24 2 -3 9 -13 32 -22 51 -13 26 -14 35 -4 38 6 3 10 9
6 14 -9 16 -20 10 -33 -18 -12 -26 -13 -27 -26 -9 -12 16 -12 22 2 42 17 26 3
33 -17 9 -19 -23 -27 -18 -33 22 -6 33 -3 41 21 60 34 28 52 29 49 2 -3 -27
23 -38 29 -13 5 20 54 49 54 33 0 -5 -9 -18 -21 -30 -23 -23 -18 -39 6 -19 8
7 15 9 15 4 0 -5 13 -16 28 -25 24 -14 32 -14 47 -3 16 12 16 14 2 20 -9 3
-21 3 -28 -1 -10 -7 -28 10 -29 28 0 4 14 7 30 7 32 0 42 23 15 34 -18 7 -20
26 -2 26 14 0 77 55 77 67 0 20 -24 32 -53 26 -28 -6 -30 -5 -25 24 4 27 2 30
-26 30 -17 0 -34 -5 -38 -10 -4 -7 -12 -6 -22 2 -8 7 -24 10 -35 6 -10 -3 -22
-1 -26 5 -3 5 2 10 13 10 11 0 23 7 26 16 4 10 13 13 25 9 10 -3 24 1 31 10 7
8 20 13 29 10 9 -2 29 2 44 10 15 8 34 12 42 8 8 -3 15 0 15 6 0 6 -6 11 -14
11 -8 0 -18 5 -21 10 -10 16 27 11 47 -7z m-591 -234 c-22 -23 -21 -39 1 -22
7 6 27 13 43 17 24 6 28 5 18 -5 -20 -20 -16 -29 12 -29 14 0 25 5 25 10 0 6
8 10 18 10 10 0 23 5 30 12 9 9 16 7 32 -7 18 -16 19 -20 5 -35 -22 -25 -18
-33 25 -53 29 -14 39 -24 38 -40 0 -12 3 -34 7 -49 6 -22 4 -28 -9 -28 -21 0
-39 36 -31 61 6 19 4 20 -22 17 -15 -3 -23 -3 -16 -1 6 2 14 10 17 18 4 11 -4
14 -30 13 -27 -1 -39 -7 -47 -25 -16 -35 -29 -28 -21 12 6 35 6 36 -20 29 -25
-6 -38 -2 -118 37 -24 12 -28 11 -28 -6 0 -18 -9 -19 -30 -4 -13 9 -13 11 0
16 8 4 34 26 58 51 30 31 47 41 54 34 7 -7 4 -17 -11 -33z m839 -189 c0 -6 -6
-13 -14 -16 -8 -3 -12 -12 -9 -20 4 -12 8 -12 20 -2 10 8 16 9 21 1 5 -8 27
-8 80 0 65 10 71 13 66 32 -5 18 -5 18 7 4 12 -15 52 -26 154 -46 17 -3 42
-19 56 -34 14 -16 33 -29 42 -29 10 0 17 -5 17 -12 0 -6 3 -9 6 -5 9 9 34 -18
34 -36 0 -10 7 -13 19 -10 13 3 23 -2 30 -16 10 -17 9 -21 -4 -21 -19 0 -19
-5 -1 -33 7 -12 16 -38 20 -57 l6 -34 -34 34 c-20 19 -36 40 -36 45 0 6 -17
23 -38 38 -27 21 -43 26 -61 22 -43 -11 -112 -64 -180 -138 -36 -40 -88 -94
-114 -121 -26 -27 -53 -58 -59 -69 -10 -19 -9 -19 17 1 36 29 51 28 94 -5 62
-48 171 -30 171 27 0 23 -50 57 -59 41 -7 -11 -95 -1 -108 13 -3 3 8 20 24 38
17 18 51 56 76 83 l46 50 77 0 77 0 35 -47 c26 -37 34 -58 35 -94 0 -25 -5
-49 -11 -53 -6 -3 -12 -22 -14 -41 l-3 -35 -52 3 c-45 3 -56 0 -78 -22 -18
-18 -25 -36 -25 -62 0 -21 3 -34 7 -31 3 4 15 0 25 -10 10 -9 28 -21 41 -28
19 -10 25 -7 50 23 15 19 27 39 27 43 0 5 5 9 10 9 32 0 -12 -76 -57 -99 -13
-6 -23 -20 -23 -31 0 -18 -26 -40 -48 -40 -5 0 -13 19 -18 43 -9 39 -11 42
-40 39 -19 -2 -36 3 -44 13 -7 8 -24 15 -39 15 -24 -1 -24 -2 -8 -14 18 -14
23 -41 8 -50 -11 -7 -114 28 -118 40 -4 11 58 44 81 44 8 0 17 7 20 16 5 14 1
16 -27 11 -18 -3 -50 -12 -70 -21 -31 -12 -37 -20 -37 -44 0 -35 18 -53 47
-46 12 4 36 -4 59 -18 22 -14 47 -27 57 -31 37 -14 1 -50 -42 -42 -32 6 -23
-27 11 -39 22 -8 32 -5 58 17 17 15 38 27 46 27 25 0 -8 -63 -42 -79 -16 -8
-23 -16 -16 -19 14 -4 17 -32 3 -32 -6 0 -13 5 -16 10 -4 6 -11 8 -16 4 -13
-8 9 -34 28 -34 8 0 11 -4 8 -10 -9 -15 -22 -12 -42 9 -12 12 -40 21 -78 26
-33 4 -72 13 -87 21 -15 8 -31 14 -36 14 -5 0 -9 -28 -8 -62 2 -56 -1 -65 -22
-84 -21 -17 -23 -23 -13 -42 9 -17 21 -22 51 -22 33 0 40 -3 40 -20 0 -10 10
-24 22 -31 21 -11 94 -8 130 6 12 5 20 1 24 -9 11 -28 -5 -66 -31 -76 -27 -10
-34 -30 -10 -30 12 0 15 -15 15 -71 0 -95 -16 -155 -43 -164 -12 -4 -79 -9
-148 -12 -143 -6 -291 10 -316 35 -37 38 -79 166 -118 361 l-25 125 27 28 c14
15 35 30 45 34 10 3 18 11 18 19 0 8 8 16 19 20 22 7 37 65 20 76 -6 4 -9 11
-5 17 8 13 -32 3 -61 -15 -12 -8 -25 -28 -28 -44 -4 -16 -11 -31 -16 -34 -5
-4 -9 -13 -9 -21 0 -24 -52 -65 -76 -59 -20 4 -50 -16 -39 -26 2 -3 -8 -6 -22
-7 -14 -1 -31 -9 -37 -17 -6 -9 -33 -17 -61 -20 -71 -7 -138 -31 -181 -66 -20
-16 -40 -29 -43 -29 -16 0 -83 -73 -92 -100 -6 -16 -16 -30 -23 -30 -13 0 -86
-116 -86 -137 0 -7 -5 -13 -11 -13 -5 0 -15 -13 -20 -30 -6 -16 -17 -30 -25
-30 -8 0 -14 -4 -14 -9 0 -11 -59 -20 -66 -10 -2 4 6 20 19 36 32 39 66 93
132 206 46 80 54 101 44 113 -7 9 -20 12 -33 8 -20 -6 -20 -5 -4 12 13 13 20
15 31 6 8 -7 17 -9 20 -5 4 3 7 1 7 -6 0 -15 55 12 63 31 2 7 22 19 43 27 22
8 54 27 72 42 32 28 59 39 47 19 -7 -11 9 -13 43 -4 24 7 30 24 8 24 -8 0 -18
9 -21 20 -7 24 -23 26 -31 5 -4 -8 -13 -15 -22 -15 -31 0 -102 -33 -102 -47 0
-21 -23 -10 -26 12 -2 10 0 32 3 48 5 23 10 28 26 23 22 -6 78 19 90 41 5 7
12 11 17 8 6 -4 7 7 4 24 -5 24 -1 39 18 63 20 27 23 39 16 63 -6 23 -4 33 9
43 27 20 46 16 33 -7 -16 -30 -12 -33 19 -16 17 8 42 30 56 49 14 19 44 46 65
60 22 14 40 33 40 41 0 8 5 15 10 15 6 0 10 9 10 20 0 15 7 20 28 21 53 1 107
10 116 19 6 6 5 19 -2 35 -7 15 -8 25 -2 25 6 0 10 -4 10 -9 0 -4 13 -8 29 -7
16 1 27 5 24 9 -3 4 1 15 8 23 11 13 10 18 -4 25 -24 14 -22 18 23 69 23 24
38 50 35 57 -2 8 11 28 30 44 19 17 33 35 30 39 -3 5 -1 11 5 15 15 9 12 25
-5 25 -8 0 -15 7 -15 15 0 8 5 15 11 15 6 0 3 7 -5 16 -9 8 -13 20 -10 26 4 7
14 1 25 -13 l19 -24 1 35 c1 24 3 28 6 13 3 -14 12 -23 22 -23 35 0 79 22 84
41 5 18 2 19 -24 14 -39 -9 -37 9 4 29 17 8 28 16 22 16 -12 2 25 18 43 19 6
1 12 -4 12 -9z m890 -189 c0 -6 -5 -13 -11 -17 -7 -4 -2 -15 15 -31 32 -29 33
-52 4 -79 -13 -12 -47 -45 -77 -73 -30 -28 -54 -51 -55 -51 -1 0 -2 14 -3 30
-2 23 2 30 16 30 24 0 65 45 58 64 -8 20 -27 21 -27 2 0 -7 -8 -20 -17 -27
-15 -12 -16 -12 -10 4 4 11 2 17 -8 17 -41 0 0 73 64 115 40 26 51 30 51 16z
m362 -256 c25 -29 54 -32 79 -9 17 15 18 15 23 -7 3 -13 7 -46 10 -73 3 -27
10 -54 16 -61 5 -6 14 -35 21 -63 12 -59 16 -63 47 -51 15 6 22 17 22 36 1 26
1 27 12 8 6 -11 15 -23 20 -26 6 -3 3 -9 -6 -12 -10 -4 -16 -18 -16 -37 0 -16
-9 -39 -19 -49 -18 -18 -18 -20 -2 -45 10 -14 39 -41 66 -60 45 -32 53 -34
108 -30 32 2 63 6 68 9 5 4 25 2 44 -4 31 -8 39 -7 56 10 45 45 98 46 155 3
17 -13 49 -30 71 -38 22 -8 62 -31 88 -51 27 -20 64 -44 84 -55 20 -10 61 -43
91 -74 30 -31 78 -72 105 -90 49 -33 53 -34 170 -39 112 -4 125 -6 205 -42 47
-20 108 -45 135 -55 28 -10 105 -43 173 -74 68 -31 130 -56 138 -56 9 0 35
-14 59 -30 60 -42 110 -116 143 -215 6 -16 22 -61 36 -100 14 -38 26 -71 26
-72 0 -2 -9 -3 -19 -3 -11 0 -23 -5 -26 -10 -4 -7 -14 -5 -27 4 -11 8 -27 12
-34 9 -8 -3 -25 2 -39 11 -13 9 -26 12 -30 7 -3 -5 0 -11 7 -13 7 -3 9 -12 4
-24 -7 -18 -8 -18 -20 4 -15 28 -25 21 -18 -13 3 -18 10 -24 25 -22 18 2 23
-7 35 -66 7 -38 10 -72 6 -75 -4 -4 -9 -1 -11 6 -3 6 -9 12 -15 12 -6 0 -8 -6
-5 -14 3 -7 0 -19 -6 -25 -8 -8 -8 -11 0 -11 6 0 13 -9 16 -20 4 -14 0 -20
-12 -20 -26 0 -51 -32 -45 -56 5 -18 2 -20 -25 -16 -29 4 -31 2 -31 -29 0 -19
-3 -45 -7 -58 -5 -20 -3 -22 14 -17 12 4 25 1 33 -9 10 -12 9 -20 -4 -40 -9
-14 -23 -25 -31 -25 -8 0 -15 -3 -15 -7 0 -5 -4 -25 -9 -46 -9 -37 -8 -38 20
-44 43 -8 43 -19 1 -20 -43 -2 -112 -29 -112 -44 0 -11 -66 -103 -104 -144
-13 -14 -35 -27 -48 -29 -13 -1 -28 -5 -34 -8 -5 -4 -16 -3 -24 3 -8 5 -23 9
-32 9 -10 0 -44 20 -77 45 -32 25 -63 45 -68 45 -4 0 -21 11 -38 24 -26 21
-33 23 -55 11 -14 -7 -36 -12 -50 -10 -14 1 -33 3 -43 4 -29 2 -17 43 20 66
40 25 42 50 4 63 -18 7 -39 27 -56 57 -31 52 -28 64 9 39 15 -9 28 -15 31 -13
7 7 -13 81 -25 93 -8 8 -15 6 -27 -9 -15 -20 -15 -20 -10 3 5 23 -2 29 -55 46
-11 3 -15 11 -12 21 5 12 14 14 37 9 26 -5 29 -4 22 12 -18 47 -25 84 -31 178
-3 55 -8 104 -11 109 -10 17 35 130 78 193 20 30 47 50 101 76 108 54 112 55
254 64 83 6 111 4 158 -11 32 -10 61 -26 67 -37 17 -32 27 -10 17 34 -15 63
-28 73 -72 58 -31 -10 -41 -9 -61 4 -18 12 -30 14 -51 6 -18 -7 -30 -7 -39 0
-13 11 -40 9 -129 -10 -26 -5 -52 -8 -56 -5 -4 3 -21 -2 -38 -10 -22 -12 -36
-13 -57 -5 -14 5 -67 10 -117 10 -87 0 -92 1 -137 34 -66 48 -116 67 -160 60
-27 -4 -41 -2 -50 10 -17 20 -31 21 -31 1 0 -20 -5 -19 -40 7 -17 12 -30 29
-30 37 0 12 -2 13 -8 4 -9 -15 -31 8 -57 57 -8 16 -20 30 -25 30 -16 0 -11
-50 14 -138 21 -74 22 -84 9 -98 -14 -14 -13 -16 6 -21 24 -6 28 -35 8 -52 -8
-6 -38 -16 -68 -23 -48 -10 -139 -59 -139 -75 0 -3 10 -3 23 0 12 3 49 9 82
12 32 4 72 13 87 21 33 17 46 18 30 2 -27 -27 -16 -31 66 -18 1 0 2 7 2 15 0
22 17 18 56 -11 40 -31 53 -25 37 17 -9 23 -9 37 -1 55 14 31 38 31 38 0 0
-13 6 -29 14 -35 8 -7 17 -28 20 -49 3 -20 9 -62 14 -92 8 -55 36 -120 50
-120 5 0 13 -12 18 -27 8 -24 4 -39 -27 -98 l-36 -70 -54 -2 c-61 -3 -187 -31
-194 -43 -3 -5 -29 -16 -58 -26 -28 -9 -46 -19 -39 -22 7 -2 27 3 45 11 45 22
233 69 257 65 18 -3 16 -7 -18 -44 -31 -35 -46 -43 -90 -49 -61 -8 -69 -25
-12 -25 22 0 40 -3 40 -7 -1 -13 -42 -38 -104 -64 -57 -23 -58 -24 -28 -27 65
-6 28 -39 -104 -94 -55 -22 -101 -42 -104 -45 -3 -3 25 -3 63 0 37 4 67 4 67
1 0 -3 -30 -19 -67 -35 -38 -17 -86 -39 -108 -50 l-40 -20 34 6 c42 6 37 1
-42 -47 -113 -68 -249 -130 -324 -148 -61 -14 -61 -30 0 -30 l42 -1 -34 -14
c-18 -8 -47 -15 -64 -15 l-30 0 27 -25 c21 -19 33 -23 57 -18 29 6 31 5 20
-15 -6 -11 -9 -27 -6 -34 7 -18 -52 -78 -76 -78 -24 0 -31 -14 -23 -45 l6 -26
25 33 c23 30 25 30 18 8 -3 -14 -9 -35 -12 -48 -3 -14 -11 -21 -19 -18 -19 7
-28 -12 -14 -29 12 -15 6 -35 -11 -35 -5 0 -9 8 -9 18 0 10 -4 22 -10 28 -6 6
-6 21 -1 42 11 38 9 39 -19 10 -18 -20 -20 -20 -20 -4 0 10 10 27 22 37 l21
19 -24 0 c-24 0 -36 -18 -59 -85 -6 -18 -8 -17 -15 7 -4 16 -4 36 -1 45 4 10
4 14 0 10 -4 -4 -14 -1 -22 6 -13 10 -15 9 -9 -6 12 -32 -4 -40 -30 -15 l-25
23 -17 -22 c-13 -15 -25 -20 -40 -16 -14 3 -18 8 -12 13 7 3 -3 7 -21 7 -18 1
-59 6 -90 13 -45 9 -58 16 -58 30 0 11 -4 21 -8 24 -5 3 -8 24 -8 48 1 43 1
43 37 43 20 0 43 6 51 13 13 10 21 8 47 -14 17 -14 31 -20 31 -13 0 8 7 6 20
-6 18 -16 20 -16 26 -1 7 18 24 22 24 5 0 -16 31 -38 55 -39 11 0 27 -5 35
-10 13 -9 13 -11 0 -19 -8 -6 -11 -13 -7 -18 14 -13 42 13 39 37 -2 13 0 26 6
29 26 17 -73 221 -100 205 -6 -4 -13 -2 -17 5 -5 7 -17 8 -40 1 -37 -10 -72 4
-64 27 3 7 -2 13 -10 13 -20 0 -29 -27 -17 -50 6 -11 6 -21 1 -24 -5 -4 -15 7
-23 24 -9 21 -20 30 -35 30 -13 0 -23 5 -23 10 0 6 -7 10 -15 10 -30 0 -44 59
-46 198 -2 94 4 118 22 92 8 -11 12 -12 15 -3 7 16 34 5 28 -11 -5 -12 20 -14
84 -7 18 1 8 46 -30 129 -16 36 -27 73 -26 81 2 9 14 -6 27 -34 12 -27 35 -66
50 -85 15 -19 40 -55 55 -78 15 -24 30 -41 33 -38 4 3 -1 14 -10 24 -19 20
-23 52 -7 52 6 0 10 5 10 10 0 6 -9 10 -20 10 -11 0 -20 5 -20 10 0 6 7 10 15
10 17 0 21 26 4 32 -5 2 -7 11 -4 20 6 15 10 13 31 -10 l24 -27 -17 40 c-10
22 -37 70 -60 108 -24 37 -43 71 -43 76 0 5 -16 38 -36 73 -60 103 -102 193
-118 250 -19 68 -30 130 -27 143 2 6 5 33 6 61 1 28 5 59 9 71 3 11 0 36 -9
56 -8 19 -24 77 -35 129 -11 51 -22 103 -25 115 -8 36 -73 91 -128 109 -48 16
-51 16 -64 -1 -7 -10 -15 -35 -19 -54 -8 -54 -12 -61 -29 -61 -14 0 -21 29
-17 70 1 8 0 29 -3 46 -5 26 -13 34 -48 47 -23 9 -59 19 -79 23 -23 4 -38 12
-38 20 0 15 44 12 124 -8 50 -12 52 -8 60 102 5 63 4 94 -5 108 -10 16 -10 23
3 36 12 12 17 13 21 3 3 -9 7 -9 20 1 23 19 26 -2 26 -150 -1 -69 2 -131 6
-137 12 -21 35 -11 64 29 65 91 155 141 213 121 17 -6 33 -10 35 -8 1 2 -5 37
-16 78 -15 60 -19 68 -22 44 l-4 -30 -19 34 c-10 18 -19 60 -21 92 -2 51 -1
59 15 59 15 0 17 -6 13 -42 -4 -29 -3 -39 5 -34 7 4 12 17 12 29 0 11 11 33
25 47 30 31 47 81 34 101 -13 21 -11 59 4 59 12 0 28 -24 43 -62 9 -25 56 -23
79 2 10 11 27 20 38 20 18 0 61 24 140 77 41 28 43 28 69 -2z m-2530 -203
c-24 -19 -20 -32 10 -32 18 0 24 -11 11 -24 -12 -12 -14 -48 -2 -62 6 -8 21
-11 33 -8 14 3 28 -1 35 -10 11 -14 11 -16 -4 -16 -12 0 -16 -7 -14 -27 1 -16
-5 -44 -14 -63 -16 -33 -17 -34 -13 -7 4 36 -17 46 -44 22 -14 -13 -20 -14
-20 -5 0 7 8 19 18 27 15 12 14 13 -13 11 -35 -3 -46 -38 -20 -64 20 -21 16
-58 -7 -62 -15 -3 -18 5 -18 51 0 50 -3 58 -31 82 -30 25 -31 29 -26 81 4 43
12 61 32 80 14 13 33 24 41 24 8 0 22 9 31 20 12 14 20 17 28 9 7 -7 3 -15
-13 -27z m5223 -312 c8 0 12 -6 9 -13 -3 -8 2 -19 10 -26 21 -18 82 3 89 29 3
11 10 20 16 20 17 0 13 -36 -5 -54 -9 -9 -19 -28 -23 -43 -10 -39 -31 -41 -31
-4 0 28 -3 31 -32 31 -18 1 -44 7 -58 15 -34 19 -42 18 -35 -4 4 -14 0 -23
-15 -31 -19 -10 -20 -9 -14 15 6 25 5 26 -38 22 -25 -2 -49 -7 -55 -10 -11 -7
-36 17 -46 43 -4 12 -6 12 -7 -2 -6 -52 -4 -63 12 -63 9 0 20 -4 24 -8 4 -4
-16 -7 -44 -7 -28 0 -54 5 -58 11 -3 6 3 24 15 40 12 16 17 29 11 29 -22 0 -8
18 18 23 19 4 34 -1 49 -15 20 -19 27 -20 58 -11 21 7 47 8 64 3 34 -10 62 4
55 28 -5 16 -5 16 6 0 6 -10 17 -18 25 -18z m285 -321 c0 -32 6 -34 63 -18 27
7 37 15 33 25 -3 9 1 14 14 14 22 0 27 -15 9 -26 -8 -5 -6 -10 5 -16 17 -10
22 -48 6 -48 -5 0 -10 5 -10 10 0 6 -7 10 -15 10 -8 0 -15 5 -15 10 0 6 -4 10
-10 10 -5 0 -10 -9 -10 -19 0 -23 -16 -36 -25 -21 -3 5 -14 10 -25 10 -22 0
-62 -63 -54 -85 4 -8 1 -15 -5 -15 -6 0 -10 -3 -10 -7 3 -20 -3 -21 -36 -7
-38 15 -43 10 -20 -20 21 -27 20 -30 -21 -50 -42 -19 -50 -16 -34 13 9 17 8
21 -4 21 -8 0 -18 -4 -21 -10 -3 -5 -13 -10 -21 -10 -11 0 -13 6 -9 20 5 16 2
20 -19 20 -31 0 -32 4 -5 41 15 21 26 28 40 24 13 -5 19 -2 19 10 0 8 7 18 15
21 32 12 13 25 -32 22 -37 -2 -48 0 -48 12 0 19 -62 15 -83 -6 -18 -19 -26
-12 -17 15 7 22 11 23 86 23 52 1 89 -9 104 -27 5 -7 31 -15 56 -17 53 -6 64
5 75 71 7 46 24 46 24 0z m-3617 -492 c-1 -72 -4 -157 -7 -187 -3 -33 0 -60 7
-68 21 -26 10 -91 -34 -188 -14 -33 -16 -48 -7 -75 9 -31 13 -34 48 -34 36 0
37 0 16 14 -11 8 -23 16 -25 17 -2 2 2 26 9 53 12 53 28 66 37 31 3 -11 11
-20 18 -20 11 0 26 -28 29 -55 1 -5 5 -13 10 -16 14 -11 9 -190 -9 -291 -4
-23 -3 -38 3 -38 5 0 10 -17 11 -37 2 -62 6 -87 18 -113 12 -26 29 -127 37
-217 5 -50 4 -53 -20 -59 -38 -10 -69 10 -99 60 -15 26 -29 46 -31 46 -2 0 -1
-25 2 -56 l7 -56 -34 7 c-62 12 -69 16 -75 41 -8 29 -11 30 -33 3 -14 -18 -23
-19 -68 -13 -51 6 -52 8 -46 33 3 14 16 44 29 66 13 22 31 55 41 73 19 36 33
42 33 12 0 -11 4 -20 8 -20 19 0 21 14 5 40 -15 26 -15 29 6 59 13 18 31 31
44 31 21 0 21 -1 -6 -25 -30 -29 -35 -45 -12 -45 8 0 15 7 15 15 0 18 26 20
33 3 2 -7 3 7 1 32 -2 25 -4 54 -5 65 0 11 -3 22 -8 25 -13 9 -40 118 -34 140
3 12 -2 29 -12 40 -10 11 -20 41 -23 67 -2 26 -11 56 -18 67 -12 18 -11 151 2
206 20 82 27 239 14 325 -23 152 -26 138 33 157 98 30 92 37 90 -115z m3353
86 c11 -16 16 -16 34 -5 12 7 24 11 27 8 10 -10 -7 -37 -21 -34 -21 5 -76 -70
-76 -104 0 -26 2 -28 20 -18 18 9 20 8 20 -15 0 -22 -4 -25 -34 -25 -19 0 -42
-3 -51 -6 -15 -6 -15 -4 -5 13 10 16 9 25 -4 51 -11 21 -16 53 -15 92 l2 60
45 0 c31 0 49 -5 58 -17z m-4781 -175 c13 -22 15 -33 7 -36 -18 -6 -15 -18 15
-65 28 -45 30 -52 10 -52 -39 -1 -54 -62 -17 -72 11 -3 20 -12 20 -19 0 -16
-26 -19 -35 -3 -4 6 -13 8 -20 5 -14 -5 -25 22 -25 61 0 13 -8 24 -20 28 -26
8 -26 29 0 22 17 -4 19 -1 14 19 -4 17 0 31 12 45 15 17 16 23 6 40 -13 20 -8
59 7 59 3 0 15 -14 26 -32z m1171 -314 c-48 -68 -86 -142 -86 -168 0 -27 -19
-27 -26 1 -5 18 -1 37 9 56 10 16 17 42 17 58 0 17 15 51 35 82 19 28 35 55
35 60 0 5 12 29 28 55 l27 47 3 -63 c3 -60 1 -65 -42 -128z m-1628 -246 c7 -7
12 -20 12 -29 0 -9 7 -20 16 -23 13 -5 15 -14 9 -43 -6 -31 -5 -35 8 -25 20
17 47 5 47 -20 0 -18 -4 -20 -32 -14 -18 3 -36 12 -40 19 -11 16 -25 -6 -34
-51 -9 -47 -23 -20 -16 31 4 29 2 38 -6 33 -7 -4 -12 -14 -12 -22 0 -8 -9 -34
-21 -59 -19 -39 -23 -43 -40 -32 -23 14 -25 43 -4 51 8 3 15 12 15 21 0 9 7
30 16 47 9 17 17 46 19 64 3 32 1 33 -22 28 -16 -4 -28 -2 -34 7 -6 11 0 16
24 20 54 11 82 10 95 -3z m4652 -120 c33 -54 27 -83 -22 -105 -79 -37 -118
-38 -85 -4 10 11 7 12 -16 7 -17 -4 -26 -3 -23 3 3 5 0 11 -6 14 -9 2 -2 14
17 33 17 16 40 42 52 57 31 36 59 35 83 -5z m50 -244 c0 -11 9 -29 20 -39 11
-10 20 -26 20 -36 0 -13 5 -16 16 -12 12 5 15 1 11 -13 -3 -10 2 -33 11 -50 9
-17 26 -49 37 -70 12 -22 30 -52 40 -69 11 -16 15 -26 8 -22 -17 10 -173 -147
-173 -175 0 -5 7 -8 15 -8 14 0 35 -29 35 -48 0 -15 -48 -24 -69 -13 -19 11
-19 55 0 67 5 3 9 15 9 27 0 12 9 37 20 54 22 38 26 70 16 131 -5 26 -13 42
-22 42 -8 0 -14 5 -14 10 0 6 6 10 13 10 17 0 21 64 7 126 -16 70 -21 142 -10
124 5 -8 10 -24 10 -36z m-187 -245 c9 -74 -2 -140 -22 -137 -11 2 -17 -6 -19
-26 -3 -25 -1 -28 17 -23 14 3 21 0 21 -9 0 -8 -7 -14 -15 -14 -11 0 -15 -11
-15 -40 0 -37 2 -40 19 -30 11 5 28 10 37 10 14 0 12 -6 -11 -30 -20 -21 -32
-27 -41 -19 -18 15 -61 0 -92 -32 -15 -16 -32 -29 -38 -29 -15 0 -26 28 -14
35 6 4 10 18 10 31 0 23 3 25 29 19 28 -6 30 -4 33 27 2 23 8 32 18 30 11 -3
10 1 -3 16 -12 13 -15 22 -8 27 16 9 14 25 -3 25 -18 0 -23 15 -31 96 l-7 69
32 24 c32 23 79 41 91 35 3 -2 9 -27 12 -55z m-5223 -65 c6 -14 6 -32 2 -41
-5 -9 -4 -29 3 -49 15 -44 25 -53 25 -23 0 14 -5 30 -11 36 -6 6 -8 16 -5 22
9 14 36 15 36 1 0 -5 25 8 57 30 65 46 89 50 105 15 6 -13 20 -27 30 -31 11
-3 18 -13 15 -22 -3 -18 -8 -19 -44 -7 -17 5 -23 2 -23 -10 0 -8 -11 -20 -25
-25 -14 -5 -25 -15 -25 -22 0 -7 -9 -24 -20 -38 -23 -30 -25 -50 -5 -50 8 0
15 6 15 13 0 6 7 20 15 30 13 18 16 18 59 -13 25 -17 46 -37 46 -45 0 -8 8
-18 18 -24 13 -8 14 -12 5 -22 -10 -10 -18 -10 -40 0 -16 7 -44 15 -63 17 -83
9 -180 36 -180 49 0 10 10 12 38 9 29 -4 32 -2 16 5 -12 5 -24 16 -27 25 -7
17 -37 22 -37 6 0 -5 -9 -10 -20 -10 -16 0 -20 7 -20 34 0 25 -5 35 -20 39
-17 4 -20 11 -14 34 5 24 64 93 79 93 3 0 10 -12 15 -26z m623 -114 c4 -17 2
-20 -15 -14 -16 5 -20 3 -15 -9 8 -22 -85 -110 -113 -105 -19 2 -23 -2 -26
-29 -2 -18 1 -35 6 -38 6 -3 10 -12 10 -20 0 -11 -15 -9 -66 11 -36 13 -73 23
-82 22 -29 -5 -16 57 23 107 19 25 39 54 45 63 9 15 11 15 22 2 7 -8 30 -27
52 -42 l39 -27 48 50 c53 54 64 59 72 29z m4493 -245 c-4 -14 -1 -25 7 -28 8
-3 21 -20 30 -39 14 -28 17 -30 17 -10 0 12 5 22 10 22 6 0 10 -9 10 -19 0
-11 3 -26 6 -34 3 -10 -3 -17 -20 -21 -29 -7 -36 -36 -9 -36 14 0 13 -3 -5
-23 -26 -27 -27 -34 -8 -53 11 -11 12 -22 5 -46 -5 -18 -9 -50 -9 -71 0 -37
-1 -38 -32 -35 -24 2 -33 8 -32 21 0 9 1 55 2 101 2 71 6 89 28 121 20 30 23
40 12 47 -7 4 -21 6 -30 4 -22 -5 -42 19 -34 40 5 14 9 14 23 3 14 -13 15 -11
10 16 -3 17 -8 40 -12 52 -6 19 -4 21 15 16 16 -4 20 -11 16 -28z m-2417 -121
c26 -33 78 -41 153 -21 71 18 95 8 75 -33 -14 -27 -72 -48 -141 -49 -28 -1
-37 -5 -33 -15 4 -9 -8 -20 -31 -30 -20 -10 -52 -31 -71 -48 -26 -24 -31 -32
-20 -39 10 -6 4 -9 -19 -9 -20 0 -35 -6 -38 -15 -7 -18 -34 -20 -34 -2 1 17
26 45 83 90 49 40 61 63 27 54 -15 -4 -20 0 -20 14 0 10 -5 19 -11 19 -7 0 -9
10 -5 25 5 20 3 25 -11 25 -35 -1 -108 -45 -128 -77 -20 -32 -35 -42 -35 -23
0 6 9 19 20 30 26 26 26 27 -12 45 l-33 14 45 -5 c36 -4 52 0 79 18 97 65 129
71 160 32z m386 -58 c25 -8 76 -12 140 -11 92 2 167 -6 205 -22 8 -3 17 -7 20
-8 3 -1 13 -5 23 -10 11 -4 23 -3 30 4 6 6 22 11 36 11 31 0 161 -50 161 -62
0 -11 -13 -10 -64 7 -24 8 -51 13 -59 9 -8 -3 -17 2 -20 10 -4 9 -18 16 -33
16 -21 0 -25 -4 -21 -20 4 -15 0 -20 -14 -20 -11 0 -36 -7 -57 -16 -68 -29
-262 -24 -262 7 0 6 -16 9 -37 8 -21 -2 -52 0 -70 5 -34 8 -51 35 -31 47 10 6
7 12 -9 24 -49 34 -12 46 62 21z"/>
<path d="M4815 3901 c-36 -5 -41 -10 -54 -47 -14 -41 -14 -42 15 -68 39 -34
90 -49 118 -33 12 6 27 12 35 12 8 0 20 16 26 35 15 41 26 41 63 -1 19 -21 39
-32 68 -36 47 -6 88 11 80 33 -3 9 1 14 14 14 21 0 35 16 22 24 -5 3 -7 16 -5
29 3 17 -2 26 -21 36 -33 18 -150 9 -175 -13 -16 -15 -23 -15 -81 4 -34 11
-63 19 -64 19 0 -1 -19 -5 -41 -8z"/>
<path d="M4857 3689 c-9 -5 -36 -13 -60 -17 l-42 -8 -1 -49 c-1 -39 4 -59 25
-90 21 -33 26 -52 26 -105 0 -61 2 -66 38 -102 21 -21 42 -38 46 -38 19 0 80
-36 124 -72 27 -22 50 -39 51 -37 2 2 11 18 20 36 23 46 36 51 209 78 31 5 40
12 52 41 18 44 21 90 11 176 -9 78 -21 98 -61 101 l-30 2 0 -60 c0 -33 -4 -67
-7 -75 -4 -8 -8 -26 -10 -40 -2 -14 -7 -23 -13 -20 -5 3 -8 10 -6 15 7 20 9
99 3 110 -3 5 -8 19 -9 30 -2 10 -7 22 -12 25 -5 3 -12 20 -16 38 -4 18 -14
36 -23 39 -10 3 -30 11 -47 18 -33 15 -45 12 -45 -14 0 -15 -11 -20 -60 -25
-72 -8 -130 8 -130 36 0 20 -7 22 -33 7z m265 -151 c-4 -29 -3 -31 10 -20 27
22 28 -9 2 -50 -31 -48 -61 -67 -113 -73 -22 -2 -49 -6 -58 -9 -18 -6 -93 55
-93 75 0 12 3 12 36 -6 57 -30 144 -12 144 29 0 12 65 86 75 86 1 0 -1 -15 -3
-32z"/>
<path d="M7056 2534 c-4 -9 -12 -14 -21 -10 -36 14 -39 -110 -3 -139 7 -6 18
-19 24 -30 13 -23 33 -29 53 -16 12 8 11 24 -5 107 -19 94 -34 123 -48 88z"/>
<path d="M5220 2531 c0 -27 157 -102 314 -151 69 -21 91 -32 89 -45 -1 -13 6
-15 35 -11 21 3 61 8 90 12 29 3 52 8 50 10 -2 2 -40 6 -84 10 -44 3 -99 15
-124 26 -25 11 -85 35 -135 54 -49 19 -98 39 -108 44 -43 25 -127 58 -127 51z"/>
<path d="M6830 2107 c0 -7 11 -23 25 -35 54 -47 30 -65 -107 -82 -78 -10 -101
-10 -113 0 -19 16 -19 49 0 56 8 4 15 17 15 31 0 22 -2 24 -16 12 -9 -8 -25
-33 -35 -56 -11 -27 -25 -43 -36 -44 -10 -1 -27 -2 -38 -3 -27 -2 -33 -43 -8
-61 15 -11 19 -11 26 1 11 19 36 18 44 -2 3 -8 12 -13 20 -10 8 3 28 -1 45
-10 30 -16 40 -16 138 0 26 4 54 19 84 43 22 18 31 21 42 12 18 -15 48 -3 41
16 -4 9 -1 12 9 8 8 -3 14 1 14 11 0 9 5 16 10 16 6 0 10 -4 10 -10 0 -5 6
-10 14 -10 9 0 12 7 9 20 -8 28 -25 39 -70 43 -28 3 -50 13 -73 35 -35 34 -50
40 -50 19z"/>
<path d="M1760 2776 c-19 -13 -48 -38 -64 -55 -33 -34 -46 -39 -46 -16 0 8 -5
15 -11 15 -18 0 -49 -87 -56 -155 -3 -36 -10 -68 -14 -71 -11 -7 -11 -7 5 101
8 51 10 94 5 99 -11 12 -30 -38 -34 -90 -1 -23 -10 -52 -18 -65 -9 -13 -16
-33 -15 -44 0 -11 -3 -28 -7 -37 -5 -13 -3 -18 9 -18 10 0 13 -6 9 -16 -10
-27 39 -169 68 -197 10 -10 19 -24 19 -31 0 -17 33 -46 52 -46 9 0 29 12 45
28 l30 27 -23 45 c-21 40 -23 60 -24 167 l0 121 34 45 c44 58 68 103 76 147 4
19 11 43 15 53 10 24 -12 21 -55 -7z"/>
<path d="M1846 2329 c-30 -35 -34 -67 -8 -76 9 -4 28 -15 42 -24 17 -12 54
-20 112 -25 84 -6 88 -6 132 22 49 31 59 45 50 69 -6 14 -8 13 -19 -2 -11 -15
-30 -17 -122 -17 -128 0 -163 7 -163 34 0 10 5 22 10 25 6 3 10 10 10 16 0 18
-18 9 -44 -22z"/>
<path d="M2331 1897 c-6 -8 -14 -28 -17 -46 -6 -29 -8 -30 -24 -16 -9 8 -19
13 -22 10 -3 -3 -11 1 -18 10 -19 23 -47 18 -54 -10 -4 -14 -11 -25 -17 -25
-7 0 -8 -11 -4 -30 4 -16 4 -30 0 -30 -10 0 -59 32 -87 58 l-27 24 -31 -22
c-17 -12 -35 -32 -39 -44 -7 -18 -11 -15 -34 31 -15 28 -30 54 -35 57 -11 7
-27 -5 -41 -32 -15 -28 -8 -40 13 -23 12 10 23 4 61 -34 51 -50 70 -53 70 -12
0 14 3 28 6 32 4 3 39 -10 79 -29 40 -20 75 -36 79 -36 4 0 7 18 8 40 1 21 7
48 12 59 11 19 12 19 66 -10 30 -16 61 -26 70 -23 18 7 18 7 3 39 -10 21 -9
27 7 39 10 7 15 18 11 24 -9 16 -21 15 -35 -1z"/>
<path d="M3330 1554 c-30 -7 -63 -18 -73 -24 -10 -6 -21 -8 -26 -6 -9 6 -49
-20 -41 -27 3 -2 33 -20 66 -40 58 -35 163 -136 200 -192 24 -36 30 -31 30 23
0 44 27 135 46 157 4 5 8 22 8 37 0 23 -4 28 -24 28 -14 0 -27 4 -31 9 -3 6
-26 13 -51 17 -47 7 -48 19 -4 27 19 3 16 4 -10 5 -19 0 -60 -6 -90 -14z"/>
<path d="M2898 1292 c-20 -2 -28 -10 -33 -32 -4 -16 -4 -40 0 -52 5 -22 5 -21
-9 2 -9 14 -15 37 -16 53 0 29 -19 38 -21 10 0 -10 -4 -44 -8 -76 l-7 -59 30
7 c17 4 67 9 111 11 91 5 125 11 125 22 0 17 -98 82 -123 82 -28 0 -45 16 -25
23 21 7 5 13 -24 9z"/>
<path d="M5 1144 c-5 -34 -3 -50 9 -62 10 -12 12 -22 5 -34 -7 -13 -4 -20 12
-29 22 -12 38 0 39 29 0 16 37 52 53 52 6 -1 2 -9 -10 -19 -23 -19 -32 -61
-14 -61 6 0 17 9 25 21 17 25 36 18 29 -11 -3 -11 -1 -20 3 -20 17 1 54 48 49
63 -4 8 1 17 11 21 13 5 14 9 4 21 -7 8 -21 15 -31 15 -11 0 -28 9 -39 20 -15
15 -21 16 -27 6 -4 -7 -16 -15 -25 -19 -10 -3 -18 -13 -18 -22 0 -8 -5 -15
-11 -15 -7 0 -10 15 -7 39 2 26 0 37 -8 34 -7 -2 -15 0 -19 6 -13 22 -23 10
-30 -35z"/>
<path d="M3000 1140 l-65 -18 3 -50 c3 -57 -12 -68 -58 -45 -30 15 -86 17 -95
3 -9 -14 56 -40 98 -40 18 0 38 -5 44 -11 13 -13 110 -14 126 -1 11 9 89 28
165 39 18 3 32 9 30 13 -6 17 -153 130 -168 129 -8 -1 -44 -9 -80 -19z"/>
<path d="M6394 1095 c-4 -21 -16 -40 -32 -51 -23 -15 -26 -15 -37 0 -7 9 -22
16 -33 16 -27 0 -66 -40 -52 -54 16 -16 12 -30 -5 -16 -13 11 -15 8 -15 -21 0
-31 1 -32 15 -13 14 18 14 17 15 -13 0 -17 -6 -38 -12 -45 -19 -20 -40 -59
-35 -64 10 -11 57 21 67 45 6 14 24 42 40 61 25 29 30 32 30 15 0 -11 -9 -34
-20 -52 l-19 -32 24 9 c93 35 135 76 135 131 0 34 -3 39 -24 39 -22 0 -24 3
-19 40 7 50 -13 55 -23 5z"/>
<path d="M2849 843 c-1 -5 -1 -12 0 -17 1 -5 -6 -18 -16 -29 -17 -19 -17 -20
0 -14 27 10 20 -8 -13 -36 -16 -14 -30 -28 -30 -31 0 -3 10 -16 23 -30 13 -14
32 -52 42 -85 16 -52 16 -64 4 -93 -20 -48 -87 -118 -114 -118 -13 0 -25 -7
-28 -15 -8 -19 -80 -55 -112 -55 -14 0 -30 -8 -37 -19 -9 -15 -16 -17 -31 -10
-10 6 -26 7 -35 3 -9 -4 -19 -8 -22 -8 -3 -1 -12 -6 -20 -11 -8 -5 -27 -8 -41
-6 -18 1 -32 -5 -41 -17 -13 -20 -84 -46 -99 -36 -4 2 -24 -5 -43 -15 -19 -11
-57 -21 -83 -22 -72 -2 -123 -10 -123 -18 0 -19 48 -28 100 -20 30 5 71 10 90
11 20 1 41 10 48 20 14 19 42 14 42 -8 0 -8 5 -14 10 -14 6 0 10 -5 10 -11 0
-8 -4 -8 -14 0 -20 17 -26 2 -21 -52 3 -39 0 -47 -16 -52 -10 -4 -19 -13 -19
-21 0 -23 63 -18 80 6 19 26 34 26 20 1 -10 -19 -6 -20 105 -20 107 0 115 2
115 20 0 10 7 19 15 19 8 0 15 6 15 13 0 14 35 39 44 30 3 -3 -8 -17 -24 -31
-17 -15 -30 -32 -30 -39 0 -19 9 -16 31 10 11 12 19 18 18 12 -4 -27 3 -35 30
-35 35 0 51 19 27 32 -24 14 -19 25 14 32 24 4 32 12 36 36 4 17 13 30 21 30
11 0 13 7 10 23 -4 12 -2 29 3 37 7 11 10 7 10 -17 0 -18 5 -33 10 -33 18 0
10 -26 -15 -50 -28 -26 -32 -40 -11 -40 8 0 29 22 47 50 18 27 38 50 45 50 17
0 38 37 24 42 -6 2 -5 9 1 18 8 11 12 12 16 3 7 -18 32 -16 39 2 5 13 8 12 22
-1 13 -13 13 -17 1 -25 -8 -5 -10 -9 -4 -9 5 0 4 -5 -3 -12 -8 -8 -15 -8 -27
2 -19 16 -20 3 0 -16 10 -10 12 -21 6 -32 -10 -20 -24 -118 -15 -109 3 3 17 1
31 -4 14 -5 34 -7 44 -4 37 12 36 85 -2 85 -17 0 -18 3 -7 21 11 17 10 22 -4
33 -24 17 -23 24 5 28 12 2 21 9 20 15 -3 15 24 36 36 28 6 -3 8 -20 4 -36 -4
-21 -1 -34 7 -39 10 -6 11 -12 3 -22 -6 -7 -14 -37 -18 -65 l-7 -53 31 0 c22
0 31 5 31 16 0 9 7 22 16 29 9 6 17 24 17 39 0 25 2 27 28 22 33 -6 37 5 12
29 -9 10 -26 34 -37 54 -60 108 -121 200 -124 187 -4 -19 -48 -26 -69 -10 -27
20 -63 17 -84 -8 -20 -22 -26 -54 -9 -43 6 3 10 2 10 -2 0 -5 -9 -14 -20 -21
-11 -7 -20 -23 -20 -37 0 -14 -3 -25 -7 -25 -5 0 -7 37 -5 82 3 74 6 85 28
101 23 17 24 17 24 0 0 -29 19 -1 25 37 11 71 36 175 46 186 5 6 31 20 57 30
l47 19 -40 5 c-53 7 -61 40 -15 66 18 11 28 24 25 32 -3 8 3 16 15 19 22 6 28
23 8 23 -7 0 -21 -6 -30 -14 -13 -10 -15 -15 -6 -24 9 -9 4 -12 -20 -12 -21 0
-41 9 -63 31 -25 24 -34 28 -45 18 -12 -10 -13 -9 -8 5 3 9 1 16 -5 16 -6 0
-12 -3 -12 -7z"/>
<path d="M6291 816 c-7 -8 -21 -12 -32 -9 -12 3 -35 -6 -61 -23 -28 -20 -43
-25 -45 -16 -7 19 -27 14 -51 -11 -26 -28 -27 -35 -5 -59 15 -17 15 -18 -6
-18 -12 0 -35 -14 -51 -30 -29 -29 -34 -41 -31 -67 1 -6 -3 -14 -8 -18 -12 -7
14 -41 42 -56 25 -14 71 21 98 76 l23 45 -25 26 c-16 18 -20 28 -11 31 6 3 12
14 12 24 0 11 4 17 10 14 5 -3 7 -18 4 -34 -5 -23 -1 -32 24 -50 17 -11 37
-21 45 -21 21 0 47 44 47 81 0 18 6 40 14 48 13 16 32 81 23 81 -2 0 -10 -6
-16 -14z"/>
<path d="M1300 769 c0 -12 -8 -23 -19 -26 -23 -6 -34 -39 -20 -64 13 -26 11
-70 -6 -102 -8 -15 -12 -33 -9 -41 3 -7 0 -24 -5 -39 -7 -19 -6 -40 5 -77 13
-45 17 -49 34 -40 16 9 20 21 20 65 0 30 9 78 19 107 11 29 20 65 20 81 1 15
1 39 2 53 1 15 -5 30 -12 34 -7 5 -12 22 -12 39 0 17 -4 31 -9 31 -4 0 -8 -9
-8 -21z"/>
<path d="M874 623 c5 -23 4 -25 -4 -10 -6 9 -23 17 -38 17 -22 0 -31 -8 -46
-41 -13 -28 -15 -44 -8 -51 6 -6 8 -17 5 -25 -4 -11 0 -14 18 -11 18 2 25 10
27 31 4 32 12 34 32 7 18 -26 24 -25 38 3 10 21 11 20 11 -10 1 -34 15 -44 25
-18 3 8 14 15 25 15 13 0 23 9 27 24 8 33 -61 110 -77 86 -8 -11 -12 -12 -16
-2 -10 24 -25 12 -19 -15z"/>
<path d="M1160 335 c-52 -38 -64 -75 -24 -75 8 0 14 -5 14 -11 0 -6 -7 -8 -16
-5 -9 3 -28 9 -42 12 -15 4 -32 12 -37 19 -47 57 -115 -9 -115 -111 0 -25 18
-32 37 -13 8 8 17 8 32 0 12 -7 21 -8 21 -3 0 9 31 23 56 26 6 1 18 7 27 15
24 19 36 5 30 -35 -6 -34 -5 -35 23 -28 54 13 74 23 74 39 0 11 7 13 30 9 20
-4 30 -2 30 5 0 7 -4 10 -9 6 -5 -3 -13 4 -16 16 -5 14 -1 27 14 40 27 26 31
24 25 -13 -7 -47 7 -64 37 -47 76 42 149 93 149 104 0 18 -25 26 -65 19 -27
-4 -35 -2 -35 10 0 20 -14 20 -30 1 -10 -12 -10 -15 4 -15 20 0 21 -16 1 -24
-9 -3 -25 4 -36 15 -12 12 -29 19 -40 16 -10 -3 -22 -1 -25 5 -3 5 -12 7 -19
4 -7 -2 -18 1 -25 7 -9 9 -11 9 -10 -3 4 -31 -11 -56 -36 -58 -24 -2 -33 12
-14 23 6 3 10 14 10 25 0 10 7 20 15 24 16 6 21 26 7 26 -4 0 -23 -11 -42 -25z"/>
<path d="M4443 343 c-49 -23 -66 -56 -53 -101 14 -54 13 -102 -4 -102 -14 0
-28 -47 -16 -55 4 -2 12 7 18 20 7 14 18 25 26 25 18 0 25 20 19 55 -5 21 -3
26 7 20 7 -4 16 -2 21 6 5 9 7 -4 5 -33 -4 -35 -1 -48 8 -48 18 0 27 65 20
141 -9 87 -12 91 -51 72z"/>
<path d="M3264 148 c-4 -6 -7 -24 -6 -39 0 -16 -2 -30 -6 -30 -49 -8 -72 -7
-72 3 0 21 -22 -8 -35 -45 l-11 -33 73 -1 c82 0 108 14 80 45 -18 19 -20 18
48 23 31 2 32 20 3 45 -39 33 -66 45 -74 32z"/>
<path d="M2164 106 c5 -22 3 -25 -14 -23 -11 2 -26 9 -32 15 -17 17 -38 15
-38 -3 0 -8 -4 -15 -9 -15 -5 0 -11 -11 -13 -25 -7 -36 24 -52 105 -53 62 0
69 2 92 30 28 33 30 45 11 71 -11 14 -15 15 -19 5 -4 -10 -8 -10 -16 2 -10 13
-12 13 -21 0 -6 -8 -8 -25 -5 -37 3 -12 1 -24 -4 -28 -6 -3 -11 13 -13 36 -2
25 -9 44 -17 47 -10 3 -12 -2 -7 -22z"/>
<path d="M1896 111 c-3 -5 -15 -7 -26 -4 -14 4 -22 -2 -30 -21 -5 -14 -15 -26
-22 -26 -9 0 -9 3 0 12 33 33 -19 44 -75 17 -49 -24 -61 -38 -42 -49 10 -7 10
-11 0 -24 -11 -13 -11 -16 2 -16 8 0 18 6 21 13 5 9 7 9 12 -1 3 -6 12 -12 19
-12 7 0 16 6 18 12 4 10 7 10 15 0 6 -9 25 -12 53 -10 34 2 45 7 47 22 2 10
-2 22 -10 27 -9 6 -9 9 -1 9 7 0 19 14 28 30 14 26 5 45 -9 21z"/>
</g>
</svg>
